<svg width="30" height="40" viewBox="0 0 30 40" fill="none" xmlns="http://www.w3.org/2000/svg">
<path d="M0.734375 0.0234375H29.0938C29.3229 0.0234375 29.5234 0.109375 29.6953 0.28125C29.8672 0.453125 29.9531 0.653646 29.9531 0.882812V36.1172C29.9531 36.3464 29.8672 36.5469 29.6953 36.7188C29.5234 36.8906 29.3229 36.9766 29.0938 36.9766H16.7188V35.2578H28.2344V1.74219H1.76562V35.2578H6.23438V36.9766H0.90625C0.677083 36.9766 0.476562 36.8906 0.304688 36.7188C0.132812 36.5469 0.046875 36.3464 0.046875 36.1172V0.882812C0.046875 0.424479 0.276042 0.138021 0.734375 0.0234375ZM6.23438 10.5938H23.7656V12.3125H6.23438V10.5938ZM6.23438 15.8359H23.7656V17.6406H6.23438V15.8359ZM9.84375 23.8281C10.3021 23.1979 10.8464 22.8828 11.4766 22.8828C12.1068 22.8828 12.651 23.1979 13.1094 23.8281C13.8542 23.6562 14.4557 23.7708 14.9141 24.1719C15.3724 24.5156 15.6016 25.0885 15.6016 25.8906C16.2891 26.2344 16.6615 26.7214 16.7188 27.3516C16.8333 27.9245 16.6328 28.4974 16.1172 29.0703C16.4609 29.7578 16.4609 30.388 16.1172 30.9609C16.1172 30.9609 16.0312 31.0469 15.8594 31.2188V38.7812C15.8594 39.125 15.6875 39.3828 15.3438 39.5547C15.0573 39.7266 14.7708 39.6979 14.4844 39.4688L11.4766 37.2344L8.46875 39.4688C8.18229 39.6979 7.86719 39.7266 7.52344 39.5547C7.23698 39.3828 7.09375 39.125 7.09375 38.7812V31.2188C6.92188 31.0469 6.83594 30.9609 6.83594 30.9609C6.54948 30.388 6.54948 29.7578 6.83594 29.0703C6.32031 28.4974 6.11979 27.9245 6.23438 27.3516C6.29167 26.7214 6.66406 26.2344 7.35156 25.8906C7.35156 25.0885 7.58073 24.5156 8.03906 24.1719C8.4974 23.7708 9.09896 23.6562 9.84375 23.8281ZM13.2812 24V24.0859C13.2812 24.0286 13.2812 24 13.2812 24ZM11.9062 24.9453C11.7917 24.7734 11.6484 24.6875 11.4766 24.6875C11.3047 24.6875 11.1901 24.7734 11.1328 24.9453C11.0182 25.1745 10.8464 25.3464 10.6172 25.4609C10.5599 25.4609 10.5312 25.4609 10.5312 25.4609V25.5469C10.1875 25.7188 9.8724 25.7188 9.58594 25.5469C9.41406 25.4323 9.27083 25.4323 9.15625 25.5469C9.04167 25.6042 9.01302 25.7474 9.07031 25.9766C9.1276 26.0911 9.15625 26.1771 9.15625 26.2344C9.15625 26.2917 9.1276 26.349 9.07031 26.4062C9.01302 26.4635 8.98438 26.4922 8.98438 26.4922C8.98438 26.9505 8.75521 27.2083 8.29688 27.2656C8.125 27.3229 8.01042 27.4375 7.95312 27.6094C7.95312 27.7812 8.01042 27.9245 8.125 28.0391C8.41146 28.2109 8.55469 28.4688 8.55469 28.8125V29.0703C8.55469 29.2422 8.4974 29.4141 8.38281 29.5859C8.26823 29.7005 8.26823 29.8438 8.38281 30.0156C8.4974 30.1875 8.64062 30.2448 8.8125 30.1875C9.09896 30.1302 9.35677 30.2161 9.58594 30.4453C9.64323 30.5026 9.72917 30.5885 9.84375 30.7031C9.95833 30.875 10.0156 31.0469 10.0156 31.2188C10.0156 31.3906 10.0729 31.5052 10.1875 31.5625C10.3594 31.6198 10.5312 31.5625 10.7031 31.3906C10.875 31.2188 11.0755 31.1615 11.3047 31.2188H11.6484C11.8776 31.1615 12.0781 31.2188 12.25 31.3906C12.4219 31.5625 12.5365 31.6484 12.5938 31.6484H12.6797C12.6797 31.5911 12.7083 31.5625 12.7656 31.5625C12.8802 31.5052 12.9375 31.3906 12.9375 31.2188C12.9375 30.9896 13.0521 30.7891 13.2812 30.6172C13.2812 30.6172 13.2812 30.5885 13.2812 30.5312C13.5104 30.2448 13.7969 30.1302 14.1406 30.1875C14.3698 30.2448 14.513 30.1875 14.5703 30.0156C14.5703 30.0156 14.5703 29.9583 14.5703 29.8438C14.5703 29.6719 14.5703 29.5859 14.5703 29.5859C14.4557 29.4141 14.3984 29.2422 14.3984 29.0703V28.8125C14.3984 28.4688 14.5417 28.2109 14.8281 28.0391C15 27.9245 15.0573 27.7812 15 27.6094C14.9427 27.4375 14.8281 27.3229 14.6562 27.2656C14.1979 27.2083 13.9688 26.9505 13.9688 26.4922C13.9688 26.4922 13.9401 26.4635 13.8828 26.4062C13.8828 26.349 13.8828 26.2917 13.8828 26.2344C13.8828 26.1771 13.8828 26.0911 13.8828 25.9766C13.9401 25.7474 13.9401 25.6042 13.8828 25.5469C13.7109 25.4323 13.5391 25.4323 13.3672 25.5469C13.1953 25.6042 13.0234 25.6328 12.8516 25.6328C12.6797 25.6328 12.5078 25.6042 12.3359 25.5469C12.2214 25.4323 12.1354 25.3464 12.0781 25.2891C11.9635 25.1745 11.9062 25.0599 11.9062 24.9453ZM8.8125 32.5938V36.9766L10.9609 35.3438C11.3047 35.1146 11.6484 35.1146 11.9922 35.3438L14.1406 36.9766V32.6797C13.9688 32.9089 13.7396 33.0807 13.4531 33.1953C13.4531 33.1953 13.4245 33.1953 13.3672 33.1953C13.0807 33.3099 12.8229 33.3672 12.5938 33.3672C12.4792 33.3672 12.1641 33.224 11.6484 32.9375H11.4766C10.8464 33.3385 10.2161 33.4531 9.58594 33.2812V33.1953C9.29948 33.0807 9.04167 32.8802 8.8125 32.5938Z" fill="#3458A4"/>
</svg>
