<svg width="36" height="37" viewBox="0 0 36 37" fill="none" xmlns="http://www.w3.org/2000/svg">
<path fill-rule="evenodd" clip-rule="evenodd" d="M0 0.999999C0 0.447715 0.447715 0 1 0H28C28.5523 0 29 0.447715 29 1V10.8962L27.5 9.5V2.50565C27.5 1.95116 27.0488 1.50254 26.4944 1.50566L2.53612 1.64059C1.98605 1.64368 1.54176 2.09048 1.54176 2.64057V34.3508C1.54176 34.9043 1.99131 35.3525 2.54478 35.3508L26.503 35.2784C27.0541 35.2768 27.5 34.8295 27.5 34.2784V28.1419L29 26.9661V36C29 36.5523 28.5523 37 28 37H1C0.447716 37 0 36.5523 0 36V0.999999ZM13.1938 6.42797H23.8951C24.2034 6.42797 24.4347 6.58475 24.5889 6.8983C24.743 7.1596 24.743 7.4209 24.5889 7.6822C24.4347 7.9435 24.2034 8.07415 23.8951 8.07415H13.1938C12.8854 8.07415 12.6542 7.9435 12.5 7.6822C12.3458 7.4209 12.3458 7.1596 12.5 6.8983C12.6542 6.58475 12.8854 6.42797 13.1938 6.42797ZM13.1938 10.5042H17H20.8062C21.1146 10.452 21.3458 10.5826 21.5 10.8962C21.6542 11.1575 21.6542 11.4188 21.5 11.6801C21.3458 11.9414 21.1146 12.072 20.8062 12.072H13.1938C12.8854 12.072 12.6542 11.9414 12.5 11.6801C12.3458 11.4188 12.3458 11.1575 12.5 10.8962C12.6542 10.5826 12.8854 10.452 13.1938 10.5042ZM26.8266 11.1314L36 18.8919L26.8266 26.6525V21.714H21.2762V16.0699H26.8266V11.1314ZM28.4454 14.5805V17.7161H22.8951V20.0678H28.4454V23.2034L33.5332 18.8919L28.4454 14.5805ZM5.55032 23.3538H14.1842C14.4925 23.3538 14.7238 23.5106 14.8779 23.8242C15.0321 24.0855 15.0321 24.3468 14.8779 24.6081C14.7238 24.8694 14.4925 25 14.1842 25H5.55032C5.24197 25 5.01071 24.8694 4.85653 24.6081C4.70236 24.3468 4.70236 24.0855 4.85653 23.8242C5.01071 23.5106 5.24197 23.3538 5.55032 23.3538ZM5.55032 28.4322H16.5739C16.8822 28.4322 17.1135 28.5629 17.2677 28.8242C17.4218 29.0855 17.4218 29.3468 17.2677 29.6081C17.1135 29.8694 16.8822 30 16.5739 30H5.55032C5.24197 30 5.01071 29.8694 4.85653 29.6081C4.70236 29.3468 4.70236 29.0855 4.85653 28.8242C5.01071 28.5629 5.24197 28.4322 5.55032 28.4322ZM8.77273 12.5758H8.56061C8.28036 12.9494 8.01525 13.2083 7.5 13.2121C7.09479 13.2151 6.84985 12.975 6.59509 12.7252C6.54405 12.6751 6.49262 12.6247 6.43943 12.5758L6.22727 12.5758L6.22727 15.3333C6.22727 15.3333 6.8538 14.4805 7.5 14.4848C8.1462 14.4892 8.77273 15.3333 8.77273 15.3333V12.5758ZM7.24838 6.09742C7.3184 6.03266 7.409 6 7.49955 6C7.59011 6 7.68093 6.03266 7.75072 6.09742L8.43899 6.73404L9.38825 6.60586C9.58138 6.57961 9.76109 6.70495 9.79495 6.88871L9.96032 7.79109L10.8068 8.22006C10.9793 8.30757 11.0479 8.50966 10.9623 8.67723L10.5413 9.50014L10.9632 10.3231C11.0488 10.4906 10.9802 10.6927 10.8077 10.7802L9.9621 11.2092L9.79585 12.1116C9.76198 12.2953 9.58228 12.4207 9.38915 12.3944L8.44077 12.2662L7.75162 12.9029C7.61158 13.0324 7.38842 13.0324 7.24838 12.9029L6.56012 12.2662L5.61085 12.3944C5.41772 12.4207 5.23802 12.2953 5.20415 12.1116L5.03879 11.2092L4.19232 10.7802C4.01978 10.6927 3.95121 10.4906 4.03679 10.3231L4.45779 9.50014L4.03679 8.67723C3.95121 8.50966 4.01978 8.30757 4.19232 8.22006L5.0379 7.79109L5.20415 6.88871C5.23802 6.70495 5.41772 6.57961 5.61085 6.60586L6.55922 6.73404L7.24838 6.09742Z" fill="#3458A4"/>
</svg>
