<svg width="15" height="44" viewBox="0 0 15 44" fill="none" xmlns="http://www.w3.org/2000/svg">
<path fill-rule="evenodd" clip-rule="evenodd" d="M15 20.9524V7.04849C15 3.18631 11.7347 0 7.55102 0C3.36735 0 0 3.18631 0 7.04849V20.9524H6.83673V7.04849C6.83673 6.75883 6.96429 6.28571 7.5 6.28571C7.96879 6.28571 8.16327 6.66227 8.16327 7.04849V20.9524H15ZM15 36.9513V23.0474H8.21918V36.9513C8.21918 37.3375 7.91096 37.6272 7.5 37.6272C7.08904 37.6272 6.78082 37.3375 6.78082 36.9513V23.0474H0V36.9513C0 40.8135 3.28767 43.9998 7.5 43.9998C11.6096 43.9998 15 40.91 15 36.9513Z" fill="#3455A6"/>
</svg>
