<svg width="40" height="40" viewBox="0 0 40 40" fill="none" xmlns="http://www.w3.org/2000/svg" focusable="false">
<path fill-rule="evenodd" clip-rule="evenodd" d="M21 6H20V10H21V6ZM21 12H20V16H21V12ZM20 18H21V22H20V18ZM21 24H20V28H21V24ZM20 30H21V33H20V30ZM11 7H19V8H12C11.4477 8 11 8.44772 11 9V30C11 30.5523 11.4477 31 12 31H19V32H11C10.4477 32 10 31.5523 10 31V8C10 7.44772 10.4477 7 11 7ZM29 31H22V32H30C30.5523 32 31 31.5523 31 31V8C31 7.44772 30.5523 7 30 7H22V8H29C29.5523 8 30 8.44772 30 9V30C30 30.5523 29.5523 31 29 31ZM18 12H12V13H18V12ZM18 14H12V15H18V14ZM12 16H18V17H12V16ZM18 18H12V19H18V18ZM23 12H29V13H23V12ZM23 14H29V15H23V14ZM29 16H23V17H29V16ZM23 18H29V19H23V18ZM29 20H23V21H29V20ZM23 22H29V23H23V22Z" fill="#3458A4"/>
</svg>
