<svg width="22" height="22" viewBox="0 0 22 22" fill="none" xmlns="http://www.w3.org/2000/svg" focusable="false">
  <path d="M17.8 17.5H21.9V21.6H17.8V17.5ZM17.3 11.6L20.1 16.3H14.4L17.3 11.6ZM16.8 19.6C16.8 20.9 15.8 21.9 14.5 21.9C13.2 21.9 12.2 20.9 12.2 19.6C12.2 18.3 13.2 17.3 14.5 17.3C15.8 17.3 16.8 18.3 16.8 19.6Z" fill="#3455a5" ></path>
  <path d="M10.9 14.1C5.1 14.1 0.4 16.5 0.4 19.4V22H8.3V19.5L13.6 14.2C12.7 14.1 11.8 14.1 10.9 14.1ZM10.9 0.9C8 0.9 5.7 3.3 5.7 6.2C5.7 9.1 8.1 11.5 11 11.5C13.9 11.5 16.3 9.1 16.3 6.2C16.3 3.3 13.8 0.9 10.9 0.9Z" fill="#3455a5"></path>
</svg>
