<svg width="20" height="18" viewBox="0 0 21 18" fill="none" xmlns="http://www.w3.org/2000/svg" focusable="false">
<path d="M18.6532 1.00987C16.0142 -0.82615 12.7554 0.0306572 10.9961 2.13187C9.2368 0.0306572 5.97805 -0.83635 3.33907 1.00987C1.93961 1.98907 1.05994 3.64149 0.999967 5.3857C0.860021 9.34334 4.2987 12.5156 9.54668 17.381L9.64664 17.4728C10.4064 18.1766 11.5759 18.1766 12.3356 17.4626L12.4456 17.3606C17.6935 12.5054 21.1222 9.33314 20.9923 5.3755C20.9323 3.64149 20.0526 1.98907 18.6532 1.00987V1.00987ZM11.0961 15.8612L10.9961 15.9632L10.8962 15.8612C6.13799 11.465 2.9992 8.55793 2.9992 5.6101C2.9992 3.57009 4.49862 2.04007 6.49785 2.04007C8.03726 2.04007 9.53668 3.04988 10.0665 4.44729H11.9358C12.4556 3.04988 13.955 2.04007 15.4944 2.04007C17.4936 2.04007 18.993 3.57009 18.993 5.6101C18.993 8.55793 15.8543 11.465 11.0961 15.8612Z" fill="#3458A4"/>
</svg>
