<svg xmlns="http://www.w3.org/2000/svg" width="105" height="60" viewBox="0 0 105 60">
  <defs>
    <radialGradient id="acs-a" cx="50.288%" cy="49.671%" r="93.044%" fx="50.288%" fy="49.671%" gradientTransform="matrix(.41189 0 0 1 .296 0)">
      <stop offset="30.32%" stop-color="#E9303A"/>
      <stop offset="49.71%" stop-color="#D62C35"/>
      <stop offset="81%" stop-color="#BD262E"/>
      <stop offset="100%" stop-color="#B4242C"/>
    </radialGradient>
    <radialGradient id="acs-b" cx="48.131%" cy="51.75%" r="80.317%" fx="48.131%" fy="51.75%" gradientTransform="scale(.92473 1) rotate(7.022 .5 .837)">
      <stop offset="0%" stop-color="#F8A98D"/>
      <stop offset="11.08%" stop-color="#F79B83"/>
      <stop offset="31.95%" stop-color="#F37767"/>
      <stop offset="60.18%" stop-color="#ED3C3B"/>
      <stop offset="72.34%" stop-color="#EA2127"/>
      <stop offset="85.77%" stop-color="#DA2127"/>
      <stop offset="100%" stop-color="#C52127"/>
    </radialGradient>
    <radialGradient id="acs-c" cy="50.403%" r="51.152%" fx="50%" fy="50.403%" gradientTransform="matrix(.99117 0 0 1 .004 0)">
      <stop offset="0%" stop-color="#086DB5"/>
      <stop offset="27.63%" stop-color="#125DA8"/>
      <stop offset="81.19%" stop-color="#2C3487"/>
      <stop offset="87.77%" stop-color="#2F2F82"/>
      <stop offset="100%" stop-color="#2E2C72"/>
    </radialGradient>
    <radialGradient id="acs-d" cx="2351.91%" cy="1828.21%" r="2359.77%" fx="2351.91%" fy="1828.21%">
      <stop offset="0%" stop-color="#086DB5"/>
      <stop offset="27.63%" stop-color="#125DA8"/>
      <stop offset="81.19%" stop-color="#2C3487"/>
      <stop offset="87.77%" stop-color="#2F2F82"/>
      <stop offset="100%" stop-color="#2E2C72"/>
    </radialGradient>
  </defs>
  <g fill="none" fill-rule="evenodd" transform="translate(1 2)">
    <g fill="#234089" fill-rule="nonzero" transform="translate(52 22)">
      <path d="M4.6 7.3L4.2 6.2 1.9 6.2 1.5 7.3.2 7.3 2.5.9 3.5.9 5.8 7.3C5.8 7.3 4.6 7.3 4.6 7.3zM3.1 2.8L2.3 5.1 3.9 5.1 3.1 2.8zM8.4 7.3C7.1 7.3 6 6.4 6 5.1L6 .9 7.2.9 7.2 5.1C7.2 5.8 7.6 6.3 8.3 6.3 9 6.3 9.4 5.9 9.4 5.1L9.4.9 10.6.9 10.6 5.1C10.7 6.5 9.7 7.3 8.4 7.3zM13.7 7.3C12.7 7.3 12 7.1 11.4 6.5L12.2 5.7C12.6 6.1 13.2 6.2 13.7 6.2 14.4 6.2 14.8 5.9 14.8 5.4 14.8 5.2 14.7 5 14.6 4.9 14.5 4.8 14.3 4.7 14 4.7L13.2 4.6C12.7 4.5 12.2 4.3 12 4.1 11.7 3.8 11.5 3.4 11.5 2.8 11.5 1.7 12.3.9 13.7.9 14.6.9 15.2 1.1 15.8 1.6L15 2.4C14.6 2 14.1 2 13.7 2 13 2 12.7 2.4 12.7 2.8 12.7 3 12.8 3.1 12.9 3.3 13 3.4 13.2 3.5 13.5 3.6L14.3 3.7C14.9 3.8 15.3 3.9 15.5 4.2 15.8 4.5 16 5 16 5.6 16 6.6 15 7.3 13.7 7.3z"/>
      <polygon points="19.5 2 19.5 7.3 18.2 7.3 18.2 2 16.5 2 16.5 .9 21.1 .9 21.1 2"/>
      <path d="M25.5 7.3L24.3 4.7 23.4 4.7 23.4 7.3 22.2 7.3 22.2.9 24.7.9C26 .9 26.8 1.8 26.8 2.9 26.8 3.8 26.3 4.4 25.6 4.6L27 7.4 25.5 7.3zM24.5 2L23.3 2 23.3 3.7 24.5 3.7C25 3.7 25.4 3.3 25.4 2.9 25.4 2.4 25.1 2 24.5 2zM31.5 7.3L31.1 6.2 28.8 6.2 28.4 7.3 27.1 7.3 29.4.9 30.4.9 32.7 7.3 31.5 7.3zM30 2.8L29.2 5.1 30.8 5.1 30 2.8z"/>
      <polygon points="33.3 7.3 33.3 .9 34.5 .9 34.5 6.2 37.4 6.2 37.4 7.3"/>
      <polygon points="38 7.3 38 .9 39.3 .9 39.3 7.3 38 7.3"/>
      <path d="M44.1,7.3 L43.7,6.2 L41.4,6.2 L41,7.3 L39.7,7.3 L42,0.9 L43,0.9 L45.3,7.3 C45.3,7.3 44.1,7.3 44.1,7.3 Z M42.6,2.8 L41.8,5.1 L43.4,5.1 L42.6,2.8 Z"/>
      <polygon points="49.7 7.3 47.2 3.4 47.2 7.3 46 7.3 46 .9 47.1 .9 49.6 4.8 49.6 .9 50.8 .9 50.8 7.3 49.7 7.3"/>
      <path d="M3.1 16.7C2.4 16.7 1.8 16.4 1.4 16 .8 15.4.8 14.6.8 13.4.8 12.3.8 11.5 1.4 10.8 1.8 10.4 2.4 10.1 3.1 10.1 4.3 10.1 5.2 10.8 5.5 12.1L4.2 12.1C4.1 11.6 3.8 11.2 3.1 11.2 2.8 11.2 2.5 11.3 2.3 11.5 2.1 11.8 2 12.1 2 13.3 2 14.5 2.1 14.8 2.3 15.1 2.5 15.3 2.8 15.4 3.1 15.4 3.7 15.4 4.1 15 4.2 14.5L5.5 14.5C5.2 16 4.2 16.7 3.1 16.7zM10.1 16C9.7 16.4 9.1 16.7 8.4 16.7 7.7 16.7 7.1 16.4 6.7 16 6.1 15.4 6.1 14.6 6.1 13.4 6.1 12.3 6.1 11.5 6.7 10.8 7.2 10.4 7.7 10.1 8.4 10.1 9.1 10.1 9.7 10.4 10.1 10.8 10.7 11.4 10.7 12.2 10.7 13.4 10.8 14.6 10.8 15.4 10.1 16zM9.2 11.7C9 11.5 8.7 11.4 8.4 11.4 8.1 11.4 7.8 11.5 7.6 11.7 7.4 12 7.3 12.3 7.3 13.5 7.3 14.7 7.4 15 7.6 15.3 7.8 15.5 8.1 15.6 8.4 15.6 8.7 15.6 9 15.5 9.2 15.3 9.4 15 9.5 14.7 9.5 13.5 9.5 12.2 9.4 11.9 9.2 11.7zM16.1 16.7L16.1 13 14.9 15.4 14 15.4 12.8 13 12.8 16.7 11.6 16.7 11.6 10.3 12.8 10.3 14.5 13.8 16.2 10.3 17.4 10.3 17.4 16.7C17.4 16.7 16.1 16.7 16.1 16.7zM20.9 14.3L19.7 14.3 19.7 16.7 18.5 16.7 18.5 10.3 21 10.3C22.3 10.3 23.1 11.2 23.1 12.3 23 13.3 22.2 14.3 20.9 14.3zM20.8 11.4L19.6 11.4 19.6 13.2 20.8 13.2C21.4 13.2 21.7 12.8 21.7 12.3 21.7 11.7 21.4 11.4 20.8 11.4zM25.9 16.7C24.6 16.7 23.5 15.8 23.5 14.5L23.5 10.3 24.7 10.3 24.7 14.5C24.7 15.2 25.1 15.7 25.8 15.7 26.5 15.7 26.9 15.3 26.9 14.5L26.9 10.3 28.1 10.3 28.1 14.5C28.2 15.8 27.2 16.7 25.9 16.7z"/>
      <polygon points="31.8 11.4 31.8 16.7 30.6 16.7 30.6 11.4 28.9 11.4 28.9 10.3 33.5 10.3 33.5 11.4"/>
      <polygon points="34.2 16.7 34.2 10.3 38.4 10.3 38.4 11.4 35.4 11.4 35.4 12.9 37.9 12.9 37.9 14 35.4 14 35.4 15.6 38.4 15.6 38.4 16.7"/>
      <path d="M42.6 16.7L41.4 14.1 40.5 14.1 40.5 16.7 39.3 16.7 39.3 10.3 41.8 10.3C43.1 10.3 43.9 11.2 43.9 12.3 43.9 13.2 43.4 13.8 42.7 14L44.1 16.8 42.6 16.7zM41.6 11.4L40.4 11.4 40.4 13.1 41.6 13.1C42.1 13.1 42.5 12.7 42.5 12.3 42.5 11.7 42.2 11.4 41.6 11.4zM2.7 26.1C1.7 26.1 1 25.9.4 25.3L1.2 24.5C1.6 24.9 2.2 25 2.7 25 3.4 25 3.8 24.7 3.8 24.2 3.8 24 3.7 23.8 3.6 23.7 3.5 23.6 3.3 23.5 3 23.5L2.2 23.4C1.7 23.3 1.2 23.1 1 22.9.7 22.6.5 22.2.5 21.6.5 20.5 1.3 19.7 2.7 19.7 3.6 19.7 4.2 19.9 4.8 20.4L4 21.2C3.6 20.8 3.1 20.8 2.7 20.8 2 20.8 1.7 21.2 1.7 21.6 1.7 21.8 1.8 21.9 1.9 22.1 2 22.2 2.2 22.3 2.5 22.4L3.3 22.5C3.9 22.6 4.3 22.7 4.5 23 4.8 23.3 5 23.8 5 24.4 5 25.4 4 26.1 2.7 26.1zM9.7 25.4C9.3 25.8 8.7 26.1 8 26.1 7.3 26.1 6.7 25.8 6.3 25.4 5.7 24.8 5.7 24 5.7 22.8 5.7 21.7 5.7 20.9 6.3 20.2 6.7 19.8 7.3 19.5 8 19.5 8.7 19.5 9.3 19.8 9.7 20.2 10.3 20.8 10.3 21.6 10.3 22.8 10.3 23.9 10.3 24.7 9.7 25.4zM8.7 21C8.5 20.8 8.2 20.7 7.9 20.7 7.6 20.7 7.3 20.8 7.1 21 6.9 21.3 6.8 21.6 6.8 22.8 6.8 24 6.9 24.3 7.1 24.6 7.3 24.8 7.6 24.9 7.9 24.9 8.2 24.9 8.5 24.8 8.7 24.6 8.9 24.3 9 24 9 22.8 9.1 21.6 9 21.3 8.7 21zM13.3 26.1C12.6 26.1 12 25.8 11.6 25.4 11 24.8 11 24 11 22.8 11 21.7 11 20.9 11.6 20.2 12 19.8 12.6 19.5 13.3 19.5 14.5 19.5 15.4 20.2 15.7 21.5L14.4 21.5C14.3 21 14 20.6 13.3 20.6 13 20.6 12.7 20.7 12.5 20.9 12.3 21.2 12.2 21.5 12.2 22.7 12.2 23.9 12.3 24.2 12.5 24.5 12.7 24.7 13 24.8 13.3 24.8 13.9 24.8 14.3 24.4 14.4 23.9L15.7 23.9C15.4 25.4 14.5 26.1 13.3 26.1z"/>
      <polygon points="16.3 26 16.3 19.6 17.6 19.6 17.6 26"/>
      <polygon points="18.5 26 18.5 19.6 22.7 19.6 22.7 20.7 19.7 20.7 19.7 22.2 22.2 22.2 22.2 23.3 19.7 23.3 19.7 24.9 22.7 24.9 22.7 26"/>
      <polygon points="26.4 20.7 26.4 26 25.2 26 25.2 20.7 23.5 20.7 23.5 19.6 28.1 19.6 28.1 20.7"/>
      <polygon points="31.5 23.4 31.5 26 30.3 26 30.3 23.4 28.4 19.6 29.8 19.6 31 22.2 32.2 19.6 33.6 19.6"/>
    </g>
    <path fill="url(#acs-a)" fill-rule="nonzero" d="M1.6,14.2 L3.6,9.6 L8.5,6.6 C8.5,6.6 16.6,3.4 16.9,3.4 C17.2,3.4 28.1,1.6 28.1,1.6 L37.8,1.8 L44.6,3 L48.1,4.4 L49.9,6.9 L50.4,10.3 L49.7,18.4 L48,21.7 L1.6,14.2 Z"/>
    <polygon fill="url(#acs-b)" fill-rule="nonzero" points="40.4 9.5 44.6 6.9 41.6 10.6 46.7 9.9 42.2 12 47.3 13.2 42.2 13.5 46.7 16.4 41.8 14.8 45.3 18.7 40.8 15.6 42.3 20.5 39.3 16.1 38.7 21.1 37.6 16.1 35 20.2 36 15.4 31.8 18.2 34.8 14.3 29.6 15.3 34.1 12.9 28.7 11.9 34 11.3 28.9 8.1 34.7 10.1 31.6 5.8 35.9 9.1 34.5 4.1 37.4 8.7 38.1 3.9 39 8.8 41.7 4.8"/>
    <g fill="#FFF" fill-rule="nonzero" transform="translate(6 18)">
      <path d="M9.3.2L1.3.2 2.5 2 8.1 2C8.8 2 9.3 2.6 9.3 3.2L9.3 8.3C9.3 9 8.8 9.4 8.1 9.4L4.9 9.4C4.2 9.4 3.7 8.9 3.7 8.2L3.7 7.4C3.7 6.7 4.2 6.2 4.9 6.2L7.4 6.2 8.6 4.4 3.7 4.4C3.3 4.4 2.9 4.5 2.5 4.6 1.4 5.1.6 6.2.6 7.5L.6 8.1C.6 9.4 1.4 10.5 2.5 11 2.9 11.2 3.3 11.2 3.7 11.2L9.2 11.2C9.6 11.2 10 11.1 10.4 11 11.5 10.5 12.3 9.4 12.3 8.1L12.3 3.2C12.5 1.6 11.1.2 9.3.2zM18 2.1L23.6 2.1 24.8.3 16.8.3C15.1.3 13.7 1.7 13.7 3.4L13.7 8.3C13.7 10 15.1 11.4 16.8 11.4L23.5 11.4 24.7 9.6 17.9 9.6C17.2 9.6 16.7 9.1 16.7 8.4L16.7 3.4C16.8 2.6 17.3 2.1 18 2.1zM34.9 5.1C34.5 4.9 34.1 4.9 33.7 4.9L29.3 4.9C28.7 4.9 28.1 4.6 28.1 3.9L28.1 3.1C28.1 2.5 28.6 2.1 29.3 2.1L35 2.1 36.2.3 28.1.3C27.7.3 27.2.5 26.9.6 25.8 1.1 25.1 2.1 25.1 3.3L25.1 3.8C25.1 5 25.9 6 26.9 6.5 27.3 6.7 27.7 6.7 28.1 6.7L32.5 6.7C33.1 6.7 33.7 7 33.7 7.7L33.7 8.4C33.7 9 33.2 9.4 32.5 9.4L26.3 9.4 25.1 11.2 33.8 11.2C34.2 11.2 34.7 11 35 10.9 36.1 10.4 36.8 9.4 36.8 8.2L36.8 7.7C36.8 6.5 36 5.6 34.9 5.1z"/>
    </g>
    <path fill="#EF4F3E" fill-rule="nonzero" d="M48.8,4.3 C47.1,2.9 44.4,2.2 40,1.5 C37.9,1.2 35.8,1 33.6,1 C24.5,0.8 15.2,2.8 9.3,5.5 C6.7,6.7 4.9,7.8 3.6,9.1 C2.3,10.4 1.6,12 1.2,14 C1.1,14.3 1.1,14.6 1,15 C1.4,14.7 1.8,14.5 2.2,14.2 C2.6,12.4 3.2,11.1 4.3,9.9 C5.4,8.7 7.1,7.7 9.7,6.5 C15.5,3.9 24.7,1.9 33.6,2.1 C35.7,2.1 37.8,2.3 39.8,2.6 C44.2,3.2 46.7,4 48.1,5.1 C49.5,6.2 49.9,7.7 49.8,10.2 C49.8,11.3 49.7,12.7 49.5,14.2 C49.3,16 48.9,17.9 48.4,19.9 C48.7,20.2 49,20.5 49.3,20.8 C49.9,18.5 50.4,16.3 50.6,14.3 C50.8,12.8 50.9,11.4 50.9,10.2 C51,7.6 50.5,5.7 48.8,4.3 Z"/>
    <g transform="translate(0 9)">
      <path d="M8.6 20.1C9 20.3 9.4 20.3 9.8 20.3L15.3 20.3C15.7 20.3 16.1 20.2 16.5 20.1 17.6 19.6 18.4 18.5 18.4 17.2L18.4 12.3C18.4 10.6 17 9.2 15.3 9.2L7.3 9.2 8.5 11 14.1 11C14.8 11 15.3 11.6 15.3 12.2L15.3 17.3C15.3 18 14.8 18.4 14.1 18.4L10.9 18.4C10.2 18.4 9.7 17.9 9.7 17.2L9.7 16.4C9.7 15.7 10.2 15.2 10.9 15.2L13.4 15.2 14.6 13.4 9.7 13.4C9.3 13.4 8.9 13.5 8.5 13.6 7.4 14.1 6.6 15.2 6.6 16.5L6.6 17.1C6.7 18.5 7.5 19.6 8.6 20.1zM22.8 20.3L29.5 20.3 30.7 18.5 23.9 18.5C23.2 18.5 22.7 18 22.7 17.3L22.7 12.3C22.7 11.6 23.2 11.1 23.9 11.1L29.5 11.1 30.7 9.3 22.7 9.3C21 9.3 19.6 10.7 19.6 12.4L19.6 17.3C19.7 18.9 21.1 20.3 22.8 20.3zM32.9 15.5C33.3 15.7 33.7 15.7 34.1 15.7L38.5 15.7C39.1 15.7 39.7 16 39.7 16.7L39.7 17.4C39.7 18 39.2 18.4 38.5 18.4L32.3 18.4 31.1 20.2 39.8 20.2C40.2 20.2 40.7 20 41 19.9 42.1 19.4 42.8 18.4 42.8 17.2L42.8 16.7C42.8 15.5 42 14.5 41 14 40.6 13.8 40.2 13.8 39.8 13.8L35.4 13.8C34.8 13.8 34.2 13.5 34.2 12.8L34.2 12.1C34.2 11.5 34.7 11.1 35.4 11.1L41.1 11.1 42.3 9.3 34.2 9.3C33.8 9.3 33.3 9.5 33 9.6 31.9 10.1 31.2 11.1 31.2 12.3L31.2 12.8C31.1 14 31.8 15 32.9 15.5z"/>
      <path fill="url(#acs-c)" fill-rule="nonzero" d="M1.8,8.6 C1.5,21.9 14,39 21.6,44.6 C23.5,46 24.9,46.6 25.9,46.6 C27.2,46.6 28.4,45.9 30,44.5 C36.9,38.6 45.3,23 48.4,11.1 C42.7,5.5 33.5,1.4 25.5,0.6 C17.7,-0.2 8.6,1.5 2.1,5.3 C2,6.3 1.8,7.4 1.8,8.6 Z M31.1,12.3 C31.1,11 31.8,10 32.9,9.6 C33.3,9.4 33.7,9.3 34.1,9.3 L42.2,9.3 L41,11.1 L35.3,11.1 C34.7,11.1 34.1,11.5 34.1,12.1 L34.1,12.8 C34.1,13.4 34.6,13.8 35.3,13.8 L39.7,13.8 C40.1,13.8 40.5,13.9 40.9,14 C42,14.5 42.7,15.4 42.7,16.7 L42.7,17.2 C42.7,18.4 42,19.5 40.9,19.9 C40.5,20.1 40.1,20.2 39.7,20.2 L31,20.2 L32.2,18.4 L38.4,18.4 C39,18.4 39.6,18 39.6,17.4 L39.6,16.7 C39.6,16.1 39.1,15.7 38.4,15.7 L34,15.7 C33.6,15.7 33.2,15.6 32.8,15.5 C31.7,15 31,14.1 31,12.8 L31.1,12.3 Z M19.7,12.3 C19.7,10.6 21.1,9.2 22.8,9.2 L30.8,9.2 L29.6,11 L24,11 C23.3,11 22.8,11.5 22.8,12.2 L22.8,17.2 C22.8,17.9 23.3,18.4 24,18.4 L30.8,18.4 L29.6,20.2 L22.9,20.2 C21.2,20.2 19.8,18.8 19.8,17.1 L19.7,12.3 Z M6.7,16.7 C6.7,15.4 7.5,14.3 8.6,13.8 C9,13.6 9.4,13.6 9.8,13.6 L14.7,13.6 L13.5,15.4 L11,15.4 C10.3,15.4 9.8,15.9 9.8,16.6 L9.8,17.4 C9.8,18.1 10.3,18.6 11,18.6 L14.2,18.6 C14.9,18.6 15.4,18.2 15.4,17.5 L15.4,12.4 C15.4,11.7 14.8,11.2 14.2,11.2 L8.6,11.2 L7.4,9.4 L15.4,9.4 C17.1,9.4 18.5,10.8 18.5,12.5 L18.5,17.4 C18.5,18.7 17.7,19.8 16.6,20.3 C16.2,20.5 15.8,20.5 15.4,20.5 L9.9,20.5 C9.5,20.5 9.1,20.4 8.7,20.3 C7.6,19.8 6.8,18.7 6.8,17.4 L6.7,16.7 Z"/>
      <path fill="url(#acs-d)" fill-rule="nonzero" d="M1.6,5.6 C1.7,5.5 1.8,5.5 1.9,5.4 C1.8,5.4 1.7,5.5 1.6,5.6 Z"/>
      <path fill="#436AB1" fill-rule="nonzero" d="M48.9,11.4 C48.7,11.2 48.6,11.1 48.5,11 C45.4,22.9 37.1,38.5 30.1,44.4 C28.5,45.8 27.3,46.6 26,46.5 C24.9,46.5 23.6,45.9 21.7,44.5 C14.1,38.9 1.6,21.8 1.9,8.5 C1.9,7.3 2,6.2 2.3,5.1 C2.2,5.2 2.1,5.2 2,5.3 C1.9,5.4 1.8,5.4 1.7,5.5 C1.5,5.6 1.3,5.8 1.1,5.9 C1,6.7 0.9,7.6 0.9,8.5 C0.7,22.4 13.3,39.5 21.1,45.4 C23.1,46.9 24.6,47.6 26.1,47.6 C27.9,47.6 29.3,46.6 30.9,45.2 L30.6,44.8 L30.9,45.2 C38,39.1 46.2,23.9 49.4,11.8 C49.2,11.7 49,11.6 48.9,11.4 Z"/>
    </g>
  </g>
</svg>
