<svg xmlns="http://www.w3.org/2000/svg" width="135" height="60" viewBox="0 0 135 60">
  <g fill="none" transform="translate(0 6)">
    <path fill="#DA291C" d="M28.9,0.6 L28.9,16.4 C28.9,24.4 23.5,33.2 14.8,36.6 C6.1,33.2 0.8,24.4 0.8,16.4 L0.8,0.6 L28.9,0.6 Z"/>
    <polygon fill="#FFF" points="6 16.5 14.8 4.8 23.7 16.5 14.8 28.1"/>
    <path fill="#DA291C" d="M14,18.1 C14,21.1 14.7,24.7 14.8,25 C14.9,24.6 15.6,21 15.6,18.1 L15.6,17.3 L18.3,17.3 L18.3,17.5 C18.3,18 18.7,18.5 19.1,18.5 C19.6,18.5 19.9,18 19.9,17.5 L19.9,17.3 L20.1,17.3 C20.6,17.3 21.1,16.9 21.1,16.5 C21.1,16 20.6,15.7 20.1,15.7 L19.9,15.7 L19.9,15.5 C19.9,15 19.5,14.5 19.1,14.5 C18.6,14.5 18.3,15 18.3,15.5 L18.3,15.7 L15.7,15.7 L15.7,12.6 L15.9,12.6 C16.4,12.6 16.9,12.2 16.9,11.8 C16.9,11.3 16.4,11 15.9,11 L15.7,11 L15.7,10.8 C15.7,10.3 15.3,9.8 14.9,9.8 C14.5,9.8 14.1,10.3 14.1,10.8 L14.1,11 L13.9,11 C13.4,11 12.9,11.4 12.9,11.8 C12.9,12.3 13.4,12.6 13.9,12.6 L14.1,12.6 L14.1,15.7 L11.5,15.7 L11.5,15.5 C11.5,15 11.1,14.5 10.7,14.5 C10.2,14.5 9.9,15 9.9,15.5 L9.9,15.7 L9.7,15.7 C9.2,15.7 8.7,16.1 8.7,16.5 C8.7,17 9.2,17.3 9.7,17.3 L9.9,17.3 L9.9,17.5 C9.9,18 10.3,18.5 10.7,18.5 C11.2,18.5 11.5,18 11.5,17.5 L11.5,17.3 L14.1,17.3 L14,18.1 Z"/>
    <g fill="#3C1053" transform="translate(0 42)">
      <path d="M3.8.2L3 .2.7 5.2 1.6 5.2 2.1 4.1 4.7 4.1 5.2 5.2 6 5.2 3.8.2zM4.4 3.5L2.4 3.5 3.4 1.2 4.4 3.5zM9.8 3.2C9.8 4.1 9.1 4.6 8.5 4.6 7.8 4.6 7.2 4.2 7.2 3.2L7.2.2 6.4.2 6.4 3.2C6.4 4.7 7.4 5.3 8.5 5.3 9.6 5.3 10.6 4.6 10.6 3.2L10.6.2 9.8.2 9.8 3.2zM13.7 2.3C12.9 2.2 12.5 2 12.5 1.6 12.5 1.1 13.1.9 13.7.9 14.3.9 14.7 1.1 15 1.5L15 1.6 15.6 1.2 15.6 1.1C15.2.5 14.6.2 13.7.2 13.2.2 12.5.3 12.1.8 11.9 1 11.8 1.3 11.8 1.7 11.8 2.8 13 3 13.7 3.1 14.5 3.2 15 3.4 15 3.9 15 4.7 14 4.7 13.7 4.7 13.2 4.7 12.6 4.6 12.2 3.9L12.2 3.8 11.5 4.2 11.5 4.3C11.8 5.1 12.6 5.5 13.6 5.5 14.6 5.5 15.7 5.1 15.7 3.9 15.7 2.7 14.6 2.4 13.7 2.3z"/>
      <polygon points="16 1 17.7 1 17.7 5.3 18.5 5.3 18.5 1 20.2 1 20.2 .2 16 .2"/>
      <path d="M25 1.9C25 1.1 24.4.2 23.3.2L21 .2 21 5.2 21.8 5.2 21.8 3.5 22.8 3.5 24.3 5.2 25.3 5.2 23.7 3.4C24.5 3.3 25 2.8 25 1.9zM21.8 1L23.3 1C23.9 1 24.2 1.5 24.2 1.9 24.2 2.3 24 2.8 23.2 2.8L21.7 2.8 21.7 1 21.8 1zM28.7.2L27.9.2 25.6 5.2 26.5 5.2 27 4.1 29.6 4.1 30.1 5.2 31 5.2 28.7.2zM29.3 3.5L27.3 3.5 28.3 1.2 29.3 3.5z"/>
      <polygon points="32.6 .2 31.8 .2 31.8 5.3 35.1 5.3 35.1 4.5 32.6 4.5"/>
      <rect width="1" height="5" x="35.9" y=".2"/>
      <path d="M40.5,0.2 L39.7,0.2 L37.4,5.2 L38.3,5.2 L38.8,4.1 L41.4,4.1 L41.9,5.2 L42.7,5.2 L40.5,0.2 Z M41.1,3.5 L39.1,3.5 L40.1,1.2 L41.1,3.5 Z"/>
      <polygon points="46.9 3.8 44.2 .2 43.6 .2 43.6 5.3 44.4 5.3 44.4 1.8 47.2 5.3 47.7 5.3 47.7 .2 46.9 .2"/>
      <path d="M55.3 4.1C55 4.4 54.5 4.6 54 4.6 52.7 4.6 52.2 3.6 52.2 2.8 52.2 1.9 52.8 1 54 1 54.5 1 54.9 1.2 55.3 1.5L55.9 1 55.8.9C55.3.4 54.7.1 54 .1 53.2.1 52.6.3 52.1.8 51.6 1.3 51.3 2 51.3 2.7 51.3 4 52.1 5.3 53.9 5.3 54.6 5.3 55.3 5.1 55.8 4.5L55.9 4.5 55.3 4.1zM59.3.2L58.5.2 56.2 5.2 57.1 5.2 57.6 4.1 60.2 4.1 60.7 5.2 61.5 5.2 59.3.2zM60 3.5L58 3.5 59 1.2 60 3.5z"/>
      <polygon points="61.4 1 63.1 1 63.1 5.3 63.8 5.3 63.8 1 65.5 1 65.5 .2 61.4 .2"/>
      <polygon points="69.7 2.3 67.1 2.3 67.1 .2 66.3 .2 66.3 5.3 67.1 5.3 67.1 3.1 69.7 3.1 69.7 5.3 70.5 5.3 70.5 .2 69.7 .2"/>
      <path d="M74,0.1 C72.5,0.1 71.4,1.2 71.4,2.7 C71.4,4 72.2,5.3 73.9,5.3 C75.6,5.3 76.4,3.9 76.4,2.7 C76.6,1.5 75.8,0.1 74,0.1 Z M74,4.6 C72.8,4.6 72.3,3.7 72.3,2.8 C72.3,1.9 72.9,0.9 74,0.9 C75.2,0.9 75.7,1.8 75.7,2.8 C75.8,3.7 75.2,4.6 74,4.6 Z"/>
      <polygon points="78.3 .2 77.5 .2 77.5 5.3 80.9 5.3 80.9 4.5 78.3 4.5"/>
      <rect width="1" height="5" x="81.6" y=".2"/>
      <path d="M87.3 4.1C87 4.4 86.5 4.6 86 4.6 84.7 4.6 84.2 3.6 84.2 2.8 84.2 1.9 84.8 1 86 1 86.5 1 86.9 1.2 87.3 1.5L87.9 1 87.8.9C87.3.4 86.7.1 86 .1 85.2.1 84.6.3 84.1.8 83.6 1.3 83.3 2 83.3 2.7 83.3 4 84.1 5.3 85.9 5.3 86.6 5.3 87.3 5.1 87.8 4.5L87.9 4.5 87.3 4.1zM94.6 3.2C94.6 4.1 93.9 4.6 93.3 4.6 92.6 4.6 92 4.2 92 3.2L92 .2 91.2.2 91.2 3.2C91.2 4.7 92.2 5.3 93.3 5.3 94.4 5.3 95.4 4.6 95.4 3.2L95.4.2 94.6.2 94.6 3.2z"/>
      <polygon points="100 3.8 97.3 .2 96.7 .2 96.7 5.3 97.5 5.3 97.5 1.8 100.3 5.3 100.9 5.3 100.9 .2 100 .2"/>
      <rect width="1" height="5" x="102.2" y=".2"/>
      <polygon points="104.7 .2 103.8 .2 105.9 5.3 106.7 5.3 108.8 .2 107.9 .2 106.3 4.2"/>
      <polygon points="110.4 3.1 113.1 3.1 113.1 2.3 110.4 2.3 110.4 1 113.2 1 113.2 .2 109.6 .2 109.6 5.3 113.3 5.3 113.3 4.5 110.4 4.5"/>
      <path d="M118.4 1.9C118.4 1.1 117.8.2 116.7.2L114.4.2 114.4 5.2 115.2 5.2 115.2 3.5 116.2 3.5 117.7 5.2 118.7 5.2 117.1 3.4C117.9 3.3 118.4 2.8 118.4 1.9zM115.2 1L116.7 1C117.3 1 117.6 1.5 117.6 1.9 117.6 2.3 117.4 2.8 116.6 2.8L115.1 2.8 115.1 1 115.2 1zM121.4 2.3C120.6 2.2 120.2 2 120.2 1.6 120.2 1.1 120.8.9 121.4.9 122 .9 122.4 1.1 122.7 1.5L122.7 1.6 123.3 1.2 123.3 1.1C122.9.5 122.3.2 121.4.2 120.9.2 120.2.3 119.8.8 119.6 1 119.5 1.3 119.5 1.7 119.5 2.8 120.7 3 121.4 3.1 122.2 3.2 122.7 3.4 122.7 3.9 122.7 4.7 121.7 4.7 121.4 4.7 120.9 4.7 120.3 4.6 119.9 3.9L119.9 3.8 119.2 4.2 119.2 4.3C119.5 5.1 120.3 5.5 121.3 5.5 122.3 5.5 123.4 5.1 123.4 3.9 123.4 2.7 122.4 2.4 121.4 2.3z"/>
      <rect width="1" height="5" x="124.4" y=".2"/>
      <polygon points="130.8 .2 126.1 .2 126.1 1 127.8 1 127.8 5.3 128.5 5.3 128.5 1 130.2 1 131.7 3.2 131.7 5.3 132.5 5.3 132.5 3.2 134.4 .4 134.5 .4 134.5 .2 133.6 .2 132.2 2.4"/>
    </g>
    <g fill="#3C1053" transform="translate(35)">
      <path d="M99.5.6L99.5 22.7C99.5 34.4 90.3 36.1 86.3 36.1 79 36.1 71.3 33.6 71.3 22.3L71.3.6 78 .6 78 22.9C78 29.5 81.2 33.2 86.5 33.2 91.5 33.2 95.6 29.9 95.6 23.2L95.6.6 99.5.6zM52.1 36.1C40.4 36.1 33.3 28.1 33.3 18.4 33.3 8.9 40.7 3.55271368e-15 52.9 3.55271368e-15 56.2 3.55271368e-15 60.4 1.3 63.3 3.8 64.8 5 66.1 6.9 66.1 8.6 66.1 10.6 64.5 12.1 62.6 12.1 60.7 12.1 59.1 10.5 59.1 8.6 59.1 7.7 59.5 6.8 60.1 6.1 58.5 4.1 55.4 3 52.8 3 44.7 3.1 40 10.7 40 17.9 40 26.3 45.4 33.2 53.8 33.2 58.1 33.2 61.5 31.4 65 28.8L66.3 30.7C62.4 34.4 57 36.1 52.1 36.1zM26.1 35.6L32.7 35.6 19.2.6 13.9.6.5 35.6 4.2 35.6 7.9 25.5 22.3 25.5 26.1 35.6zM9 22.7L15.1 6.1 21.3 22.7 9 22.7z"/>
    </g>
  </g>
</svg>
