<svg xmlns="http://www.w3.org/2000/svg" width="137" height="60" viewBox="0 0 137 60">
  <g fill="none" transform="translate(0 6)">
    <path fill="#000" d="M71 2.6L72.8 2.6 77.5 14.6 75.7 14.6 74.4 11 69.3 11 68 14.6 66.3 14.6 71 2.6zM69.8 9.6L73.9 9.6 71.9 4 69.8 9.6zM85.2 14.6L83.9 14.6 83.9 13.2C83.3 14.3 82.3 14.8 81.1 14.8 78.8 14.8 78.1 13.5 78.1 11.6L78.1 5.9 79.5 5.9 79.5 11.8C79.5 12.9 80.2 13.6 81.3 13.6 83 13.6 83.9 12.4 83.9 10.9L83.9 5.9 85.3 5.9 85.3 14.6 85.2 14.6zM87.8 11.9C87.8 13.2 89 13.6 90.1 13.6 91 13.6 92.2 13.4 92.2 12.3 92.2 11.2 90.8 11 89.4 10.7 88 10.4 86.6 9.9 86.6 8.2 86.6 6.4 88.3 5.7 89.9 5.7 91.8 5.7 93.4 6.3 93.5 8.4L92 8.4C91.9 7.3 90.9 6.9 90 6.9 89.1 6.9 88.1 7.1 88.1 8 88.1 9 89.6 9.2 90.9 9.5 92.3 9.8 93.7 10.3 93.7 12 93.7 14.1 91.8 14.7 90 14.7 88 14.7 86.4 13.9 86.3 11.8L87.8 11.8 87.8 11.9zM97 5.9L98.7 5.9 98.7 7.2 97 7.2 97 12.6C97 13.3 97.2 13.4 98.1 13.4L98.8 13.4 98.8 14.7 97.7 14.7C96.2 14.7 95.6 14.4 95.6 12.8L95.6 7.3 94.1 7.3 94.1 5.9 95.6 5.9 95.6 3.3 97 3.3 97 5.9zM100.2 5.9L101.5 5.9 101.5 7.7C102.2 6.3 103.2 5.6 104.7 5.7L104.7 7.2C102.4 7.2 101.5 8.5 101.5 10.7L101.5 14.6 100.1 14.6 100.1 5.9 100.2 5.9zM113.2 14.6C112.9 14.8 112.6 14.8 112.2 14.8 111.5 14.8 111 14.4 111 13.5 110.2 14.4 109.1 14.8 107.9 14.8 106.3 14.8 105 14.1 105 12.4 105 10.4 106.5 10 107.9 9.7 109.5 9.4 110.8 9.5 110.8 8.4 110.8 7.2 109.8 7 108.9 7 107.7 7 106.8 7.4 106.7 8.7L105.3 8.7C105.4 6.5 107.1 5.8 109 5.8 110.6 5.8 112.3 6.2 112.3 8.2L112.3 12.7C112.3 13.4 112.3 13.7 112.8 13.7 112.9 13.7 113.1 13.7 113.2 13.6L113.2 14.6zM110.9 10.1C110.3 10.5 109.3 10.5 108.3 10.7 107.4 10.9 106.5 11.2 106.5 12.3 106.5 13.2 107.3 13.6 108.2 13.6 110.1 13.6 110.9 12.4 110.9 11.6L110.9 10.1z"/>
    <rect width="1.4" height="12" x="114.3" y="2.6" fill="#000"/>
    <path fill="#000" d="M118.7 4.3L117.3 4.3 117.3 2.6 118.7 2.6 118.7 4.3zM117.3 5.9L118.7 5.9 118.7 14.6 117.3 14.6 117.3 5.9zM128.2 14.6C127.9 14.8 127.6 14.8 127.2 14.8 126.5 14.8 126 14.4 126 13.5 125.2 14.4 124.1 14.8 122.9 14.8 121.3 14.8 120 14.1 120 12.4 120 10.4 121.5 10 122.9 9.7 124.5 9.4 125.8 9.5 125.8 8.4 125.8 7.2 124.8 7 123.9 7 122.7 7 121.8 7.4 121.7 8.7L120.3 8.7C120.4 6.5 122.1 5.8 124 5.8 125.6 5.8 127.3 6.2 127.3 8.2L127.3 12.7C127.3 13.4 127.3 13.7 127.8 13.7 127.9 13.7 128.1 13.7 128.2 13.6L128.2 14.6zM125.8 10.1C125.2 10.5 124.2 10.5 123.2 10.7 122.3 10.9 121.4 11.2 121.4 12.3 121.4 13.2 122.2 13.6 123.1 13.6 125 13.6 125.8 12.4 125.8 11.6L125.8 10.1zM129.1 5.9L130.4 5.9 130.4 7.3C131 6.2 132 5.7 133.2 5.7 135.5 5.7 136.2 7 136.2 8.9L136.2 14.6 134.8 14.6 134.8 8.7C134.8 7.6 134.1 6.9 133 6.9 131.3 6.9 130.4 8.1 130.4 9.6L130.4 14.5 129 14.5 129 5.9 129.1 5.9z"/>
    <polygon fill="#000" points="67 17.1 68.7 17.1 75 26.9 75.1 26.9 75.1 17.1 76.6 17.1 76.6 29.1 74.8 29.1 68.6 19.5 68.5 19.5 68.5 29.1 67 29.1"/>
    <path fill="#000" d="M86.3 29.1C86 29.3 85.7 29.3 85.3 29.3 84.6 29.3 84.1 28.9 84.1 28 83.3 28.9 82.2 29.3 81 29.3 79.4 29.3 78.1 28.6 78.1 26.9 78.1 24.9 79.6 24.5 81 24.2 82.6 23.9 83.9 24 83.9 22.9 83.9 21.7 82.9 21.5 82 21.5 80.8 21.5 79.9 21.9 79.8 23.2L78.4 23.2C78.5 21 80.2 20.3 82.1 20.3 83.7 20.3 85.4 20.7 85.4 22.7L85.4 27.2C85.4 27.9 85.4 28.2 85.9 28.2 86 28.2 86.2 28.2 86.3 28.1L86.3 29.1zM83.9 24.6C83.3 25 82.3 25 81.3 25.2 80.4 25.4 79.5 25.7 79.5 26.8 79.5 27.7 80.3 28.1 81.2 28.1 83.1 28.1 83.9 26.9 83.9 26.1L83.9 24.6zM89.2 20.4L91 20.4 91 21.7 89.3 21.7 89.3 27.1C89.3 27.8 89.5 27.9 90.4 27.9L91 27.9 91 29.2 89.9 29.2C88.4 29.2 87.8 28.9 87.8 27.3L87.8 21.8 86.3 21.8 86.3 20.5 87.8 20.5 87.8 17.9 89.2 17.9 89.2 20.4zM93.7 18.9L92.3 18.9 92.3 17.1 93.7 17.1 93.7 18.9zM92.3 20.4L93.7 20.4 93.7 29.1 92.3 29.1 92.3 20.4zM99 20.2C101.8 20.2 103.2 22.2 103.2 24.8 103.2 27.3 101.7 29.3 99 29.3 96.2 29.3 94.8 27.3 94.8 24.8 94.8 22.2 96.3 20.2 99 20.2M99 28.1C100.5 28.1 101.7 26.9 101.7 24.8 101.7 22.7 100.5 21.5 99 21.5 97.5 21.5 96.3 22.7 96.3 24.8 96.3 26.9 97.5 28.1 99 28.1M104.5 20.4L105.8 20.4 105.8 21.8C106.4 20.7 107.4 20.2 108.6 20.2 110.9 20.2 111.6 21.5 111.6 23.4L111.6 29.1 110.2 29.1 110.2 23.2C110.2 22.1 109.5 21.4 108.4 21.4 106.7 21.4 105.8 22.6 105.8 24.1L105.8 29 104.4 29 104.4 20.4 104.5 20.4zM120.8 29.1C120.5 29.3 120.2 29.3 119.8 29.3 119.1 29.3 118.6 28.9 118.6 28 117.8 28.9 116.7 29.3 115.5 29.3 113.9 29.3 112.6 28.6 112.6 26.9 112.6 24.9 114.1 24.5 115.5 24.2 117.1 23.9 118.4 24 118.4 22.9 118.4 21.7 117.4 21.5 116.5 21.5 115.3 21.5 114.4 21.9 114.3 23.2L113 23.2C113.1 21 114.8 20.3 116.7 20.3 118.3 20.3 120 20.7 120 22.7L120 27.2C120 27.9 120 28.2 120.5 28.2 120.6 28.2 120.8 28.2 120.9 28.1L120.9 29.1 120.8 29.1zM118.5 24.6C117.9 25 116.9 25 115.9 25.2 115 25.4 114.1 25.7 114.1 26.8 114.1 27.7 114.9 28.1 115.8 28.1 117.7 28.1 118.5 26.9 118.5 26.1L118.5 24.6z"/>
    <rect width="1.4" height="12" x="121.9" y="17.1" fill="#000"/>
    <path fill="#000" d="M76.6 39.3C76.6 42.3 74.9 43.9 71.9 43.9 68.8 43.9 67 42.5 67 39.3L67 31.6 68.6 31.6 68.6 39.3C68.6 41.4 69.8 42.6 71.9 42.6 73.9 42.6 75 41.4 75 39.3L75 31.6 76.6 31.6 76.6 39.3zM78.2 34.9L79.5 34.9 79.5 36.3C80.1 35.2 81.1 34.7 82.3 34.7 84.6 34.7 85.3 36 85.3 37.9L85.3 43.6 84 43.6 84 37.7C84 36.6 83.3 35.9 82.2 35.9 80.5 35.9 79.6 37.1 79.6 38.6L79.6 43.5 78.2 43.5 78.2 34.9zM88.3 33.4L86.9 33.4 86.9 31.6 88.3 31.6 88.3 33.4zM86.9 34.9L88.3 34.9 88.3 43.6 86.9 43.6 86.9 34.9z"/>
    <polygon fill="#000" points="94.1 43.7 92.6 43.7 89.4 34.9 91 34.9 93.4 42.2 93.4 42.2 95.8 34.9 97.3 34.9"/>
    <path fill="#000" d="M105.1 40.9C104.7 42.8 103.3 43.9 101.4 43.9 98.6 43.9 97.3 42 97.2 39.3 97.2 36.7 98.9 34.8 101.3 34.8 104.4 34.8 105.3 37.7 105.2 39.8L98.7 39.8C98.7 41.3 99.5 42.7 101.4 42.7 102.6 42.7 103.4 42.1 103.7 41L105.1 41 105.1 40.9zM103.7 38.5C103.6 37.1 102.6 36 101.2 36 99.7 36 98.8 37.1 98.7 38.5L103.7 38.5zM106.3 34.9L107.6 34.9 107.6 36.7C108.3 35.3 109.3 34.6 110.8 34.7L110.8 36.2C108.5 36.2 107.6 37.5 107.6 39.7L107.6 43.6 106.2 43.6 106.2 34.9 106.3 34.9zM112.9 40.9C113 42.2 114.1 42.6 115.2 42.6 116.1 42.6 117.3 42.4 117.3 41.3 117.3 40.2 115.9 40 114.5 39.7 113.1 39.4 111.7 38.9 111.7 37.2 111.7 35.4 113.4 34.7 115 34.7 116.9 34.7 118.5 35.3 118.6 37.4L117 37.4C116.9 36.3 115.9 35.9 115 35.9 114.1 35.9 113.1 36.1 113.1 37 113.1 38 114.6 38.2 115.9 38.5 117.3 38.8 118.7 39.3 118.7 41 118.7 43.1 116.8 43.7 115 43.7 113 43.7 111.4 42.9 111.3 40.8L112.9 40.8 112.9 40.9zM121.3 33.4L119.9 33.4 119.9 31.6 121.3 31.6 121.3 33.4zM119.8 34.9L121.2 34.9 121.2 43.6 119.8 43.6 119.8 34.9zM125.1 34.9L126.8 34.9 126.8 36.2 125.1 36.2 125.1 41.6C125.1 42.3 125.3 42.4 126.2 42.4L126.9 42.4 126.9 43.7 125.8 43.7C124.3 43.7 123.7 43.4 123.7 41.8L123.7 36.3 122.2 36.3 122.2 35 123.7 35 123.7 32.4 125.1 32.4 125.1 34.9zM131.9 44.8C131.2 46.5 130.7 47.1 129.4 47.1 129.1 47.1 128.7 47.1 128.4 46.9L128.4 45.6C128.7 45.7 129 45.8 129.2 45.8 129.8 45.8 130.1 45.5 130.4 45L131 43.5 127.5 34.8 129.1 34.8 131.6 41.9 134 34.8 135.5 34.8 131.9 44.8z"/>
    <path fill="#7B5A3E" d="M58.3,36.8 C58.3,36.8 56.4,34.9 54.7,34.1 C53.9,33.7 53.3,33.5 52.6,33.3 C52.8,32.9 52.9,32.6 53.1,32.3 C54.3,29.9 55.3,27.8 54.9,26.4 C54.9,26.3 54.8,26.3 54.8,26.2 C54.8,26.2 54.8,26.2 54.8,26.2 C54.6,25.8 54.3,25.4 54,25 C53.4,24.4 51.7,23.5 50.9,23 L50.6,22.9 C49.9,22.5 49,22.5 48.1,22.8 C46.5,23.5 45.2,25.3 44.9,26.3 C44.4,28 45.2,28.5 45.3,28.5 L47,29.6 L45.1,34.2 C43.1,34.9 40.9,35.8 38.8,36.8 C35.9,38.1 33.1,39.3 30.8,39.8 L30.6,39.8 C30.4,39.9 30.1,39.9 29.7,40 C29.4,40 29.2,40.1 29.1,40.1 C29,40.1 28.9,40.1 28.5,40 C28.1,40 27.8,39.9 27.6,39.8 L27.4,39.8 C25.1,39.3 22.4,38.1 19.4,36.8 C17.3,35.9 15.1,34.9 13.1,34.2 L11.2,29.6 L12.9,28.5 C12.9,28.5 13.8,27.6 13.2,26.3 C12.8,25.2 11.4,23.3 9.8,22.8 C9,22.5 8.3,22.6 7.6,23 L7.7,23 C6.8,23.5 5.2,24.4 4.6,25 C4.2,25.3 4,25.8 3.8,26.2 C3.8,26.2 3.8,26.2 3.8,26.2 C3.8,26.3 3.7,26.3 3.7,26.4 C3.2,27.8 4.3,29.9 5.5,32.3 C5.7,32.6 5.8,33 6,33.3 C5.4,33.5 4.7,33.7 3.9,34.1 C2.3,34.9 0.4,36.8 0.3,36.8 C0.2,36.9 0.2,37.1 0.3,37.2 C0.3,37.2 1.3,38.8 1.6,39.9 C1.9,41 1.8,42.8 1.8,43.4 C1.8,43.5 1.8,43.5 1.8,43.6 C1.8,43.6 1.8,43.6 1.8,43.6 C1.8,43.6 1.8,43.6 1.8,43.6 C1.8,43.6 1.8,43.6 1.8,43.6 C1.8,44.3 2.4,45 3.4,45.4 C4,45.8 4.8,46 5.7,46 C6.7,46 7.8,45.7 8.6,45 C8.6,45 8.6,45 8.6,45 C8.6,45 8.6,45 8.6,45 C8.6,45 8.6,45 8.6,45 C8.8,44.8 10.6,43.2 13.3,41.8 C13.6,41.9 13.8,42 14.1,42.2 L14.2,42.3 C15.3,42.8 19,44.5 22.6,45.8 C26,47 28.4,47.1 29.1,47.1 L29.4,47.1 C30.1,47.1 32.5,46.9 35.9,45.8 C39.5,44.6 43.2,42.8 44.3,42.3 L44.4,42.2 C44.7,42.1 44.9,41.9 45.2,41.8 C47.9,43.2 49.7,44.8 49.9,45 C49.9,45 49.9,45 49.9,45 C49.9,45 49.9,45 49.9,45 C49.9,45 49.9,45 49.9,45 C50.7,45.7 51.7,46 52.8,46 C53.6,46 54.5,45.8 55.1,45.5 C56.1,45 56.7,44.4 56.7,43.7 C56.7,43.7 56.7,43.7 56.7,43.7 C56.7,43.7 56.7,43.7 56.7,43.7 C56.7,43.6 56.7,43.6 56.7,43.5 C56.7,43 56.6,41.2 56.9,40 C57.2,38.9 58.2,37.3 58.2,37.3 C58.5,37.1 58.4,36.9 58.3,36.8 Z M45.7,26.4 C45.9,25.5 47.1,23.9 48.5,23.4 C49.2,23.1 49.8,23.1 50.4,23.5 L50.7,23.7 C51.4,24.1 52.8,24.8 53.5,25.4 C53.2,25.4 52.8,25.4 52.5,25.6 C50.6,26.4 48.9,28.5 48.9,29.7 C48.9,29.8 48.9,29.8 48.9,29.9 L45.9,28 C45.8,27.9 45.4,27.6 45.7,26.4 Z M49.8,30.3 C49.8,30.3 49.5,30.1 49.5,29.5 C49.5,29.2 49.7,28.7 50.1,28.2 L51.2,28.9 C51.2,29 51.2,29.2 51.2,29.3 C51.1,29.7 50.6,30.4 50,30.3 C49.9,30.4 49.8,30.3 49.8,30.3 Z M47.8,29.9 L49.4,30.9 C49.4,30.9 49.4,30.9 49.4,30.9 C49.4,30.9 49.4,30.9 49.4,30.9 C49.5,30.9 49.5,31 49.5,31 C49.7,31.1 49.8,31.1 49.9,31.1 C50.8,31.1 51.6,30.3 51.8,29.6 C51.9,29.1 51.8,28.8 51.8,28.7 L51.8,28.6 L50.5,27.8 C51.1,27.1 51.8,26.5 52.7,26.2 C53.8,25.8 54.3,26.4 54.4,26.6 C54.4,26.6 54.4,26.7 54.5,26.7 C54.9,27.8 53.9,29.8 52.7,32.1 C52.5,32.5 52.3,32.9 52.1,33.3 C51.6,33.2 51.2,33.2 50.6,33.2 C49.3,33.2 47.8,33.5 46.2,34 L47.8,29.9 Z M8,23.6 L8.3,23.4 C8.8,23.1 9.4,23.1 10,23.3 C11.4,23.8 12.7,25.6 13,26.4 C13.3,27.3 12.9,27.8 12.8,27.9 L9.8,29.7 C9.8,29.6 9.8,29.6 9.8,29.5 C9.8,28.3 8.1,26.2 6.2,25.4 C5.8,25.2 5.5,25.2 5.2,25.2 C5.9,24.7 7.3,23.9 8,23.6 Z M8.9,30.3 C8.9,30.3 8.8,30.3 8.7,30.3 C8.1,30.3 7.6,29.7 7.5,29.3 C7.5,29.1 7.5,29 7.5,28.9 L8.6,28.2 C9,28.7 9.2,29.2 9.2,29.5 C9.2,30.1 9,30.3 8.9,30.3 Z M6,32 C4.9,29.7 3.9,27.7 4.2,26.6 C4.2,26.6 4.2,26.5 4.3,26.5 C4.4,26.3 4.9,25.7 6,26.1 C6.8,26.4 7.6,27.1 8.2,27.7 L6.9,28.5 L6.9,28.6 C6.9,28.6 6.8,29 6.9,29.5 C7.1,30.3 7.8,31.1 8.8,31 C8.9,31 9.1,31 9.2,30.9 C9.2,30.9 9.2,30.9 9.3,30.9 C9.3,30.9 9.3,30.9 9.3,30.9 L10.9,29.9 L12.6,33.9 C11,33.4 9.5,33.1 8.2,33.1 C7.6,33.1 7.1,33.1 6.7,33.2 C6.4,32.8 6.2,32.4 6,32 Z M8.9,43.2 C8.5,44 8.2,44.4 8.2,44.4 C8.2,44.4 8.2,44.4 8.2,44.4 C7,45.5 5,45.4 3.7,44.8 C2.9,44.5 2.5,44 2.5,43.6 L2.5,43.5 C2.7,42.6 4.8,40.4 8.7,40.3 C8.8,41.1 9.2,42.5 8.9,43.2 Z M9.6,43.3 C9.8,42.5 9.6,41.4 9.3,40.4 C10.1,40.5 11.3,40.9 12.6,41.5 C11.3,42.1 10.3,42.8 9.6,43.3 Z M46.1,41.4 C47.4,40.8 48.5,40.5 49.4,40.3 C49.1,41.3 48.9,42.5 49.1,43.2 C48.3,42.8 47.3,42.1 46.1,41.4 Z M55,44.9 C53.6,45.5 51.7,45.6 50.5,44.5 C50.5,44.5 50.5,44.5 50.5,44.5 C50.5,44.5 50.1,44.1 49.7,43.3 C49.4,42.6 49.8,41.1 50.1,40.4 C53.9,40.4 56.1,42.7 56.3,43.6 L56.3,43.7 C56.3,44 55.8,44.5 55,44.9 Z M56.5,39.8 C56.3,40.5 56.3,41.4 56.2,42.2 C55.2,41 53,39.7 50,39.7 C48.7,39.7 46.8,40.4 44.2,41.6 L44.1,41.7 C43.1,42.2 39.4,43.9 35.8,45.1 C32.4,46.3 30,46.4 29.5,46.4 L29.3,46.4 L29.2,46.4 C28.7,46.4 26.3,46.3 22.9,45.1 C19.3,43.9 15.6,42.2 14.6,41.7 L14.5,41.6 C12,40.4 10,39.7 8.7,39.7 C5.7,39.7 3.5,41 2.5,42.2 C2.5,41.4 2.4,40.5 2.2,39.8 C1.9,38.9 1.3,37.6 1,37.1 C1.5,36.6 3,35.3 4.2,34.7 C5.7,34 6.6,33.7 8.1,33.7 C11.2,33.7 15.3,35.5 19.4,37.3 C22.4,38.6 25.1,39.8 27.5,40.3 L27.7,40.3 C27.9,40.4 28.2,40.4 28.7,40.5 C29.1,40.5 29.3,40.6 29.5,40.6 C29.6,40.6 29.8,40.6 30.2,40.5 C30.6,40.4 30.9,40.4 31.2,40.3 L31.4,40.3 C33.7,39.8 36.5,38.6 39.5,37.3 C43.5,35.5 47.7,33.7 50.8,33.7 C52.4,33.7 53.2,34 54.7,34.7 C55.9,35.3 57.4,36.6 57.9,37.1 C57.4,37.6 56.7,38.8 56.5,39.8 Z"/>
    <path fill="#7B5A3E" d="M29.3,37.8 C28.2,37.8 26.5,37.5 22.6,35.2 C18.5,32.8 16.4,31.2 15.1,27.9 C13.8,24.7 13.3,20.7 13.3,13.4 C13.3,6.4 13.6,0.9 13.6,0.8 C13.6,0.7 13.6,0.6 13.7,0.6 C13.8,0.5 13.9,0.5 13.9,0.5 C21.3,1.2 26,1.3 28.1,1.3 C28.8,1.3 29.2,1.3 29.2,1.3 C29.2,1.3 29.6,1.3 30.3,1.3 C32.4,1.3 37.1,1.2 44.5,0.5 C44.6,0.5 44.7,0.5 44.7,0.6 C45,0.7 45,0.8 45,0.9 C45,1 45.3,6.4 45.3,13.5 C45.3,20.8 44.8,24.8 43.5,28 C42.2,31.3 40.1,32.9 36,35.3 C32.1,37.5 30.4,37.8 29.3,37.8 M14.3,1.3 C14.3,2.6 14,7.4 14,13.5 C14,20.7 14.5,24.6 15.8,27.7 C17.1,30.8 19,32.4 23,34.7 C26.8,36.9 28.4,37.2 29.3,37.2 C30.2,37.2 31.8,36.9 35.6,34.7 C39.6,32.4 41.5,30.8 42.8,27.7 C44.1,24.6 44.6,20.7 44.6,13.5 C44.6,7.5 44.4,2.6 44.3,1.3 C37.2,1.9 32.5,2 30.4,2 C29.7,2 29.3,2 29.3,2 C29.3,2 28.9,2 28.2,2 C26.1,2 21.5,1.9 14.3,1.3"/>
    <path fill="#7B5A3E" d="M41 24.1C39.5 24.1 38.4 24.8 37.5 25.4 36.7 25.9 36.1 26.3 35.2 26.3 34.3 26.3 33.7 25.9 32.9 25.4 32 24.8 30.9 24.1 29.4 24.1 27.9 24.1 26.8 24.8 25.9 25.4 25.1 25.9 24.5 26.3 23.6 26.3 22.7 26.3 22.1 25.9 21.3 25.4 20.4 24.8 19.3 24.1 17.8 24.1 17 24.1 16.3 24.3 15.7 24.5 15.8 25.2 16 25.8 16.2 26.4 16.7 26.2 17.2 26 17.7 26 18.7 26 19.4 26.4 20.2 27 21.1 27.6 22.1 28.2 23.5 28.2 24.9 28.2 25.9 27.6 26.8 27 27.6 26.5 28.3 26 29.3 26 30.3 26 31 26.4 31.8 27 32.7 27.6 33.7 28.2 35.1 28.2 36.5 28.2 37.5 27.6 38.4 27 39.2 26.5 39.9 26 40.9 26 41.5 26 42 26.2 42.4 26.4 42.6 25.8 42.8 25.2 42.9 24.5 42.5 24.3 41.8 24.1 41 24.1M20.2 22.7C21.1 23.3 22.1 23.9 23.5 23.9 24.9 23.9 25.9 23.3 26.8 22.7 27.6 22.2 28.3 21.7 29.3 21.7 30.3 21.7 31 22.1 31.8 22.7 32.7 23.3 33.7 23.9 35.1 23.9 36.5 23.9 37.5 23.3 38.4 22.7 38.4 22.7 38.5 22.6 38.5 22.6 37.7 22.4 32.1 20.7 32.1 20.7 30.7 20.3 29.5 20 29.2 20 28.4 20 23.4 21.5 20 22.6 20.1 22.6 20.2 22.7 20.2 22.7M41 28.4C39.5 28.4 38.4 29.1 37.5 29.7 36.7 30.2 36.1 30.6 35.2 30.6 34.3 30.6 33.7 30.2 32.9 29.7 32 29.1 30.9 28.4 29.4 28.4 27.9 28.4 26.8 29.1 25.9 29.7 25.1 30.2 24.5 30.6 23.6 30.6 22.7 30.6 22.1 30.2 21.3 29.7 20.4 29.1 19.3 28.4 17.8 28.4 17.6 28.4 17.3 28.4 17.1 28.4 17.5 29.1 18 29.8 18.5 30.3 19.1 30.5 19.7 30.8 20.3 31.2 21.2 31.8 22.2 32.4 23.6 32.4 25 32.4 26 31.8 26.9 31.2 27.7 30.7 28.4 30.2 29.4 30.2 30.4 30.2 31.1 30.6 31.9 31.2 32.8 31.8 33.8 32.4 35.2 32.4 36.6 32.4 37.6 31.8 38.5 31.2 39.1 30.8 39.6 30.5 40.3 30.3 40.8 29.7 41.3 29.1 41.7 28.4 41.5 28.4 41.2 28.4 41 28.4M32 33.7C31.3 33.2 30.5 32.7 29.4 32.7 28.5 32.7 27.8 33.2 27.1 33.6 26.5 34 25.8 34.5 24.8 34.7 25.8 35.2 26.6 35.6 27.2 35.8 27.6 35.6 27.9 35.4 28.2 35.2 28.8 34.8 29.1 34.6 29.4 34.6 29.9 34.6 30.3 34.9 31 35.3 31.2 35.5 31.5 35.6 31.8 35.8 32.4 35.6 33.2 35.2 34.1 34.7 33.2 34.5 32.6 34.1 32 33.7"/>
    <polygon fill="#7B5A3E" points="36 3.6 36.3 4.7 37.4 4.4 36.7 5.3 37.6 6.1 36.5 6.1 36.4 7.2 35.7 6.4 34.8 7 35 6 33.9 5.7 34.9 5.2 34.5 4.1 35.5 4.6"/>
    <polygon fill="#7B5A3E" points="31.4 7.3 30.4 6.7 30.7 7.8 29.7 8.2 30.7 8.6 30.3 9.7 31.3 9.1 31.9 10.1 32.1 9 33.2 9.1 32.5 8.3 33.3 7.5 32.2 7.5 32 6.4"/>
    <polygon fill="#7B5A3E" points="39.3 7.9 38.3 7.5 38.7 8.5 37.7 9 38.8 9.3 38.5 10.4 39.4 9.8 40.1 10.6 40.2 9.5 41.3 9.5 40.5 8.8 41.2 7.9 40.1 8.1 39.9 7"/>
    <polygon fill="#7B5A3E" points="35.8 10 34.8 10.1 35.6 10.7 35.3 11.7 36.2 11.1 37.1 11.7 36.8 10.7 37.6 10.1 36.6 10 36.2 9"/>
    <polygon fill="#7B5A3E" points="34 13.1 32.9 12.8 33.5 13.8 32.6 14.4 33.7 14.6 33.6 15.7 34.4 14.9 35.2 15.7 35.1 14.6 36.2 14.4 35.3 13.8 35.9 12.8 34.8 13.1 34.4 12.1"/>
    <path fill="#7B5A3E" d="M29.4 18.9C30.6 18.9 41.8 22.5 42.1 22.6 42.4 22.7 43.5 23.1 43.5 22.2 43.5 21.3 42 20.8 37.7 18.8 33.4 16.7 30.5 15.2 29.5 15.2 28.4 15.2 25.6 16.7 21.3 18.8 17 20.9 15.5 21.3 15.5 22.2 15.5 23.1 16.6 22.7 16.9 22.6 17.1 22.5 28.2 18.9 29.4 18.9zM4.4 37.2C4.3 37 4.3 36.9 4.3 36.9 4.3 36.9 4.3 36.9 4.5 36.8L4.4 36.7C4.3 36.8 4.2 36.8 4.1 36.9 4 36.9 3.9 37 3.8 37L3.9 37.1C3.9 37 4 37 4 37 4 37 4 37 4 37 4.1 37.1 4.2 37.4 4.4 37.8L4.6 38 4.7 38.1C4.5 38.1 4.3 38 4 37.8 3.6 37.6 3.3 37.4 3 37.2L2.7 37.3C2.7 37.3 2.6 37.4 2.5 37.4L2.6 37.5C2.7 37.5 2.7 37.4 2.8 37.4 2.8 37.4 2.8 37.5 2.9 37.5L3.3 38.3C3.4 38.4 3.4 38.5 3.4 38.6 3.5 38.7 3.5 38.8 3.5 38.9L3.5 39C3.5 39 3.5 39 3.3 39.1L3.4 39.2C3.5 39.1 3.6 39.1 3.7 39L4 39.1 4 39C4 39 3.9 39 3.9 39L3.8 39C3.8 39 3.8 38.9 3.7 38.8 3.6 38.7 3.5 38.5 3.5 38.4L3.3 38 3.2 37.7C4 38.1 4.5 38.4 5 38.6 5.1 38.6 5.1 38.6 5.2 38.5L5.2 38.4C5.1 38.3 4.9 37.9 4.6 37.3 4.5 37.5 4.4 37.4 4.4 37.2zM4.7 38.2C4.7 38.2 4.6 38.2 4.6 38.1 4.6 38.1 4.6 38.2 4.7 38.2zM3.1 37.8C3.2 37.9 3.4 38 3.5 38 3.4 38 3.2 37.9 3.1 37.8z"/>
    <path fill="#7B5A3E" d="M6.8,37.9 C6.8,37.9 6.8,37.9 6.8,37.9 L5.4,36.2 L5.2,36.3 L5.1,38.1 C5.1,38.2 5.1,38.3 5.1,38.3 L5.1,38.4 C5.1,38.4 5.1,38.4 5,38.5 L5,38.6 L5.6,38.4 L5.5,38.3 C5.4,38.3 5.4,38.3 5.3,38.3 C5.3,38.3 5.3,38.2 5.3,38 L5.3,37.8 L5.9,37.6 L6.1,37.9 C6.1,38 6.2,38 6.2,38 C6.2,38 6.2,38 6,38.1 L6.1,38.2 L7,38 L6.8,37.9 Z M5.4,37.6 L5.4,37.4 L5.4,37.6 C5.4,37.6 5.4,37.6 5.4,37.6 Z M5.7,37.6 C5.6,37.6 5.5,37.6 5.5,37.7 C5.5,37.7 5.5,37.7 5.5,37.7 L5.5,37 L5.8,37.4 L5.9,37.5 C5.8,37.5 5.8,37.5 5.7,37.6 Z"/>
    <path fill="#7B5A3E" d="M8 35.9C7.9 35.9 7.9 35.9 7.8 35.9 7.7 35.9 7.6 35.9 7.4 36L6.9 36C6.7 36 6.6 36 6.5 36 6.5 36 6.4 36 6.4 36 6.4 36 6.4 36.1 6.4 36.1 6.4 36.1 6.4 36.2 6.5 36.5L6.6 36.5C6.6 36.4 6.6 36.3 6.6 36.3 6.7 36.3 6.7 36.3 6.8 36.3L7 36.3C7 36.3 7 36.5 7.1 36.7L7.2 37.6C7.2 37.9 7.2 38 7.2 38 7.2 38 7.2 38 7.2 38 7.2 38 7.2 38 7 38.1L7 38.2C7.2 38.2 7.3 38.2 7.4 38.1 7.5 38.1 7.7 38.1 7.8 38L7.8 37.9C7.7 37.9 7.6 37.9 7.6 37.9 7.6 37.9 7.6 37.9 7.6 37.9 7.6 37.9 7.6 37.8 7.5 37.5L7.4 36.6C7.4 36.4 7.4 36.2 7.3 36.2L7.5 36.2C7.6 36.2 7.7 36.2 7.8 36.2 7.8 36.2 7.8 36.2 7.8 36.3 7.8 36.4 7.8 36.4 7.9 36.5L8 36.5C8 36.3 8 36.2 8 36.2 8 36 8 35.9 8 35.9zM10 36.1C10 36.1 10 36.1 10 36.1 10.1 36.1 10.1 36.1 10.2 36.1L10.2 36 9.9 36C9.9 36 9.8 36 9.6 36L9.6 36.1C9.7 36.1 9.8 36.1 9.8 36.2 9.8 36.2 9.8 36.3 9.8 36.4 9.8 36.5 9.8 36.6 9.8 36.9L9.8 37.2C9.8 37.4 9.8 37.6 9.7 37.6 9.7 37.7 9.6 37.7 9.5 37.8 9.4 37.8 9.3 37.9 9.2 37.8 9.1 37.8 9 37.8 9 37.7 8.9 37.7 8.9 37.6 8.9 37.6 8.9 37.5 8.9 37.5 8.9 37.4 8.9 37.4 8.9 37.2 8.9 37.1L8.9 36.6C8.9 36.4 8.9 36.3 9 36.2 9 36.2 9 36.2 9.1 36.2 9.1 36.2 9.1 36.2 9.2 36.2L9.2 36.1 8.4 36.1 8.4 36.2 8.6 36.3C8.6 36.3 8.6 36.3 8.6 36.4 8.6 36.5 8.6 36.6 8.6 36.8L8.5 37.5C8.5 37.7 8.5 37.8 8.5 37.8 8.5 37.9 8.5 37.9 8.5 38 8.5 38.1 8.6 38.1 8.6 38.2 8.6 38.3 8.7 38.3 8.8 38.3 8.9 38.4 9 38.4 9.2 38.4 9.2 38.4 9.3 38.4 9.3 38.4 9.4 38.4 9.4 38.4 9.5 38.4 9.6 38.4 9.7 38.3 9.7 38.3 9.8 38.2 9.8 38.2 9.9 38.1 9.9 38 10 37.9 10 37.9 10 37.8 10 37.7 10 37.6L10 37.2C10 37.1 10 37 10 36.8 9.9 36.2 9.9 36.2 10 36.1z"/>
    <path fill="#7B5A3E" d="M13.3 39C13.3 39 13.3 39 13.3 39L13.2 38.8 13.2 36.9 13 36.8 12.1 37.9C12 38 12 38.1 11.9 38.2 11.8 38.3 11.8 38.4 11.7 38.4L11.6 38.4C11.6 38.4 11.6 38.4 11.5 38.4 11.5 38.4 11.4 38.4 11.4 38.3 11.4 38.3 11.4 38.2 11.3 38.1L11.1 37.5C11.1 37.5 11.1 37.5 11.1 37.4 11.1 37.4 11.1 37.3 11 37.3 11 37.3 11 37.3 11 37.3 11.1 37.3 11.3 37.2 11.4 37.1 11.5 37 11.6 36.9 11.6 36.8 11.6 36.7 11.6 36.6 11.6 36.5 11.6 36.4 11.5 36.4 11.5 36.3 11.4 36.3 11.3 36.2 11.2 36.2 11.1 36.2 11 36.2 10.9 36.1 10.8 36.1 10.8 36.1 10.7 36 10.6 36 10.5 36 10.5 35.9 10.4 35.9 10.3 35.8 10.3 35.9L10.3 36C10.4 36 10.5 36.1 10.5 36.1 10.5 36.1 10.5 36.2 10.5 36.3L10.2 37.6C10.2 37.7 10.2 37.7 10.1 37.8 10.1 37.8 10 37.8 9.9 37.8L9.9 38C10 38 10.1 38 10.3 38.1 10.4 38.1 10.6 38.2 10.8 38.2L10.8 38C10.7 38 10.7 38 10.6 37.9 10.6 37.9 10.6 37.9 10.6 37.8 10.6 37.8 10.6 37.7 10.7 37.5 10.7 37.3 10.8 37.2 10.8 37 10.8 36.9 10.9 36.7 10.9 36.5 10.9 36.4 11 36.3 10.9 36.3 10.9 36.3 11 36.3 11 36.3 11.1 36.3 11.1 36.3 11.2 36.4 11.2 36.4 11.3 36.5 11.3 36.5 11.3 36.6 11.3 36.6 11.3 36.7 11.3 36.8 11.2 36.9 11.2 36.9 11.2 37 11.1 37 11 37 10.9 37 10.9 37 10.8 37L10.8 37.1C10.8 37.1 10.8 37.2 10.8 37.2 10.8 37.3 10.9 37.4 10.9 37.6L11 38.2C11 38.2 11 38.3 11 38.3 11.1 38.3 11.1 38.3 11.2 38.3 11.2 38.3 11.3 38.3 11.4 38.4L12 38.6 12 38.5C12 38.5 12 38.5 12 38.5 12 38.5 12 38.4 12.1 38.3L12.2 38.2 12.8 38.4 12.8 38.7C12.8 38.8 12.8 38.8 12.8 38.8 12.8 38.8 12.8 38.8 12.6 38.8L12.6 38.9 13 39 13.4 39.1 13.3 39zM12.3 38L12.4 37.9 12.3 38C12.3 38 12.3 38 12.3 38zM12.8 38.1C12.7 38.1 12.6 38 12.6 38 12.5 38 12.4 37.9 12.4 37.9 12.4 37.9 12.4 37.9 12.4 37.9L12.9 37.3 12.9 37.9 12.8 38.1zM16.4 38.4L16.4 38.2 16 38.1C16 38.1 15.9 38.1 15.8 38 15.7 38.1 15.7 38.1 15.7 38.2 15.7 38.2 15.5 38.3 15.4 38.5L15.1 38.8C15 38.9 14.9 39 14.9 39.1 14.9 39.1 14.8 39.1 14.8 39.2L14.8 37.6C14.7 37.6 14.6 37.5 14.6 37.5 14.5 37.5 14.4 37.4 14.2 37.4L14.2 37.5C14.2 37.5 14.3 37.5 14.3 37.6 14.3 37.6 14.3 37.7 14.2 37.9 14.1 38 14.1 38.2 14 38.4 13.9 38.6 13.8 38.8 13.8 38.8 13.7 39 13.7 39.1 13.6 39.1 13.6 39.1 13.6 39.1 13.6 39.1 13.6 39.1 13.6 39.1 13.4 39.1L13.4 39.2C13.5 39.2 13.6 39.3 13.7 39.3 13.8 39.3 13.9 39.4 14 39.4L14 39.3C13.9 39.2 13.9 39.2 13.9 39.2 13.9 39.2 13.9 39.1 14 38.9 14.1 38.7 14.1 38.6 14.2 38.5L14.3 38.1 14.4 37.8 14.4 38.6C14.4 38.7 14.4 38.9 14.4 39.2 14.4 39.4 14.4 39.5 14.4 39.6L14.5 39.6C14.5 39.6 14.6 39.5 14.7 39.4 14.8 39.3 14.9 39.2 15 39.1L15.5 38.6 15.8 38.3 15.4 39.2C15.3 39.4 15.3 39.5 15.2 39.5 15.2 39.5 15.2 39.5 15.2 39.5 15.2 39.5 15.2 39.5 15 39.5L15 39.6 15.4 39.8 15.8 40 15.9 39.8C15.8 39.7 15.8 39.7 15.8 39.7 15.8 39.7 15.8 39.6 15.9 39.5 15.9 39.5 15.9 39.4 16 39.3L16.5 38.3C16.5 38.2 16.6 38.2 16.6 38.2 16.3 38.4 16.3 38.4 16.4 38.4zM14.7 39.2L14.7 38.8 14.7 39.2C14.7 39.2 14.7 39.2 14.7 39.2zM14.4 37.8L14.4 38.2 14.4 37.8zM15.7 38.4L15.5 38.9 15.7 38.4zM18.1 40C18.2 39.9 18.3 39.8 18.3 39.7 18.4 39.6 18.4 39.5 18.4 39.4 18.4 39.3 18.4 39.2 18.3 39.2 18.3 39.1 18.2 39.1 18.1 39L17.2 38.6 17.2 38.7 17.3 38.8C17.3 38.8 17.3 38.8 17.3 38.9 17.3 38.9 17.3 39 17.2 39.1L16.9 39.8C16.8 40 16.7 40.1 16.7 40.3 16.7 40.4 16.7 40.4 16.6 40.4 16.6 40.4 16.5 40.4 16.4 40.4L16.4 40.6C16.5 40.6 16.6 40.7 16.7 40.7 16.8 40.7 16.9 40.8 17.1 40.9L17.2 40.7 17.1 40.6 17.1 40.5C17.1 40.5 17.1 40.4 17.2 40.4 17.3 40.3 17.3 40.1 17.4 40L17.8 39.2C17.9 39.1 17.9 39 17.9 39 18 39 18 39 18 39 18.1 39 18.1 39.1 18.2 39.2 18.2 39.3 18.2 39.4 18.1 39.5 18 39.6 18 39.7 17.9 39.7 17.8 39.7 17.8 39.8 17.7 39.7 17.7 39.7 17.7 39.7 17.6 39.7L17.5 39.7C17.5 39.7 17.5 39.8 17.5 39.8 17.5 39.8 17.5 39.8 17.6 39.8 17.6 39.8 17.6 39.8 17.7 39.8 17.8 39.8 17.9 39.9 18 39.8 17.9 40.1 18 40 18.1 40zM19.3 41.7C19.3 41.7 19.3 41.6 19.3 41.5 19.3 41.5 19.3 41.4 19.3 41.3L19.3 40.9C19.3 40.9 19.3 40.9 19.3 40.8 19.3 40.7 19.3 40.7 19.3 40.7 19.4 40.7 19.6 40.7 19.7 40.6 19.8 40.5 19.9 40.4 19.9 40.3 19.9 40.2 20 40.1 19.9 40 19.9 39.9 19.9 39.8 19.8 39.8 19.7 39.8 19.7 39.7 19.5 39.6 19.4 39.6 19.4 39.5 19.3 39.5 19.2 39.5 19.2 39.4 19.1 39.4 19 39.4 18.9 39.3 18.9 39.3 18.8 39.2 18.7 39.2 18.7 39.2L18.7 39.3C18.8 39.4 18.8 39.4 18.9 39.4 18.9 39.4 18.9 39.5 18.8 39.6L18 41C18 41.1 17.9 41.1 17.9 41.2 17.9 41.2 17.9 41.2 17.7 41.2L17.7 41.4C17.8 41.4 17.9 41.5 18 41.5 18.1 41.6 18.3 41.6 18.4 41.7L18.4 41.5C18.4 41.5 18.3 41.4 18.2 41.4 18.2 41.4 18.2 41.4 18.2 41.3 18.2 41.3 18.3 41.2 18.3 41 18.4 40.8 18.4 40.7 18.5 40.6 18.5 40.5 18.6 40.3 18.7 40.1 18.8 40 18.8 39.9 18.8 39.9 18.8 39.9 18.9 39.9 18.9 39.9 19 39.9 19 40 19.1 40 19.1 40 19.2 40.1 19.2 40.2 19.2 40.3 19.2 40.3 19.2 40.4 19.2 40.5 19.1 40.5 19.1 40.6 19 40.6 19 40.7 18.9 40.7 18.8 40.7 18.8 40.7 18.7 40.6L18.7 40.7C18.7 40.7 18.7 40.8 18.7 40.8 18.7 40.9 18.7 41 18.7 41.2L18.7 41.8C18.7 41.8 18.7 41.9 18.7 41.9 18.8 41.9 18.8 41.9 18.9 42 19 42 19 42.1 19.2 42.1L19.3 41.7C19.3 41.8 19.3 41.8 19.3 41.7zM20 42.1C20 42 20 41.9 20.1 41.9L20.4 41.1C20.4 41.1 20.5 41 20.6 40.7 20.6 40.6 20.6 40.6 20.7 40.6 20.7 40.5 20.7 40.5 20.8 40.5 20.8 40.5 20.9 40.5 21 40.5L21 40.3C20.9 40.3 20.7 40.2 20.6 40.1 20.5 40 20.4 40 20.2 40L20.2 40.2C20.3 40.2 20.3 40.3 20.4 40.3 20.4 40.3 20.4 40.4 20.3 40.5 20.3 40.6 20.2 40.7 20.1 40.9L19.8 41.5C19.8 41.6 19.7 41.7 19.7 41.8 19.7 41.9 19.6 41.9 19.6 41.9 19.6 41.9 19.5 41.9 19.4 41.9L19.4 42.1C19.5 42.1 19.6 42.2 19.7 42.2 19.8 42.3 20 42.3 20.1 42.4L20.2 42.2C20.1 42.1 20.1 42.1 20 42.1zM23.3 41.5L23.3 41.3 23 41.2C23 41.2 22.9 41.2 22.8 41.1 22.7 41.2 22.7 41.2 22.7 41.3 22.7 41.3 22.6 41.5 22.4 41.6L22 41.9C21.9 42 21.9 42.1 21.8 42.2 21.8 42.2 21.8 42.3 21.7 42.3L21.7 40.7C21.6 40.7 21.5 40.6 21.5 40.6 21.4 40.6 21.3 40.5 21.1 40.5L21.1 40.7C21.1 40.7 21.2 40.7 21.2 40.8L21.2 40.9C21.2 40.9 21.2 41 21.1 41.2 21 41.3 21 41.5 20.9 41.7 20.8 41.9 20.8 42.1 20.7 42.1 20.6 42.3 20.6 42.4 20.6 42.4 20.6 42.4 20.6 42.4 20.6 42.4 20.6 42.4 20.6 42.4 20.4 42.4L20.4 42.6C20.5 42.6 20.6 42.7 20.7 42.7 20.8 42.7 20.9 42.8 21 42.8L21 42.7C20.9 42.7 20.9 42.6 20.9 42.6 20.9 42.6 20.9 42.5 21 42.3 21.1 42.1 21.1 42 21.2 41.9L21.3 41.5 21.4 41.2 21.4 42C21.4 42.1 21.4 42.3 21.4 42.6 21.4 42.8 21.4 42.9 21.4 43L21.5 43C21.5 42.9 21.6 42.9 21.7 42.8 21.8 42.7 21.9 42.6 22 42.5L22.4 42 22.7 41.7 22.3 42.7C22.2 42.9 22.2 43 22.2 43 22.2 43 22.2 43 22.2 43 22.2 43 22.1 43 22 43L22 43.1 22.4 43.2 22.8 43.4 22.8 43.2C22.7 43.1 22.7 43.1 22.6 43.1 22.6 43.1 22.6 43 22.7 42.9 22.7 42.9 22.7 42.8 22.8 42.7L23.2 41.6C23.2 41.5 23.3 41.5 23.3 41.5 23.2 41.4 23.2 41.4 23.3 41.5zM21.7 42.3L21.7 41.7 21.7 42.3C21.7 42.3 21.7 42.3 21.7 42.3zM21.3 41L21.3 41.4 21.3 41zM22.6 41.5L22.5 42 22.6 41.5zM25.1 42.1C25.2 42.1 25.2 42.1 25.3 42.1L25.3 42 25 41.8C25 41.8 24.9 41.8 24.7 41.7L24.7 41.8C24.8 41.8 24.8 41.9 24.9 41.9 24.9 41.9 24.9 42 24.9 42.1 24.9 42.2 24.8 42.3 24.8 42.6L24.5 43C24.4 43.2 24.4 43.3 24.3 43.4 24.3 43.5 24.2 43.5 24.1 43.5 24 43.5 23.9 43.5 23.8 43.5 23.7 43.5 23.6 43.4 23.6 43.4 23.5 43.3 23.5 43.3 23.5 43.2 23.5 43.1 23.5 43.1 23.5 43 23.5 43 23.5 42.8 23.6 42.7L23.7 42.2C23.8 42 23.8 41.9 23.8 41.8L23.9 41.8C23.9 41.8 24 41.8 24.1 41.8L24.1 41.7 23.3 41.5 23.3 41.6 23.5 41.7C23.5 41.7 23.5 41.7 23.5 41.8 23.5 41.9 23.4 42 23.4 42.2L23.2 42.8C23.2 43 23.1 43 23.1 43.1 23.1 43.2 23.1 43.2 23.1 43.3 23.1 43.4 23.1 43.4 23.2 43.5 23.2 43.6 23.3 43.6 23.4 43.7 23.5 43.8 23.6 43.8 23.7 43.9 23.8 43.9 23.9 43.9 24 43.9 24.1 43.9 24.2 43.9 24.3 43.8 24.4 43.8 24.4 43.7 24.5 43.7 24.6 43.6 24.6 43.6 24.6 43.5 24.6 43.4 24.7 43.3 24.7 43.2L24.8 42.9C24.8 42.8 24.9 42.7 24.9 42.5 25 42.1 25.1 42.1 25.1 42.1z"/>
    <path fill="#7B5A3E" d="M27.1 42.3C27.1 42.4 27 42.4 27 42.5 27 42.5 26.9 42.7 26.8 42.9L26.6 43.3C26.6 43.4 26.5 43.5 26.4 43.6 26.4 43.6 26.4 43.7 26.3 43.7L25.9 42C25.8 42 25.7 42 25.6 42 25.5 42 25.4 42 25.2 41.9L25.2 42.1C25.2 42.1 25.3 42.1 25.3 42.1 25.3 42.1 25.3 42.2 25.3 42.4 25.3 42.6 25.2 42.7 25.2 42.9 25.2 43.1 25.1 43.3 25.1 43.4 25.1 43.6 25 43.7 25 43.8 25 43.8 25 43.8 24.9 43.9 24.9 43.9 24.8 43.9 24.7 43.9L24.7 44.1C24.8 44.1 24.9 44.1 25 44.1 25.1 44.1 25.2 44.1 25.3 44.1L25.3 43.9C25.2 43.9 25.2 43.9 25.2 43.9 25.2 43.9 25.2 43.8 25.2 43.6 25.2 43.4 25.3 43.3 25.3 43.2L25.3 42.8 25.4 42.5 25.6 43.3C25.6 43.4 25.7 43.6 25.7 43.9 25.7 44.1 25.8 44.2 25.8 44.3L25.9 44.3C25.9 44.2 26 44.2 26 44.1 26.1 43.9 26.2 43.8 26.2 43.7L26.5 43.1 26.7 42.7 26.5 43.7C26.5 43.9 26.4 44 26.4 44.1 26.4 44.1 26.4 44.1 26.3 44.2 26.3 44.2 26.2 44.2 26.1 44.2L26.1 44.4 26.9 44.6 26.9 44.4C26.8 44.4 26.8 44.4 26.7 44.3 26.7 44.3 26.7 44.2 26.7 44.1 26.7 44.1 26.7 44 26.7 43.9L26.9 42.8C26.9 42.7 26.9 42.7 27 42.7 27 42.7 27.1 42.7 27.2 42.7L27.2 42.5 26.8 42.4C27.3 42.3 27.2 42.3 27.1 42.3zM26.2 43.6L26 42.7 26.2 43.6C26.2 43.6 26.2 43.6 26.2 43.6zM25.6 42.4L25.7 42.8 25.6 42.4zM27 42.7L26.9 43.2 27 42.7zM29.4 42.6C29.5 42.6 29.6 42.6 29.7 42.7 29.8 42.7 29.8 42.8 29.9 42.8 29.9 42.9 29.9 43 29.9 43.1L30 43.1C30 43 30 42.9 30 42.8 30 42.7 30 42.7 30 42.6 29.9 42.5 29.8 42.5 29.7 42.5 29.6 42.5 29.5 42.5 29.4 42.5 29.1 42.5 28.8 42.6 28.6 42.8 28.4 43 28.3 43.3 28.3 43.6 28.3 43.8 28.3 44 28.4 44.1 28.4 44.2 28.5 44.3 28.6 44.4 28.7 44.5 28.8 44.6 28.9 44.6 29 44.7 29.2 44.7 29.4 44.7 29.5 44.7 29.6 44.7 29.7 44.7 29.8 44.7 29.9 44.6 30 44.6L30.1 44.4 30.1 44.3C30 44.4 29.9 44.4 29.8 44.4 29.7 44.4 29.7 44.4 29.6 44.4 29.5 44.4 29.4 44.4 29.3 44.3 29.2 44.3 29.2 44.2 29.1 44.1 29 44 29 43.9 28.9 43.8 28.9 43.7 28.8 43.5 28.8 43.4 28.8 43.1 28.9 42.9 29 42.8 29.1 42.7 29.2 42.6 29.4 42.6zM32.1 42.9C32.1 42.8 32 42.7 32 42.7 32 42.6 31.9 42.6 31.8 42.5 31.7 42.4 31.6 42.4 31.5 42.4 31.4 42.4 31.2 42.4 31.1 42.4 30.9 42.4 30.8 42.5 30.7 42.5 30.6 42.6 30.5 42.6 30.4 42.7 30.3 42.8 30.3 42.9 30.2 43.1 30.2 43.2 30.2 43.4 30.2 43.6 30.2 43.8 30.3 44 30.4 44.2 30.5 44.4 30.6 44.5 30.8 44.5 30.9 44.6 31 44.6 31.2 44.6 31.2 44.6 31.3 44.6 31.3 44.6 31.5 44.6 31.6 44.5 31.8 44.4 31.9 44.3 32 44.3 32 44.1 32.1 44 32.1 43.9 32.1 43.8 32.1 43.6 32.1 43.4 32.1 43.3 32.1 43.1 32.1 43 32.1 42.9M31.7 43.8C31.7 43.9 31.6 44 31.5 44.1 31.4 44.2 31.3 44.2 31.2 44.2 31.1 44.2 31 44.2 30.9 44.1 30.8 44 30.7 44 30.7 43.8 30.6 43.7 30.6 43.5 30.6 43.2 30.6 43 30.6 42.9 30.6 42.8 30.6 42.7 30.7 42.6 30.7 42.5 30.8 42.4 30.9 42.4 31 42.4 31 42.4 31.1 42.4 31.1 42.4 31.2 42.4 31.2 42.4 31.3 42.4 31.4 42.4 31.4 42.5 31.5 42.6 31.6 42.7 31.6 42.8 31.6 42.9 31.6 43 31.7 43.1 31.7 43.3 31.7 43.5 31.7 43.7 31.7 43.8"/>
    <path fill="#7B5A3E" d="M34.2 43.2C34.2 43.2 34.2 43.1 34.2 43.2 34.2 43.1 34.2 43.1 34.3 43L34.2 42.9 33.4 43.1 33.5 43.2C33.6 43.2 33.7 43.2 33.8 43.2 33.8 43.2 33.8 43.2 33.8 43.4L33.8 43.5C33.8 43.6 33.8 43.6 33.8 43.6 33.8 43.6 33.7 43.7 33.7 43.7 33.7 43.7 33.6 43.7 33.5 43.8 33.3 43.8 33.1 43.8 33 43.7 32.8 43.6 32.7 43.4 32.6 43.1 32.5 42.8 32.5 42.6 32.6 42.4 32.7 42.2 32.8 42.1 33 42.1 33.1 42.1 33.2 42.1 33.2 42.1 33.3 42.1 33.3 42.1 33.4 42.2 33.4 42.2 33.5 42.2 33.5 42.2 33.5 42.2 33.5 42.3 33.5 42.3 33.5 42.4 33.5 42.4 33.6 42.5L33.7 42.4C33.7 42.2 33.6 42 33.6 41.9 33.5 41.9 33.4 41.9 33.3 41.9 33.2 41.9 33 41.9 32.9 42 32.8 42 32.7 42.1 32.6 42.1 32.5 42.1 32.4 42.2 32.3 42.3 32.2 42.4 32.2 42.5 32.1 42.6 32.1 42.7 32 42.8 32 42.9 32 43 32 43.2 32 43.3 32 43.5 32.1 43.6 32.2 43.8 32.3 43.9 32.3 44 32.4 44 32.5 44.1 32.6 44.1 32.7 44.1 32.8 44.1 32.9 44.1 32.9 44.1 33 44.1 33.1 44.1 33.2 44.1 33.3 44.1 33.4 44 33.5 44 33.6 43.9 33.7 43.9 33.9 43.7 33.9 43.6 33.9 43.6 33.8 43.5 34.2 43.4 34.2 43.3 34.2 43.2zM35.9 41.6C35.8 41.4 35.8 41.3 35.8 41.3 35.8 41.3 35.8 41.3 36 41.2L35.9 41C35.8 41.1 35.7 41.1 35.6 41.1 35.5 41.1 35.4 41.2 35.3 41.2L35.4 41.3C35.5 41.3 35.5 41.3 35.6 41.3 35.6 41.3 35.6 41.3 35.6 41.3 35.6 41.4 35.8 41.7 35.9 42.2L36 42.4 36 42.5C35.8 42.4 35.6 42.3 35.4 42.1 35 41.9 34.7 41.6 34.5 41.4L34.2 41.5C34.2 41.5 34.1 41.5 34 41.6L34.1 41.7C34.2 41.7 34.2 41.7 34.3 41.7L34.3 41.8C34.3 41.8 34.3 41.9 34.4 41.9L34.7 42.8C34.7 42.9 34.8 43 34.8 43.1 34.8 43.2 34.9 43.3 34.9 43.4L34.9 43.5C34.9 43.5 34.9 43.5 34.7 43.6L34.8 43.7C34.9 43.6 35 43.6 35.1 43.6L35.3 43.5 35.4 43.4 35.4 43.3C35.4 43.3 35.3 43.3 35.3 43.3 35.3 43.3 35.3 43.2 35.2 43.1 35.1 42.9 35.1 42.8 35 42.6L34.8 42.2 34.7 41.9C35.4 42.4 36 42.8 36.3 43 36.4 43 36.4 43 36.5 43L36.5 42.9C36.4 43 36.2 42.6 36 42 36 41.9 35.9 41.8 35.9 41.6zM36 42.6C36 42.6 35.9 42.5 35.9 42.5 36 42.5 36 42.6 36 42.6zM34.5 42C34.6 42.1 34.8 42.2 34.9 42.3 34.8 42.2 34.7 42.2 34.5 42zM37.9 40.9C37.8 40.8 37.8 40.8 37.7 40.7 37.6 40.6 37.6 40.6 37.5 40.6 37.4 40.6 37.3 40.5 37.2 40.5 37.1 40.5 36.9 40.5 36.8 40.6 36.7 40.7 36.5 40.7 36.4 40.9 36.3 41 36.3 41.1 36.2 41.2 36.2 41.3 36.1 41.5 36.2 41.6 36.2 41.7 36.3 41.9 36.3 42.1 36.4 42.3 36.5 42.5 36.7 42.6 36.8 42.7 37 42.8 37.2 42.8 37.2 42.8 37.3 42.8 37.3 42.8 37.4 42.8 37.6 42.8 37.7 42.7 37.9 42.6 38 42.5 38.1 42.4 38.2 42.3 38.2 42.2 38.3 42.1 38.3 42 38.3 41.9 38.3 41.7 38.3 41.5 38.2 41.4 38.2 41.2 38 41.1 37.9 41 37.9 40.9M37.3 42.5C37.3 42.5 37.3 42.5 37.3 42.5 37.1 42.5 37 42.4 36.9 42.3 36.8 42.2 36.7 42 36.6 41.8 36.5 41.7 36.5 41.5 36.5 41.4 36.5 41.3 36.5 41.2 36.5 41.1 36.5 41 36.6 40.9 36.7 40.9 36.8 40.9 36.8 40.8 36.9 40.8 36.9 40.8 36.9 40.8 37 40.8 37.1 40.8 37.2 40.8 37.2 40.9 37.3 41 37.3 41 37.4 41.1 37.5 41.2 37.5 41.3 37.6 41.4 37.7 41.6 37.7 41.8 37.7 41.9 37.7 42 37.7 42.2 37.6 42.2 37.5 42.3 37.5 42.3 37.4 42.4 37.5 42.5 37.4 42.5 37.3 42.5M39.4 40.7C39.4 40.7 39.3 40.6 39.3 40.6 39.3 40.6 39.2 40.6 39.2 40.5 39.1 40.5 39.1 40.5 39 40.5 39 40.5 38.9 40.5 38.8 40.5 38.7 40.5 38.6 40.5 38.6 40.5 38.5 40.5 38.5 40.5 38.4 40.5 38.4 40.5 38.3 40.5 38.3 40.5 38.3 40.5 38.2 40.4 38.2 40.4 38.2 40.3 38.2 40.2 38.2 40.2 38.2 40.1 38.3 40.1 38.4 40 38.5 40 38.5 39.9 38.6 40 38.7 40 38.7 40 38.8 40 38.8 40 38.9 40.1 39 40.2L39.1 40.1C39.1 40 39 39.9 39 39.9 39 39.8 39 39.8 38.9 39.7L38.8 39.7C38.7 39.7 38.7 39.7 38.6 39.7 38.5 39.7 38.4 39.8 38.3 39.8 38.2 39.8 38.1 39.9 38.1 39.9 38.1 40 38 40.1 38 40.2 38 40.3 37.9 40.4 38 40.5 38 40.6 38 40.7 38.1 40.8 38.1 40.9 38.2 40.9 38.2 41 38.3 41.1 38.3 41.1 38.4 41.1 38.5 41.1 38.5 41.1 38.6 41.1 38.7 41.1 38.8 41.1 38.9 41 39 41 39 41 39.1 41 39.1 41 39.2 41 39.2 41 39.2 41 39.3 41.1 39.3 41.1 39.3 41.2 39.3 41.2 39.3 41.3 39.3 41.4 39.3 41.4 39.2 41.5 39.2 41.6 39.1 41.6 39 41.6 38.9 41.6 38.9 41.6 38.8 41.6 38.7 41.6 38.6 41.6 38.6 41.5 38.5 41.4 38.5 41.3 38.4 41.3L38.3 41.4C38.4 41.6 38.5 41.8 38.5 41.9 38.5 41.9 38.6 41.9 38.6 41.9 38.7 41.9 38.7 41.9 38.8 41.9 38.9 41.9 39 41.9 39.1 41.8 39.2 41.7 39.3 41.7 39.4 41.6 39.4 41.5 39.5 41.5 39.5 41.4 39.5 41.3 39.5 41.2 39.5 41.1 39.5 41 39.5 40.9 39.4 40.8 39.5 40.8 39.5 40.8 39.4 40.7zM41.3 40.4C41.2 40.5 41.2 40.6 41.1 40.6 41 40.7 41 40.7 40.9 40.7 40.8 40.8 40.7 40.8 40.6 40.8 40.5 40.8 40.4 40.8 40.3 40.7 40.2 40.7 40.1 40.6 40 40.5 39.9 40.4 39.8 40.3 39.8 40.2 39.7 40 39.6 39.8 39.7 39.6 39.7 39.4 39.8 39.3 40 39.2 40.1 39.2 40.2 39.1 40.3 39.1 40.4 39.1 40.4 39.1 40.5 39.1 40.5 39.2 40.6 39.2 40.7 39.3L40.8 39.2C40.8 39.1 40.7 39 40.7 38.9 40.7 38.8 40.7 38.8 40.6 38.7 40.5 38.7 40.4 38.7 40.3 38.7 40.2 38.7 40.1 38.8 40 38.8 39.7 39 39.5 39.2 39.4 39.4 39.3 39.7 39.4 39.9 39.5 40.2 39.6 40.4 39.7 40.5 39.8 40.6 39.9 40.7 40 40.7 40.1 40.8 40.2 40.8 40.3 40.9 40.4 40.9 40.6 40.9 40.7 40.9 40.9 40.8 41 40.7 41.1 40.7 41.2 40.6 41.3 40.5 41.3 40.5 41.4 40.3L41.3 40.4zM42.5 39.6C42.5 39.7 42.6 39.8 42.6 39.9 42.6 39.9 42.6 39.9 42.5 40 42.4 40 42.4 40.1 42.3 40.1 42.2 40.1 42.1 40.2 42.1 40.2 42.1 40.2 42 40.1 42 40L41.7 39.5C41.7 39.5 41.8 39.4 41.9 39.4 42 39.4 42.1 39.3 42.2 39.3 42.2 39.3 42.2 39.3 42.3 39.5L42.4 39.4 42 38.8 41.9 38.9C42 39 42 39 42 39.1 42 39.1 42 39.1 41.9 39.1 41.8 39.2 41.7 39.2 41.7 39.2 41.6 39.2 41.6 39.3 41.6 39.3L41.5 39C41.4 38.8 41.4 38.7 41.3 38.6 41.4 38.6 41.4 38.5 41.5 38.5 41.6 38.5 41.6 38.4 41.7 38.4 41.8 38.4 41.8 38.4 41.8 38.4 41.8 38.4 41.8 38.5 41.9 38.6L42 38.5 41.8 38.1C41.7 38.1 41.7 38.2 41.6 38.2L41.4 38.3C41.3 38.4 41.2 38.4 41.1 38.5L40.7 38.7 40.8 38.8C40.9 38.8 40.9 38.7 41 38.7 41 38.7 41 38.8 41.1 38.9L41.5 39.8C41.5 39.9 41.6 40 41.7 40.1 41.7 40.2 41.8 40.2 41.8 40.3 41.8 40.3 41.8 40.4 41.7 40.5L41.7 40.6C41.9 40.5 42.1 40.4 42.1 40.4 42.2 40.4 42.3 40.3 42.5 40.2L42.7 40.1C42.8 40.1 42.9 40 42.9 40L42.9 39.9C42.8 39.8 42.8 39.6 42.7 39.4L42.5 39.6zM44.5 39.1C44.4 39.1 44.4 39 44.3 39L43.8 38.6C43.8 38.6 43.8 38.6 43.7 38.5 43.7 38.5 43.6 38.4 43.6 38.4 43.6 38.4 43.6 38.4 43.6 38.4 43.7 38.3 43.8 38.2 43.8 38.1 43.8 38 43.8 37.9 43.7 37.7 43.7 37.6 43.6 37.5 43.5 37.5 43.4 37.5 43.4 37.4 43.3 37.4 43.2 37.4 43.1 37.4 43 37.5 42.9 37.5 42.9 37.6 42.8 37.6 42.7 37.6 42.7 37.7 42.6 37.7 42.5 37.7 42.4 37.8 42.4 37.8 42.3 37.8 42.2 37.9 42.2 37.9L42.3 38C42.4 38 42.5 38 42.5 38 42.5 38 42.5 38 42.6 38.2L43.1 39.4C43.1 39.5 43.2 39.5 43.2 39.6 43.2 39.6 43.2 39.6 43 39.7L43 40C43.1 39.9 43.2 39.9 43.3 39.8 43.4 39.7 43.6 39.7 43.7 39.6L43.6 39.5C43.5 39.5 43.5 39.5 43.4 39.5 43.4 39.5 43.4 39.5 43.3 39.4 43.3 39.4 43.2 39.3 43.1 39.1 43 38.9 43 38.8 42.9 38.7 42.9 38.6 42.8 38.4 42.7 38.2 42.6 38.1 42.6 38 42.6 38 42.6 38 42.7 38 42.7 37.9 42.8 37.9 42.8 37.8 42.9 37.8 43 37.8 43 37.8 43.1 37.9 43.2 37.9 43.2 38 43.2 38.1 43.2 38.2 43.3 38.3 43.3 38.3 43.3 38.4 43.3 38.4 43.2 38.5 43.2 38.5 43.1 38.6 43 38.6L43 38.7C43 38.7 43.1 38.7 43.1 38.8 43.2 38.9 43.3 38.9 43.4 39L43.9 39.4C43.9 39.4 43.9 39.4 44 39.5 44.1 39.5 44.1 39.4 44.2 39.4 44.3 39.4 44.3 39.3 44.5 39.3L44.5 39.1C44.5 39.1 44.5 39.1 44.5 39.1zM45.7 38.2C45.7 38.2 45.7 38.2 45.7 38.2L45.6 38.2C45.6 38.3 45.6 38.4 45.7 38.5 45.7 38.5 45.7 38.5 45.6 38.6 45.5 38.6 45.5 38.7 45.4 38.7 45.3 38.7 45.2 38.8 45.2 38.8 45.2 38.8 45.2 38.7 45.1 38.6L44.9 38C44.9 38 45 37.9 45.1 37.9 45.2 37.9 45.3 37.8 45.4 37.8 45.4 37.8 45.4 37.8 45.5 38L45.6 37.9 45.3 37.3 45.2 37.4C45.2 37.5 45.2 37.5 45.2 37.6 45.2 37.6 45.2 37.6 45.1 37.6L44.9 37.7C44.8 37.7 44.8 37.7 44.8 37.8L44.7 37.5C44.6 37.3 44.6 37.2 44.5 37.1 44.6 37.1 44.6 37 44.7 37 44.8 37 44.9 36.9 44.9 36.9 44.9 36.9 45 36.9 45 36.9 45 36.9 45 37 45.1 37.1L45.2 37 45.1 36.6C45 36.6 45 36.7 44.9 36.7L44.7 36.8C44.6 36.9 44.4 36.9 44.3 36.9L43.9 37.1 44 37.2C44.1 37.2 44.1 37.2 44.2 37.2 44.2 37.2 44.2 37.2 44.3 37.4L44.7 38.3C44.7 38.4 44.8 38.5 44.8 38.7 44.8 38.8 44.9 38.9 44.9 38.9 44.9 38.9 44.9 39 44.8 39L44.8 39.1C44.9 39.1 45 39 45 39 45.1 39 45.2 38.9 45.4 38.9L45.6 38.8C45.7 38.8 45.8 38.7 45.8 38.7L45.8 38.6C45.8 38.6 45.8 38.4 45.7 38.2zM48.2 37.9C48.1 37.9 48.1 37.8 48 37.7 48 37.7 48 37.7 47.9 37.6L47.6 37.3C47.6 37.3 47.6 37.3 47.5 37.2 47.5 37.2 47.4 37.1 47.4 37.1 47.4 37.1 47.4 37.1 47.4 37.1 47.5 37 47.6 36.9 47.6 36.8 47.6 36.7 47.6 36.6 47.6 36.4 47.6 36.3 47.5 36.2 47.5 36.2 47.4 36.1 47.4 36.1 47.2 36.1 47.1 36.1 47 36.1 46.9 36.1 46.8 36.1 46.7 36.1 46.6 36.2 46.5 36.2 46.5 36.2 46.4 36.3 46.3 36.3 46.2 36.3 46.2 36.4 46.1 36.4 46 36.4 46 36.5L46.1 36.6C46.2 36.6 46.2 36.6 46.3 36.6 46.3 36.6 46.3 36.7 46.4 36.8L46.7 38.1C46.7 38.2 46.7 38.2 46.7 38.3 46.7 38.3 46.6 38.3 46.5 38.4L46.5 38.6C46.6 38.6 46.7 38.5 46.9 38.5 47 38.5 47.2 38.4 47.4 38.4L47.3 38.3C47.2 38.3 47.2 38.3 47.1 38.3 47.1 38.3 47.1 38.3 47.1 38.2 47.1 38.2 47.1 38.1 47 37.9 47 37.7 46.9 37.6 46.9 37.4 46.9 37.3 46.8 37.1 46.8 36.8 46.8 36.7 46.8 36.6 46.7 36.6 46.7 36.6 46.8 36.6 46.8 36.6 46.9 36.6 46.9 36.6 47 36.6 47.1 36.6 47.1 36.6 47.2 36.7 47.2 36.7 47.3 36.8 47.3 36.9 47.3 37 47.3 37.1 47.3 37.1 47.3 37.2 47.3 37.2 47.2 37.3 47.2 37.3 47.1 37.4 47 37.4L47 37.5C47 37.5 47.1 37.5 47.1 37.6 47.2 37.7 47.3 37.8 47.4 37.9L47.8 38.4C47.8 38.4 47.8 38.5 47.9 38.5 48 38.5 48 38.5 48.1 38.4 48.2 38.4 48.3 38.4 48.4 38.3L48.2 37.9C48.2 37.9 48.2 37.9 48.2 37.9z"/>
    <path fill="#7B5A3E" d="M49.6 37.4C49.6 37.4 49.6 37.3 49.6 37.4L49.5 37.4C49.5 37.5 49.5 37.6 49.5 37.7 49.5 37.7 49.5 37.7 49.4 37.7 49.3 37.7 49.2 37.7 49.2 37.7 49.1 37.7 49 37.7 49 37.7 49 37.7 49 37.6 49 37.5L48.8 37C48.9 37 48.9 37 49 37 49.1 37 49.1 37 49.2 37L49.3 37C49.3 37 49.3 37.1 49.4 37.2L49.5 37.2 49.4 36.5 49.3 36.5C49.3 36.6 49.3 36.6 49.3 36.7 49.3 36.7 49.3 36.7 49.2 36.7 49.1 36.7 49 36.7 49 36.7 48.9 36.7 48.9 36.7 48.8 36.7L48.8 36.4C48.8 36.2 48.8 36.1 48.7 36 48.8 36 48.9 36 48.9 36 49 36 49 36 49.1 36 49.2 36 49.2 36 49.2 36 49.2 36 49.2 36.1 49.3 36.2L49.4 36.2 49.4 35.8C49.3 35.8 49.2 35.8 49.2 35.8L48.9 35.8C48.8 35.8 48.6 35.8 48.5 35.9L48 36 48 36.1C48.1 36.1 48.2 36.1 48.2 36.1 48.2 36.1 48.2 36.2 48.2 36.3L48.3 37.3C48.3 37.4 48.3 37.5 48.3 37.7 48.3 37.8 48.3 37.9 48.3 37.9 48.3 37.9 48.2 38 48.2 38L48.2 38.1 48.3 38.1C48.5 38.1 48.6 38.1 48.6 38.1 48.7 38.1 48.8 38.1 49 38.1L49.2 38.1C49.3 38.1 49.4 38.1 49.4 38.1 49.7 37.7 49.6 37.6 49.6 37.4zM51.4 37.7C51.4 37.7 51.3 37.6 51.3 37.5L51 37C51 37 51 37 51 36.9 51 36.9 51 36.8 50.9 36.8 50.9 36.8 50.9 36.8 50.9 36.8 51 36.7 51.1 36.7 51.2 36.6 51.3 36.5 51.3 36.4 51.3 36.3 51.3 36.2 51.3 36.1 51.2 36 51.2 35.9 51.1 35.9 51 35.8 50.9 35.8 50.8 35.8 50.7 35.8L50.6 35.8C50.5 35.8 50.5 35.8 50.4 35.8 50.4 35.8 50.3 35.8 50.3 35.8L50.2 35.8C50.1 35.8 50 35.8 49.9 35.8 49.8 35.8 49.7 35.8 49.7 35.8L49.7 35.9C49.8 35.9 49.9 35.9 49.9 35.9 49.9 35.9 49.9 36 49.9 36.1L49.9 37.4C49.9 37.5 49.9 37.5 49.9 37.6 49.9 37.6 49.9 37.6 49.7 37.6L49.7 37.8C49.8 37.8 49.8 37.8 49.9 37.8L50 37.8C50.1 37.8 50.3 37.8 50.5 37.8L50.5 37.6C50.5 37.6 50.4 37.6 50.3 37.6 50.3 37.6 50.3 37.6 50.3 37.5 50.3 37.5 50.3 37.4 50.3 37.1 50.3 36.9 50.3 36.8 50.3 36.6 50.3 36.5 50.3 36.3 50.3 36 50.3 35.9 50.3 35.8 50.3 35.8 50.3 35.8 50.4 35.8 50.4 35.8 50.5 35.8 50.6 35.8 50.6 35.8 50.6 35.8 50.7 35.9 50.7 35.9 50.7 36 50.7 36 50.7 36.1 50.7 36.2 50.7 36.3 50.6 36.3 50.6 36.4 50.5 36.4 50.5 36.4 50.5 36.4 50.4 36.4 50.3 36.4L50.2 36.4 50.2 36.5C50.2 36.5 50.2 36.6 50.3 36.6 50.4 36.7 50.4 36.8 50.5 37L50.8 37.5C50.8 37.5 50.8 37.6 50.9 37.6L51 37.6 51.1 37.6C51.2 37.6 51.3 37.6 51.4 37.6L51.4 37.4C51.5 37.7 51.5 37.7 51.4 37.7zM53.2 37.4L53.3 37.1C53.3 37 53.4 36.9 53.4 36.7 53.5 36.5 53.5 36.4 53.5 36.4L53.6 36.4C53.6 36.4 53.7 36.4 53.7 36.4L53.7 36.3 53.4 36.2C53.4 36.2 53.3 36.2 53.1 36.1L53.1 36.3C53.2 36.3 53.3 36.4 53.3 36.4 53.3 36.4 53.3 36.5 53.3 36.6 53.3 36.7 53.3 36.8 53.2 37.1L53 37.3C53 37.5 52.9 37.6 52.9 37.7 52.9 37.8 52.8 37.8 52.7 37.8 52.6 37.8 52.5 37.8 52.4 37.8 52.3 37.8 52.2 37.7 52.2 37.7 52.1 37.7 52.1 37.6 52.1 37.5 52.1 37.4 52.1 37.4 52.1 37.3 52.1 37.3 52.1 37.1 52.2 37L52.3 36.5C52.3 36.3 52.4 36.2 52.4 36.1L52.5 36.1C52.5 36.1 52.6 36.1 52.7 36.1L52.7 36 51.9 35.8 51.9 35.9 52.1 36C52.1 36 52.1 36 52.1 36.1 52.1 36.2 52.1 36.3 52 36.5L51.9 37.2C51.9 37.4 51.8 37.5 51.8 37.5 51.8 37.6 51.8 37.6 51.8 37.7 51.8 37.8 51.8 37.8 51.9 37.9 51.9 38 52 38 52.1 38.1 52.2 38.2 52.3 38.2 52.4 38.2 52.5 38.2 52.6 38.2 52.6 38.2 52.6 38.2 52.6 38.2 52.7 38.2 52.8 38.2 52.9 38.2 52.9 38.1 53 38.1 53 38 53.1 37.9 53.1 37.8 53.2 37.8 53.2 37.7 53.1 37.6 53.1 37.5 53.2 37.4zM55.7 37.2C55.7 37.2 55.6 37.2 55.5 37.1 55.4 37.2 55.4 37.2 55.3 37.3 55.3 37.3 55.1 37.4 55 37.6L54.7 37.9C54.6 38 54.5 38 54.5 38.2 54.5 38.2 54.4 38.2 54.4 38.3L54.5 36.7C54.4 36.7 54.3 36.6 54.3 36.6 54.2 36.6 54.1 36.5 53.9 36.4L53.9 36.5C53.9 36.5 54 36.5 54 36.6L54 36.7C54 36.7 54 36.8 53.9 37 53.8 37.1 53.8 37.3 53.7 37.5 53.6 37.7 53.5 37.9 53.5 37.9 53.4 38.1 53.4 38.2 53.3 38.2 53.3 38.2 53.3 38.2 53.3 38.2 53.3 38.2 53.3 38.2 53.1 38.2L53.1 38.3C53.2 38.3 53.3 38.4 53.4 38.4 53.5 38.4 53.6 38.5 53.7 38.5L53.7 38.4C53.6 38.3 53.6 38.3 53.6 38.3 53.6 38.3 53.6 38.2 53.7 38 53.8 37.8 53.8 37.7 53.9 37.6L54 37.2 54.1 36.9 54.1 37.7C54.1 37.8 54.1 38 54.1 38.3 54.1 38.5 54.1 38.6 54.1 38.7L54.2 38.7C54.2 38.7 54.3 38.6 54.4 38.5 54.5 38.4 54.6 38.3 54.7 38.2L55.2 37.7 55.5 37.4 55.1 38.3C55 38.5 55 38.6 54.9 38.6 54.9 38.6 54.9 38.6 54.9 38.6 54.9 38.6 54.9 38.6 54.7 38.6L54.7 38.7 55.5 39.1 55.6 38.9C55.6 38.9 55.5 38.8 55.5 38.8 55.5 38.8 55.5 38.7 55.6 38.6 55.6 38.6 55.6 38.5 55.7 38.4L56.2 37.4C56.2 37.3 56.3 37.3 56.3 37.3 56.3 37.3 56.4 37.3 56.4 37.3L56.5 37.1 55.7 37.2zM54.3 38.2L54.3 37.2 54.3 38.2C54.4 38.2 54.4 38.2 54.3 38.2zM54 36.8L54 37.2 54 36.8zM55.4 37.5L55.2 38 55.4 37.5z"/>
  </g>
</svg>
