<svg xmlns="http://www.w3.org/2000/svg" width="131" height="60" viewBox="0 0 131 60">
  <g fill="none" transform="translate(0 12)">
    <path fill="#211645" d="M10.2 35.7C10.2 35.7 16.1 38.7 21.6 35.3 25.6 32.8 27.6 29 30.7 28.7 30.7 28.7 25.9 27.1 21.1 30.2 17.7 32.4 15.4 36 10.2 35.7zM126.7 25.8L124.8 29.4 122.9 25.8 119 25.8 123 32.7 123 36.6 126.5 36.6 126.5 32.6 130.5 25.8 126.7 25.8zM108.6 28.6L111.8 28.6 111.8 36.5 115.3 36.5 115.3 28.6 118.5 28.6 118.5 25.8 108.6 25.8 108.6 28.6zM104 36.6L107.5 36.6 107.5 25.8 104 25.8 104 36.6zM96.8 28.6C96.8 28.2 97.1 28 97.9 28 98.2 28 98.6 28.1 98.8 28.2 99.1 28.3 99.2 28.6 99.3 28.9L102.7 28.9C102.4 27 101.1 25.5 98.1 25.5 95.4 25.5 93.4 26.7 93.4 28.9 93.4 33 99.6 31.9 99.6 33.5 99.6 34 99 34.3 98.1 34.3 97.8 34.3 97.4 34.2 97.1 34 96.8 33.8 96.6 33.5 96.5 33.1L93.1 33.1C93.2 35 95 36.7 97.9 36.7 100.9 36.7 102.9 35.5 102.9 33 103 29.2 96.8 30.2 96.8 28.6zM87.5 30.5L86.1 30.5 86.1 28.4 87.7 28.4C88.5 28.4 89.1 28.8 89.1 29.5 89.1 30.2 88.6 30.5 87.5 30.5zM92.4 34.4C92.4 32.2 91.7 32 90.6 31.5 91.9 31.2 92.4 30.1 92.4 28.9 92.4 26.8 91.2 25.8 87.6 25.8L82.5 25.8 82.5 36.6 86 36.6 86 32.8 87.1 32.8C88.7 32.8 89 33.3 89 34.7 89 35.7 89.1 36.3 89.2 36.6L92.8 36.6 92.8 36.3C92.4 36.2 92.4 35.8 92.4 34.4zM76.1 32.4L80.5 32.4 80.5 29.9 76.1 29.9 76.1 28.4 81.4 28.4 81.4 25.9 72.6 25.9 72.6 36.7 81.6 36.7 81.6 34.2 76.1 34.2 76.1 32.4zM66.2 33L64.3 25.8 60.7 25.8 64.4 36.6 67.9 36.6 71.6 25.8 68 25.8 66.2 33zM56.3 36.6L59.8 36.6 59.8 25.8 56.3 25.8 56.3 36.6zM51.4 29.2L51.5 31.7 47.7 25.8 44.4 25.8 44.4 36.6 47.8 36.6 47.8 33.2 47.7 30.7 51.5 36.6 54.8 36.6 54.8 25.8 51.4 25.8 51.4 29.2zM39.3 32.2C39.3 33.4 38.9 34.2 37.7 34.2 36.2 34.2 36 33.3 36 32.2L36 25.8 32.5 25.8 32.5 31.9C32.5 35.6 34.4 36.9 37.7 36.9 41.3 36.9 42.9 35.4 42.9 31.9L42.9 25.8 39.4 25.8 39.4 32.2 39.3 32.2zM95.6 23.8L95.6 13 92.2 13 92.2 16.4 92.3 18.9 88.5 13 85.2 13 85.2 23.8 88.6 23.8 88.6 20.4 88.5 17.9 92.3 23.8 95.6 23.8zM83.6 23.8L83.6 13 80.1 13 80.1 23.8 83.6 23.8zM76.8 23.8L79.5 13 76.1 13 74.9 19.7 73.6 13 70.7 13 69.4 19.7 68.2 13 64.8 13 67.5 23.8 71 23.8 72.2 17.5 73.4 23.8 76.8 23.8zM59.4 17.7L58 17.7 58 15.6 59.6 15.6C60.4 15.6 61 16 61 16.7 61 17.4 60.5 17.7 59.4 17.7zM61.1 23.8L64.7 23.8 64.7 23.5C64.3 23.5 64.3 23 64.3 21.6 64.3 19.4 63.6 19.2 62.5 18.7 63.8 18.4 64.3 17.3 64.3 16.1 64.3 14 63.1 13 59.5 13L54.4 13 54.4 23.8 57.9 23.8 57.9 20 59 20C60.6 20 60.9 20.5 60.9 21.9 60.9 22.9 61 23.6 61.1 23.8zM46.9 20.2L48 16.3 49.1 20.2 46.9 20.2zM46.3 13.1L42.4 23.9 45.9 23.9 46.3 22.5 49.8 22.5 50.2 23.9 53.7 23.9 49.8 13.1 46.3 13.1zM36 21.3L36 15.6 36.7 15.6C38.6 15.6 39.3 16.2 39.3 18.4 39.3 20.4 38.4 21.3 36.8 21.3L36 21.3zM42.8 18.2C42.8 14.7 40.6 13 37.2 13L32.5 13 32.5 23.8 37.1 23.8C40.5 23.8 42.8 22.3 42.8 18.2zM101.5 8.9C101.2 8.9 100.8 8.8 100.5 8.6 100.2 8.4 100 8.1 99.9 7.7L96.5 7.7C96.6 9.6 98.4 11.3 101.3 11.3 104.3 11.3 106.3 10.1 106.3 7.6 106.3 3.7 100.1 4.7 100.1 3.1 100.1 2.7 100.4 2.5 101.2 2.5 101.5 2.5 101.9 2.6 102.1 2.7 102.4 2.8 102.5 3.1 102.6 3.4L106 3.4C105.7 1.5 104.4 0 101.4 0 98.7 0 96.7 1.2 96.7 3.4 96.7 7.5 102.9 6.4 102.9 8 102.9 8.6 102.4 8.9 101.5 8.9zM95.9 8.6L90.4 8.6 90.4 6.9 94.8 6.9 94.8 4.4 90.4 4.4 90.4 2.9 95.7 2.9 95.7.4 86.9.4 86.9 11.2 95.9 11.2 95.9 8.6zM85.9 8.6L81.1 8.6 81.1.3 77.6.3 77.6 11.1 86 11.1 85.9 8.6zM70 2.8L71.6 2.8C72.4 2.8 73 3.2 73 3.9 73 4.6 72.4 4.9 71.3 4.9L69.9 4.9 70 2.8C69.9 2.8 70 2.8 70 2.8zM70 7.3L71.1 7.3C72.7 7.3 73 7.8 73 9.2 73 10.2 73.1 10.8 73.2 11.1L76.8 11.1 76.8 10.8C76.4 10.8 76.4 10.3 76.4 8.9 76.4 6.7 75.7 6.5 74.6 6 75.9 5.7 76.4 4.6 76.4 3.4 76.4 1.3 75.2.3 71.6.3L66.5.3 66.5 11.1 70 11.1 70 7.3zM60.1 3.6L61.2 7.5 59 7.5 60.1 3.6zM58.4 9.7L61.9 9.7 62.3 11.1 65.8 11.1 61.9.3 58.3.3 54.4 11.1 57.9 11.1 58.4 9.7zM47.1 6.9L50.4 6.9 50.4 11.1 53.9 11.1 53.9.3 50.4.3 50.4 3.9 47.1 3.9 47.1.3 43.6.3 43.6 11.1 47.1 11.1 47.1 6.9zM37.5 11.4C40.3 11.4 42.3 9.7 42.6 6.9L39.2 6.9C39.1 7.9 38.5 8.7 37.4 8.7 35.6 8.7 35.3 7.3 35.3 5.8 35.3 3.7 36 2.7 37.3 2.7 38.4 2.7 39.1 3.3 39.2 4.5L42.6 4.5C42.3 1.7 40.5.1 37.2.1 34.2.1 31.8 2.3 31.8 5.8 31.8 9.2 33.9 11.4 37.5 11.4z"/>
    <path fill="#211645" d="M0.8,9.3 C0.8,9.3 0.9,30.6 13.3,30.9 C25.8,30.6 25.8,9.3 25.8,9.3 L0.8,9.3 Z"/>
    <path fill="#FFF" d="M17.9 13.6C18.5 13.7 19 14.5 19.2 14.7 19.4 14.9 20 15.7 19.9 16.2 19.9 16.9 19.5 17.5 18.8 17.7 17.9 18 16 18.5 15.3 17.6 14.7 16.8 15.6 15 16.1 14.2 16.6 13.7 17.2 13.4 17.9 13.6zM7.4 14.7C7.6 14.5 8.1 13.7 8.7 13.6 9.4 13.4 10.1 13.7 10.4 14.3 10.9 15.1 11.8 16.9 11.2 17.7 10.6 18.5 8.6 18 7.7 17.7 7 17.5 6.6 16.9 6.6 16.2 6.7 15.6 7.3 14.9 7.4 14.7zM6.7 22.6C6.2 22.2 6 21.3 6 21 5.9 20.7 5.7 19.8 6 19.3 6.3 18.6 6.9 18.3 7.6 18.4 8.6 18.5 10.5 18.9 10.7 19.9 10.9 20.9 9.4 22.1 8.6 22.6 8 23.1 7.3 23 6.7 22.6zM13 25.1C12.9 25.8 12.5 26.3 11.8 26.5 11.2 26.6 10.4 26.2 10.1 26.1 9.9 26 9 25.6 8.8 25.1 8.5 24.4 8.6 23.8 9.1 23.3 9.8 22.6 11.3 21.3 12.2 21.8 13.1 22.2 13 24.2 13 25.1zM13.3 16.7C12.3 16.7 11.4 14.9 11.1 14 10.9 13.3 11 12.7 11.6 12.2 12.1 11.8 13 11.9 13.3 11.9 13.6 11.9 14.5 11.9 15 12.2 15.6 12.7 15.8 13.3 15.5 14 15.2 14.9 14.4 16.7 13.3 16.7zM18 25.1C17.8 25.6 16.9 26 16.7 26.1 16.5 26.2 15.6 26.6 15 26.5 14.3 26.3 13.8 25.8 13.8 25.1 13.7 24.1 13.7 22.2 14.6 21.7 15.5 21.3 17 22.5 17.7 23.2 18.2 23.7 18.3 24.4 18 25.1zM19.9 22.6C19.3 23 18.6 23.1 18.1 22.7 17.3 22.2 15.7 21 16 19.9 16.2 18.9 18.2 18.5 19.2 18.4 19.9 18.3 20.5 18.7 20.8 19.3 21 19.8 20.8 20.7 20.7 21 20.6 21.3 20.4 22.2 19.9 22.6z"/>
    <polygon fill="#FFF" points="9.3 4.2 7.8 5.7 25.8 5.7 25.8 2.6 7.8 2.6"/>
    <polygon fill="#FFF" points="3.5 4.6 3.2 5.7 4.2 5.3 4.7 6.3 5.2 5.3 6.2 5.7 5.9 4.6 6.8 4.2 5.9 3.7 6.2 2.6 5.2 3 4.7 2 4.2 3 3.2 2.6 3.5 3.7 2.6 4.2"/>
    <path fill="#211645" d="M6.2,5.7 L5.2,5.3 L4.7,6.3 L4.2,5.3 L3.2,5.7 L3.5,4.7 L2.5,4.2 L3.5,3.7 L3.1,2.7 L4.1,3 L4.6,2 L5.1,3 L6.1,2.6 L5.8,3.6 L6.8,4.1 L5.8,4.6 L6.2,5.7 Z M0.7,0.3 L0.7,8 L25.7,8 L25.7,5.7 L7.7,5.7 L9.2,4.2 L7.7,2.7 L25.7,2.7 L25.7,0.4 L0.7,0.3 Z"/>
  </g>
</svg>
