<svg xmlns="http://www.w3.org/2000/svg" width="130" height="60" viewBox="0 0 130 60">
  <g fill="none" transform="translate(0 19)">
    <polygon fill="#C29709" points=".7 .7 22 .7 22 22 .7 22"/>
    <path fill="#FFF" d="M11.3,4.6 L13.9,6.1 C13.9,6.1 14.2,6.2 14.3,6.4 C14.4,6.6 14.4,6.8 14.4,6.8 L14.4,9.1 C14.4,9.1 14.4,9.4 14.3,9.6 C14.2,9.8 14.1,9.8 14.1,9.8 L11.7,11.2 C11.7,11.2 11.5,11.4 11.3,11.4 C11.1,11.4 10.8,11.2 10.8,11.2 L8.6,9.9 C8.6,9.9 8.5,9.9 8.3,9.7 C8.1,9.5 8.2,9.2 8.2,9.2 L8.2,6.7 C8.2,6.7 8.2,6.5 8.3,6.4 L8.6,6.1 L11.3,4.6 Z M4.9,4.7 L4.9,5.5 L8.1,5.5 L9.5,4.7 L4.9,4.7 Z M17.7,4.7 L13.2,4.7 L14.6,5.5 L17.7,5.5 L17.7,4.7 Z M15.3,7.2 L17.7,7.2 L17.7,6.4 L15.3,6.4 L15.3,7.2 Z M7.4,6.3 L5,6.3 L5,7.1 L7.4,7.1 L7.4,6.3 Z M15.3,8 L17.7,8 L17.7,8.8 L15.3,8.8 L15.3,8 Z M4.9,8 L4.9,8.9 L7.3,8.9 L7.3,8.1 L4.9,8 Z M15,10.3 L14.6,10.5 L17.7,10.5 L17.7,9.7 L15.2,9.7 C15.2,9.8 15.2,9.9 15.1,10 C15.1,10.2 15,10.3 15,10.3 Z M7.5,10.2 C7.4,10.1 7.3,9.9 7.3,9.7 L4.9,9.7 L4.9,10.5 L8,10.5 L7.8,10.4 C7.9,10.4 7.7,10.4 7.5,10.2 Z M11.8,12.2 L17.7,12.2 L17.7,11.4 L13.2,11.4 L11.8,12.2 C11.9,12.1 11.8,12.2 11.8,12.2 Z M9.4,11.4 L4.9,11.4 L4.9,12.2 L10.8,12.2 C10.7,12.2 10.6,12.1 10.6,12.1 L9.4,11.4 Z M17.4,13.9 C17.5,13.6 17.6,13.3 17.6,13.1 L11.7,13.1 L11.7,13.9 L17.4,13.9 Z M5,13 C5.1,13.3 5.1,13.6 5.2,13.8 L10.9,13.8 L10.9,13 L5,13 Z M5.6,14.7 C5.8,15 5.9,15.3 6.1,15.5 L10.8,15.5 L10.8,14.7 L5.6,14.7 Z M16.5,15.6 C16.7,15.3 16.9,15.1 17,14.8 L11.7,14.8 L11.7,15.6 L16.5,15.6 Z M6.9,16.4 C7.2,16.7 7.5,17 7.9,17.2 L10.9,17.2 L10.9,16.4 L6.9,16.4 Z M14.8,17.2 C15.2,16.9 15.5,16.7 15.8,16.4 L11.8,16.4 L11.8,17.2 L14.8,17.2 Z M9.3,18.1 C9.8,18.4 10.4,18.7 10.9,18.9 L10.9,18.1 L9.3,18.1 Z M13.4,18.1 L11.8,18.1 L11.8,18.9 L13.4,18.1 Z"/>
    <polygon fill="#000" points="22.8 .7 129.3 .7 129.3 22 22.8 22"/>
    <g fill="#FFF" transform="translate(27 6)">
      <path d="M71.5 4C71 4 70.5 4.5 70.3 4.7 70.1 4.9 69.6 5.8 69.6 5.8L69.6 9.6 68.9 9.6C68.7 9.6 68.5 9.5 68.5 9.2L68.5 3 69.2 3C69.4 3 69.6 3.1 69.6 3.4L69.6 4.5 69.7 4.4C70.2 3.6 70.8 3.1 71.6 3.1 71.7 3.1 71.8 3.1 71.9 3.2 72 3.3 72 3.3 72 3.5L72 4.1 71.5 4zM43.8 6.6C43.8 8.7 42.5 9.8 40.5 9.8 38.4 9.8 37.2 8.7 37.2 6.6L37.2 1.1C37.2.9 37.3.7 37.6.7L38.4.7 38.4 6.6C38.4 8.2 39.3 8.8 40.5 8.8 41.7 8.8 42.7 8.2 42.7 6.6L42.7 1.1C42.7.9 42.8.7 43.1.7L43.9.7 43.8 6.6zM60.6 4.8C60.6 7 59.3 9.1 58.6 9.7L57.5 9.7C56.8 9.1 55.6 7.1 55.6 4.8L55.6 3.5C55.6 3.3 55.7 3.1 56 3.1L56.7 3.1 56.7 4.8C56.7 6.7 57.4 8.2 58.2 8.9 58.9 8.2 59.7 6.7 59.7 4.8L59.7 3.5C59.7 3.3 59.8 3.1 60.1 3.1L60.8 3.1 60.8 4.8 60.6 4.8zM64.6 5.9C65.6 5.9 65.9 5.5 65.9 4.9 65.9 4.2 65.4 4 64.7 4 63.6 4 62.9 4.6 62.9 5.9L64.6 5.9zM61.9 7.1L61.9 5.8C61.9 4 63.1 3 64.7 3 66 3 66.9 3.6 66.9 4.9 66.9 6.1 66.2 6.8 64.8 6.8L62.8 6.8 62.8 7.2C62.8 8.4 63.5 8.9 64.6 8.9 65.3 8.9 66.5 8.5 66.5 8.5L66.5 9.1C66.5 9.3 66.5 9.4 66.3 9.5 66.2 9.5 65.4 9.8 64.7 9.8 63.1 9.8 61.9 9 61.9 7.1zM73.8 4.9C73.8 5.5 74.2 5.6 74.7 5.7L75.5 5.9C76.5 6.1 77.3 6.5 77.3 7.8 77.3 9.3 76 9.8 74.7 9.8 73.9 9.8 73.2 9.7 73.1 9.6 73 9.6 72.8 9.5 72.8 9.5L72.8 8.9C72.8 8.7 72.9 8.6 73.1 8.6L73.2 8.6C73.3 8.6 73.9 8.8 74.7 8.8 75.7 8.8 76.3 8.5 76.3 7.8 76.3 7.2 75.8 7 75.3 6.9L74.3 6.7C73.4 6.5 72.8 6 72.8 5 72.8 3.8 73.8 3.1 75.3 3.1 76.1 3.1 76.7 3.2 76.8 3.2 76.9 3.2 77.1 3.3 77.1 3.3L77.1 3.9C77.1 4.1 77 4.2 76.8 4.2 76.6 4.2 76.2 4.1 75.4 4.1 74.3 4 73.8 4.2 73.8 4.9zM90.5 8L90 8.5C89.5 9 88.9 9.4 88.1 9.4 87 9.4 86.3 8.8 86.3 7.1L86.3 3.5C86.3 3.3 86.4 3.1 86.7 3.1L87.4 3.1 87.4 7.1C87.4 8.1 87.8 8.4 88.4 8.4 89 8.4 89.7 7.7 90.1 7.4L90.5 7 90.5 3.5C90.5 3.3 90.6 3.1 90.9 3.1L91.6 3.1 91.6 8.9C91.6 11.1 90.3 12 88 12L86.8 12 86.8 11.4C86.8 11.2 86.9 11 87.2 11L88 11C89.8 11 90.5 10.4 90.5 8.9L90.5 8zM84.8 8.7C84.9 8.7 85 8.7 85.1 8.8 85.2 8.9 85.2 9 85.2 9.1L85.2 9.7 84.2 9.7C82.9 9.7 82 9 82 7.5L82 1.6 82.7 1.6C82.9 1.6 83.1 1.7 83.1 2L83.1 3.1 84.6 3.1C84.8 3.1 85 3.2 85 3.5L85 4.1 83.1 4.1 83.1 7.6C83.1 8.4 83.5 8.8 84.2 8.8L84.8 8.7zM54 1.4C54 1.6 53.9 1.8 53.6 1.8L52.9 1.8 52.9 1C52.9.8 53 .6 53.3.6L54 .6 54 1.4zM54 9.3L54 9.7 53.3 9.7C53.1 9.7 52.9 9.6 52.9 9.3L52.9 4 52.2 4C51.9 4 51.8 3.9 51.8 3.6L51.8 3 53.6 3C53.8 3 54 3.1 54 3.4 54 3.4 54 9.3 54 9.3zM80.4 1.4C80.4 1.6 80.3 1.8 80 1.8L79.3 1.8 79.3 1C79.3.8 79.4.6 79.7.6L80.4.6 80.4 1.4zM80.4 9.3L80.4 9.7 79.7 9.7C79.5 9.7 79.3 9.6 79.3 9.3L79.3 4 78.6 4C78.3 4 78.2 3.9 78.2 3.6L78.2 3 80 3C80.2 3 80.4 3.1 80.4 3.4 80.4 3.4 80.4 9.3 80.4 9.3zM46.5 4.3L47 3.9C47.5 3.4 48 3 48.9 3 49.9 3 50.7 3.6 50.7 5.3L50.7 9.7 50 9.7C49.8 9.7 49.6 9.6 49.6 9.3L49.6 5.3C49.6 4.3 49.1 4 48.6 4 47.9 4 47.3 4.7 46.9 5L46.5 5.4 46.5 9.7 45.8 9.7C45.6 9.7 45.4 9.6 45.4 9.3L45.4 3.1 46.1 3.1C46.3 3.1 46.5 3.2 46.5 3.5 46.5 3.5 46.5 4.3 46.5 4.3zM12.7 8.5L12.3 8.9C11.8 9.4 11.3 9.7 10.4 9.7 9.4 9.7 8.6 9.1 8.6 7.4L8.6 3.4C8.6 3.2 8.7 3 9 3L9.7 3 9.7 7.4C9.7 8.4 10.2 8.7 10.7 8.7 11.3 8.7 12 8 12.4 7.7L12.8 7.3 12.8 3.4C12.8 3.2 12.9 3 13.2 3L13.9 3 13.9 9.2C13.9 9.4 13.8 9.6 13.5 9.6L12.8 9.6 12.7 8.5zM18.5 4C18 4 17.5 4.5 17.3 4.7 17 5 16.5 5.9 16.5 5.9L16.5 9.7 15.8 9.7C15.6 9.7 15.4 9.6 15.4 9.3L15.4 3.1 16 3.1C16.2 3.1 16.4 3.2 16.4 3.5L16.4 4.6 16.5 4.5C17 3.7 17.6 3.2 18.4 3.2 18.5 3.2 18.6 3.2 18.7 3.3 18.8 3.4 18.8 3.4 18.8 3.6L18.8 4.2 18.5 4.2 18.5 4zM22.7 8.7C22.8 8.7 22.9 8.7 23 8.8 23.1 8.9 23.1 9 23.1 9.1L23.1 9.7 22.1 9.7C20.8 9.7 19.9 9 19.9 7.5L19.9 1.6 20.6 1.6C20.8 1.6 21 1.7 21 2L21 3.1 22.5 3.1C22.7 3.1 22.9 3.2 22.9 3.5L22.9 4.1 21 4.1 21 7.6C21 8.4 21.4 8.8 22.1 8.8L22.7 8.7zM26.2 1.4C26.2 1.6 26.1 1.8 25.8 1.8L25.1 1.8 25.1 1C25.1.8 25.2.6 25.5.6L26.2.6 26.2 1.4zM26.2 9.3L26.2 9.7 25.5 9.7C25.3 9.7 25.1 9.6 25.1 9.3L25.1 4 24.4 4C24.1 4 24 3.9 24 3.6L24 3 25.8 3C26 3 26.2 3.1 26.2 3.4 26.2 3.4 26.2 9.3 26.2 9.3zM28.9 4.3L29.4 3.8C29.9 3.3 30.4 2.9 31.3 2.9 32.3 2.9 33.1 3.5 33.1 5.2L33.1 9.6 32.4 9.6C32.2 9.6 32 9.5 32 9.2L32 5.2C32 4.2 31.5 3.9 31 3.9 30.3 3.9 29.7 4.6 29.3 4.9L28.9 5.3 28.9 9.6 28.2 9.6C28 9.6 27.8 9.5 27.8 9.2L27.8 3 28.5 3C28.7 3 28.9 3.1 28.9 3.4 28.9 3.4 28.9 4.3 28.9 4.3zM5 1.6C5.4 1.6 5.7 1.6 6 1.7 6.4 1.8 6.7 1.9 6.8 2L7 2C7.1 2 7.2 1.9 7.2 1.8L7.2 1.1C7.2 1.1 7.1 1 7 1 6.9.9 6.5.8 6.1.8 6 .8 5.8.8 5.7.7L5.2.7C2.6.7.9 2.1.9 4.7L.9 5.8C.9 8.1 2.1 9.8 4.8 9.8L5.4 9.8C6.1 9.8 6.8 9.6 7 9.5 7.1 9.5 7.2 9.4 7.2 9.4L7.2 8.8C7.2 8.6 7.1 8.6 7 8.6L6.8 8.6C6.5 8.7 5.9 8.9 5.3 8.9L4.7 8.9C2.9 8.9 1.9 7.8 1.9 5.9L1.9 4.8C2 2.4 3.3 1.6 5 1.6z"/>
    </g>
  </g>
</svg>
