<svg xmlns="http://www.w3.org/2000/svg" width="128" height="60" viewBox="0 0 128 60">
  <g fill="none" transform="translate(0 13)">
    <path fill="#ED1C24" d="M22.2,31 L27.2,18.5 L27.2,0.9 L22.2,13.4 L22.2,31 Z M34.8,6.8 L34.8,24.4 L23.5,31.7 L30.7,20.7 L30.7,9.4 L34.8,6.8 Z M24.2,33 L37.5,27.6 L37.5,14 L41.3,14 L41.3,33 L24.2,33 Z M20,31 L14.9,18.5 L14.9,0.9 L20,13.4 L20,31 Z M7.3,6.8 L7.3,24.4 L18.7,31.7 L11.4,20.7 L11.4,9.4 L7.3,6.8 Z M18,33 L4.6,27.6 L4.6,14 L0.8,14 L0.8,33 L18,33 Z"/>
    <g fill="#ED1C24" transform="translate(45 2)">
      <ellipse cx="55" cy="3.1" rx="2.4" ry="2"/>
      <path d="M42.6,2.9 C42.2,2.9 41.7,2.8 41.5,2.8 C39.4,2.8 39,3.4 39,4.7 L39,6.6 L43.7,6.6 L43.7,5.7 C43.7,3.9 43.9,2.5 45.5,1.6 C47,0.7 49.2,0.6 50.8,0.6 C51.2,0.6 51.8,0.6 52.3,0.7 C51.7,1.2 51.2,2 51.2,3 C50.8,3 50.4,2.9 50.2,2.9 C48.2,2.9 48,3.7 48,4.8 L48,6.7 L57.1,6.7 L57.1,18.5 L52.7,18.5 L52.7,9.1 L48.1,9.1 L48.1,18.5 L43.7,18.5 L43.7,9.1 L39,9.1 L39,18.5 L34.6,18.5 L34.6,9.1 L32.9,9.1 L32.9,6.7 L34.6,6.7 L34.6,5.8 C34.6,4 34.8,2.6 36.4,1.7 C37.9,0.8 40.6,0.6 42.7,0.6 C43.4,0.6 44,0.6 44.5,0.7 C43.5,1.2 42.9,2 42.6,2.9 Z M24.4,6.2 C22.8,6.2 22,7.7 21.6,9 L21.6,6.5 L17.2,6.5 L17.2,18.3 L21.6,18.3 L21.6,12.6 C21.6,10.8 22.6,9.2 24,9.2 C24.4,9.2 24.9,9.3 25.3,9.4 L25.3,6.3 C25.2,6.3 24.7,6.2 24.4,6.2 Z M26.7,6.6 L31.1,6.6 L31.1,18.4 L26.7,18.4 L26.7,6.6 Z"/>
      <ellipse cx="28.9" cy="3.1" rx="2.4" ry="2"/>
      <path d="M68.6,15.9 C67.8,16.1 67,16.1 66.8,16.1 C64.7,16.1 64.7,14.6 64.7,13 L64.7,9 L68.6,9 L68.6,6.6 L64.7,6.6 L64.7,1.3 L60.3,1.3 L60.3,6.6 L58.6,6.6 L58.6,9 L60.3,9 L60.3,13.5 C60.3,15.3 60.5,16.7 62.1,17.6 C63.6,18.5 65.4,18.6 67,18.6 C67.3,18.6 67.9,18.6 68.6,18.5 L68.6,15.9 Z M81.3,7.7 C80.4,6.6 79.1,6.2 77.7,6.2 C76.6,6.2 75.3,6.4 74.5,7.3 L74.5,1.2 L70.1,1.2 L70.1,18.3 L74.5,18.3 L74.5,11 C74.5,9.8 74.8,8.9 76,8.9 C77.1,8.9 77.6,9.5 77.6,11.4 L77.6,18.4 L82,18.4 L82,11.4 C82,10.1 82.2,8.7 81.3,7.7 Z M15.2,4.8 C13.8,4.1 12,3.8 10.5,3.8 C6.8,3.8 4.8,5.9 4.8,9.1 C4.8,12.3 5.9,16 9.7,16 C10,16 10.4,16 10.7,15.9 L10.7,9.4 L15.2,9.4 L15.2,17.9 C13.4,18.4 11.6,18.7 9.7,18.7 C4.3,18.7 -1.42108547e-14,15.6 -1.42108547e-14,9.9 C-1.42108547e-14,4.1 4.2,0.9 10.7,0.9 C11.5,0.9 13.7,1.2 15.3,1.6 C15.3,1.6 15.2,4.8 15.2,4.8 Z"/>
    </g>
    <path fill="#000" d="M95.9,25.4 C95.9,26 95.7,26.4 95.4,26.7 C95,27 94.5,27.3 93.9,27.3 C93.6,27.3 93,27.4 92.2,27.4 L90.5,27.4 L90.5,23.5 L93,23.5 C93.6,23.5 94.1,23.5 94.3,23.6 C94.7,23.7 95,23.8 95.2,24 C95.7,24.4 95.9,24.9 95.9,25.4 Z M97.8,33 L96.1,29.4 C95.8,28.7 95.2,28.1 94.8,28.1 C95.4,28 96,27.7 96.2,27.4 C96.7,26.9 97,26.3 97,25.5 C97,24.6 96.7,23.9 96.1,23.4 C95.7,23.1 95.2,22.8 94.6,22.7 C94.3,22.7 93.7,22.6 92.9,22.6 L89.4,22.6 L89.4,33 L90.5,33 L90.5,28.4 L92.7,28.4 C93.6,28.4 94.2,28.5 94.5,28.8 C94.6,28.9 94.8,29.2 95,29.5 C95.1,29.6 95.2,29.9 95.4,30.3 L96.7,33 C96.7,33 97.8,33 97.8,33 Z M53,32.2 C52.3,32.9 51.1,33.2 49.9,33.2 C48.7,33.2 47.5,32.9 46.8,32.2 C46.3,31.7 46,31.1 45.9,30.3 C45.8,30 45.8,29.3 45.8,28.1 L45.8,22.6 L47,22.6 L47,29.1 C47,30.2 47.2,31 47.6,31.4 C48.1,31.9 49,32.1 49.9,32.1 C50.7,32.1 51.6,31.9 52.1,31.5 C52.6,31.1 52.8,30.4 52.8,29.5 L52.8,22.6 L54,22.6 L54,28.3 C54,29.3 54,30 53.9,30.4 C53.8,31.1 53.4,31.7 53,32.2 Z M63.7,33 L57.4,24.5 L57.4,33 L56.3,33 L56.3,22.6 L57.5,22.6 L63.9,31.3 L63.9,22.6 L65,22.6 L65,33 L63.7,33 Z M67.2,33 L67.2,22.6 L68.4,22.6 L68.4,33 L67.2,33 Z M75,33 L73.7,33 L69.7,22.6 L71,22.6 L74.4,31.7 L77.8,22.6 L79,22.6 L75,33 Z M80.3,33 L80.3,22.6 L87.4,22.6 L87.4,23.6 L81.4,23.6 L81.4,27 L86.8,27 L86.8,28 L81.4,28 L81.4,32 L87.7,32 L87.7,33 L80.3,33 Z M104.8,24.3 C104.7,24.2 104.3,23.8 103.6,23.6 C103.3,23.5 102.8,23.4 102.4,23.4 C101.6,23.4 101.1,23.5 100.6,23.9 C100.2,24.2 100,24.6 100,25.1 C100,25.7 100.5,26.3 101.4,26.7 C102,26.9 102.6,27.1 103.2,27.4 C103.9,27.7 104.4,28 104.8,28.3 C105.4,28.8 105.7,29.5 105.7,30.2 C105.7,31.1 105.4,31.8 104.8,32.4 C104.1,33 103.2,33.3 102,33.3 C100,33.3 98.8,32.3 98.6,32.1 L99.3,31.3 C99.4,31.4 100.6,32.3 102,32.3 C102.8,32.3 103.4,32.2 103.9,31.8 C104.3,31.4 104.6,30.9 104.6,30.3 C104.6,29.7 104.3,29.2 103.6,28.8 C103.3,28.6 102.6,28.3 101.8,28 C100.9,27.7 100.3,27.3 99.9,27.1 C99.3,26.6 99,26 99,25.3 C99,24.5 99.3,23.9 99.9,23.4 C100.5,22.9 101.3,22.6 102.3,22.6 C103,22.6 103.5,22.7 104,22.8 C105,23.1 105.5,23.7 105.6,23.8 L104.8,24.3 Z M107.6,33 L107.6,22.6 L108.8,22.6 L108.8,33 L107.6,33 Z M114.5,23.6 L114.5,33 L113.4,33 L113.4,23.6 L110.2,23.6 L110.2,22.6 L117.5,22.6 L117.5,23.6 L114.5,23.6 Z M123.2,28.8 L123.2,33 L122.1,33 L122.1,28.8 L118.1,22.6 L119.4,22.6 L122.7,27.6 L125.9,22.6 L127.2,22.6 L123.2,28.8 Z"/>
  </g>
</svg>
