<svg xmlns="http://www.w3.org/2000/svg" width="136" height="60" viewBox="0 0 136 60">
  <g fill="none" transform="translate(0 15)">
    <path fill="#000" d="M33.1,7.8 C33,8 32.7,8.2 32.7,8.2 C33.4,8.2 33.1,7.8 33.1,7.8 Z M34.9,8.4 C34.8,7.5 34.4,7.5 33.9,7.3 C33.5,7.1 32.6,6.9 32.3,6.7 C32,6.5 31.7,6.5 31.3,6.4 L29.6,6.3 C29.2,6.2 28.5,6.1 28.4,6.2 C28.3,6.3 28.3,6.8 27.2,7.1 L25.2,7.7 C25.2,7.4 25.2,6.5 26,5.2 C27,3.6 27.2,3.1 26.8,2.7 C26.3,2.2 24.5,3.2 24.5,3.2 C24.5,3.2 24.5,3 24.6,2.7 C25.1,2.4 27.2,1.2 28.1,1.7 C29.1,2.3 27.9,3.8 27.8,3.9 C27.7,4 26.3,6.1 26.1,6.9 L26.7,6.7 C26.7,6.7 28,4.7 28.4,4.2 C28.8,3.7 29.8,2.1 29,1.5 C28.2,0.8 26.9,1.1 24.7,2.5 C24.7,1.8 24.6,0.7 23.6,0.3 C21.9,-0.3 16.3,0.1 9.9,5.2 C9.9,5.2 7.4,6.9 5,9.4 C2.7,11.7 0.6,14.2 1.3,14.5 C2,14.9 3.9,12.8 4.2,12.5 C4.2,12.5 6.2,12.6 8.7,10.5 C8.7,10.5 10.1,11.4 12,10.9 C12,10.9 11.2,12.8 13.5,12.6 C13.5,12.6 13.3,13.5 14.1,13.4 C14.1,13.4 9.7,16 9.8,16.1 C9.9,16.2 12.1,15.2 13.1,14.7 C13.7,14.4 14.1,14.1 14.6,14 C15.1,13.9 16.9,13.8 19.5,12.4 C22.1,11 22.9,9.2 23,7.9 C23,7.9 22.3,8.5 22.2,8.5 C22,8.5 22.3,7.8 22.4,7.4 C22.5,7 23,5.3 22.5,5.5 C22,5.7 20.5,7.2 19.9,6.2 C19.5,5.5 20.6,4.2 20.6,4.2 C20.6,4.2 17.1,6.1 16.5,5.1 C15.9,4.2 16.9,3.5 16.9,3.5 C16.9,3.5 13.1,5 9.1,7.7 C5.2,10.4 2.8,13.6 2,13.7 C1.2,13.8 8.2,5.6 15.6,2.6 C19.6,1 22.3,0.8 23.4,1.3 C24,1.6 24,2.4 24,2.6 C24,2.6 23.4,7.9 24.4,9.3 C24.4,9.3 25.2,8.9 25.9,8.6 C25.9,8.6 25.6,8.6 25.7,8.3 C25.8,8.1 26,8.1 26.4,7.9 C26.9,7.7 27.8,7.7 28.2,7.3 C28.7,7 28.6,6.8 28.8,6.8 C28.8,6.8 29.7,7 30.2,6.9 C30.7,6.8 31.1,6.8 31.4,6.9 C31.7,7 32.7,7.5 33.3,7.6 C33.9,7.7 34,7.8 34.2,8.1 C34.4,8.5 34.4,8.9 34.4,8.9 C34.1,8.7 33.1,8.7 33.1,8.7 C33.3,8.7 33.6,8.8 33.2,8.9 C32.9,9 31.9,9.3 31.9,9.3 C32.2,8.9 32.7,8.7 32.8,8.7 L31.6,8.7 C31.9,8.5 32,8.1 32,7.9 C32.1,7.9 32.2,7.9 32.3,7.8 C32.6,7.7 32.3,7.6 31.6,7.6 C30.9,7.6 30.3,7.5 30.3,7.5 L30.1,7.8 C30.2,7.8 30.5,7.7 30.7,7.7 C30.7,7.8 30.8,8.1 31.1,8.2 C31.2,8.2 31.4,8.2 31.5,8.1 C31.4,8.3 31.1,8.7 30.5,8.6 C30.1,8.5 29.9,8.1 29.9,8.1 C29.9,8.1 29.5,9 29.1,9.2 C28.7,9.4 26.6,10.4 25.8,11.4 C25,12.4 24.6,12.8 24,13 C23.3,13.2 23.3,13.2 23.2,13.3 C23.1,13.4 22.4,14.5 20.2,15.7 C19.5,16.1 19.2,16.1 19.1,15.9 C18.9,15.7 19.2,15.4 19,15.4 C18.8,15.4 18.6,15.5 18.1,15.7 C17.4,16 16.9,16.3 16.4,16.3 C15.9,16.3 15.4,16.2 15.4,15.4 L15,15.5 C14.6,15.6 12.6,16.6 11.8,16.6 C11.4,16.6 12.1,15.7 12.1,15.7 C12.1,15.7 10.1,16.9 9.7,17.1 C9.3,17.3 8.1,17.8 8.5,16.6 C8.5,16.6 5.7,18.4 1.4,19.7 C0.3,20.1 0,19.9 0,20.2 C0,20.4 0.2,20.4 0.4,20.4 L1.7,20.4 C2.6,20.3 4.3,19.9 5.6,19.5 C7.6,18.9 8.1,18.2 9.5,18.6 C11.2,19.1 12.1,18.4 12.1,18.4 C12.1,18.4 12.4,18.9 13.4,18.8 C13.4,18.8 14.4,19.5 16.1,19.3 C16.1,19.3 16.8,19.7 17.8,19.6 C17.9,20 18,20.6 17.9,21.1 C17.8,22 17.9,22.2 18.4,21.8 C18.4,21.8 18.9,23.3 18.9,23.7 C18.9,24.1 18.9,24.3 19.1,24.3 L19.4,24.3 C19.4,24.3 19.5,24.6 20,24.8 C20,24.8 20,24.9 19.3,25.2 C18.9,25.3 18.6,25.7 18.7,25.9 L19.3,25.9 C19.3,25.9 19.7,25.5 20.3,25.8 C20.6,25.9 20.6,26.1 20.6,26.3 C20.6,26.4 20.6,26.4 20.5,26.5 C20.5,26.5 20.4,26.6 20.4,26.7 L20.2,27.1 C20.3,27.2 20.5,27.6 19.8,27.7 C19.8,27.7 19.8,27.8 20.1,27.8 C20.3,27.8 20.9,27.4 20.9,27.3 C20.9,27.3 21.2,27 21.3,26.6 L21.5,26.2 C21.6,26.3 21.8,26.7 21.6,27.1 C21.5,27.4 21.4,27.4 21.5,27.6 C21.5,27.6 21.6,27.7 21.7,27.7 C21.8,27.7 21.8,27.8 21.6,28 C21.3,28.3 22.1,27.9 22.2,27.7 C22.2,27.7 22.5,27.4 22.4,26.3 C22.4,26.3 22.4,26.2 22.5,26.3 C22.6,26.4 22.9,26.6 22.9,26.8 C22.9,27 22.8,27.2 22.9,27.3 C23,27.4 23,27.6 23,27.7 L22.7,27.9 C22.8,27.9 23.4,27.9 23.5,27.3 C23.6,26.6 23.3,25.9 22.5,25.4 C21.7,24.9 21.5,24.7 21.3,21.8 C21.3,20.8 21.5,19.6 21.8,18.8 C22.1,17.8 22.4,17.3 22.4,17.4 C22.4,17.6 22.2,18.3 22.1,18.7 C22.1,18.7 24.4,17.5 25.1,16.9 C25.8,16.3 26.1,15.9 26.2,15.8 C26.2,15.8 26.8,15.2 27,13.7 L27.9,12 C27.9,12 28.3,12.6 28.5,12.2 C28.8,11.8 29.4,10.9 29.5,10.8 C29.5,10.8 29.6,11.2 29.9,11.1 C30.1,11 30.2,10.5 30.7,10.2 C31.2,9.9 32.2,9.7 32.2,9.7 C32.2,9.7 34.3,9.2 34.4,9.3 C34.5,9.5 34.5,9.8 34.5,9.8 C34.5,9.8 35,9.2 34.9,8.4 Z M21.8,24.7 C21.8,24.7 21.9,24.9 22.1,25.1 C22.3,25.2 22.7,25.4 22.9,25.7 C23,25.8 23.1,25.9 23,25.9 C23,25.9 22.8,25.9 22.6,25.7 C22.4,25.5 22.2,25.6 22.2,25.7 L22.2,26.5 C22.2,26.8 22,26.8 22,26.5 C22,26.2 21.9,25.6 21.6,25.6 C21.4,25.6 21.3,25.8 21.2,26 C21.1,26.1 21,26.3 21.1,26.2 C21.1,26.2 21.1,25.9 21,25.6 C20.8,25.3 20.8,25.2 20.6,25.2 C20.4,25.2 20.4,25 20.7,24.9 C21.1,24.6 21.3,24.6 21.8,24.7 Z M9.5,19 C8.9,18.8 8.1,19 7.3,19.4 C6.5,19.8 2.5,21.1 0.2,21 C0.2,21 0.5,21.5 1.9,21.7 C1.9,21.7 1.8,22.5 3.2,22.2 C4.6,21.9 9.5,19.7 10.5,19.1 C10.4,19.1 10,19.2 9.5,19 Z M13,19.2 C13,19.2 12.3,19.3 11.8,18.8 L6.9,21.3 C6.9,21.3 4.7,22.3 5.1,22.6 C5.1,22.6 5.8,23 7.4,22.4 C9,21.8 13.3,19.4 13.3,19.4 L13,19.2 Z M15.1,19.7 C15.1,19.7 14.5,19.8 14,19.5 C14,19.5 11.4,21.2 10.9,21.4 C10.4,21.7 9.6,22 10.5,22.1 C11.4,22.2 12.3,22.1 13.8,20.9 C15,19.8 15.1,19.7 15.1,19.7 Z M23.5,18.4 C23,18.7 22.3,19 22.3,19 C22.3,19 22.1,19.9 22.1,21.6 C22.2,23.8 22.4,24.4 23.1,24.8 C24.1,25.4 24.3,26.3 24.3,26.6 C24.3,26.9 24.3,27 24.4,27.1 C24.5,27.2 24.5,27.3 24.4,27.5 L24.1,27.8 C24.2,27.8 24.6,27.8 24.7,27.4 C24.9,27 25.1,26.8 24.7,26 C24.7,26 25.1,25.9 25.2,26.7 C25.3,27.2 25.2,27.3 25.5,27.5 C25.5,27.5 25.6,27.7 25.3,27.9 C25.1,28.1 25.4,28 25.5,28 C25.7,27.9 26,27.5 25.9,27.2 C25.9,26.8 25.6,26.4 25.5,26.1 C25.5,26.1 25.8,26.2 25.9,26.4 C26,26.7 26,26.8 26.4,26.8 C26.4,26.8 26.6,26.9 26.6,27.2 C26.6,27.5 26.3,27.6 26.4,27.6 C26.5,27.6 27.2,27.3 26.7,26.5 C26.7,26.5 26.6,26.1 26.2,25.9 C25.8,25.7 25.3,25.1 24.4,24.9 C24.4,24.9 24,24.5 23.9,24.2 C23.9,24.2 24,24.1 24,24 C24,23.9 23.4,20.7 24.9,17.9 C25,17.5 24,18.1 23.5,18.4 Z M24.4,24.8 C24.9,24.8 26.1,25.6 26.1,25.7 C26.1,25.8 25.7,25.6 25.5,25.5 C25.4,25.5 25.2,25.4 25.3,25.6 C25.4,25.8 25.6,26.2 25.6,26.3 C25.6,26.4 25.5,26.3 25.5,26.3 C25.3,25.9 24.9,25.5 24.7,25.4 C24.5,25.3 24.4,25.4 24.4,25.5 C24.4,25.7 24.5,25.9 24.3,25.5 C24.1,25.1 23.7,24.7 23.6,24.6 C23.5,24.5 23.5,24.4 23.5,24.4 C23.6,24.3 23.7,24.3 23.8,24.3 C24.2,24.5 24.4,24.8 24.4,24.8 Z M13.9,26.9 L15,27.4 C14.9,28 15.5,28.5 15.5,28.5 C15.4,28.7 15.2,28.9 15.1,29 C15,29 15,29.1 15,29.1 L15.1,29.1 C16.2,28.7 16.3,27.7 16.2,27 C16.2,26.4 15.7,26 15.7,26 C15.7,26 17.5,26.2 18.1,26.1 C18.7,26 18.1,25.9 18.1,25.9 C16.8,25.9 15.3,25.4 14.5,25.6 C13.5,25.9 13.4,26.9 13.4,27.1 C13.3,28 13.8,28.6 14,28.7 L14.1,28.8 C14.1,28.8 14.1,28.7 14,28.7 C13.6,27.6 13.9,26.9 13.9,26.9 Z M32.4,28.3 C31.4,28.4 30.2,28.2 30.2,28.2 L30,28.3 C30.8,28.7 31.7,28.6 31.9,28.6 C32.1,28.6 31.9,28.7 31.9,28.7 C30.8,29.6 28.9,29.3 26.2,29.3 C23.5,29.3 20.6,30.1 19.6,30.2 C19.2,30.3 18.9,29.9 18.6,29.8 L18,29.5 C21.2,28.8 23.1,28.6 26.5,28.4 C28.6,28.3 30.3,28.6 30.6,27 C30.7,26.5 30.6,26.1 30.4,25.8 C30.1,25.2 29.5,25 29.3,24.9 L29,24.9 C27.9,25.3 26.8,25.4 26.6,25.4 C26.4,25.4 26.5,25.5 26.5,25.5 C27.7,25.6 28.6,25.3 28.9,25.2 L29.1,25.2 C29.3,25.3 29.8,25.5 30.1,26.2 C30.5,27.4 29.6,27.7 28.8,27.8 C28,27.8 24.5,28.2 23.2,28.3 C21.9,28.4 18.4,28.8 17.2,29 C16.2,29.1 15,29.2 15,29.2 C14.7,29.2 15.2,29.4 16.5,29.6 C17.8,29.8 18.2,30.3 18.7,30.7 C18.9,30.9 19.4,30.9 19.8,30.8 C20.3,30.7 21.5,30.4 22.2,30.3 C23.6,30 26.1,29.8 29.5,29.9 C31.4,30 32.1,29.4 32.7,28.6 C33.1,28.2 32.4,28.3 32.4,28.3 Z M41.2,25.1 L41.2,21.2 L42.7,21.2 L42.7,25 C42.7,26.1 43.3,26.7 44.2,26.7 C45.1,26.7 45.7,26.1 45.7,25.1 L45.7,21.2 L47.2,21.2 L47.2,25 C47.2,27.1 46,28.1 44.2,28.1 C42.3,28.1 41.2,27.1 41.2,25.1 Z M49.8,21.2 L51.2,21.2 L54.4,25.4 L54.4,21.2 L55.9,21.2 L55.9,28 L54.6,28 L51.3,23.7 L51.3,28 L49.8,28 C49.8,28 49.8,21.2 49.8,21.2 Z M58.7,21.2 L60.2,21.2 L60.2,28 L58.7,28 C58.7,28 58.7,21.2 58.7,21.2 Z M62.3,21.2 L64,21.2 L65.8,26 L67.6,21.2 L69.2,21.2 L66.5,28 L65.2,28 L62.3,21.2 Z M71.3,21.2 L76.4,21.2 L76.4,22.5 L72.8,22.5 L72.8,23.9 L76,23.9 L76,25.2 L72.8,25.2 L72.8,26.6 L76.5,26.6 L76.5,27.9 L71.3,27.9 L71.3,21.2 Z M78.8,21.2 L81.9,21.2 C82.8,21.2 83.4,21.4 83.9,21.9 C84.3,22.3 84.5,22.8 84.5,23.4 C84.5,24.5 83.9,25.2 83,25.5 L84.7,27.9 L83,27.9 L81.6,25.7 L80.4,25.7 L80.4,27.9 L78.9,27.9 L78.8,21.2 Z M81.8,24.5 C82.5,24.5 82.9,24.1 82.9,23.5 C82.9,22.9 82.5,22.5 81.7,22.5 L80.2,22.5 L80.2,24.4 L81.8,24.5 Z M86.5,27 L87.4,25.9 C88,26.4 88.6,26.7 89.4,26.7 C90,26.7 90.4,26.5 90.4,26.1 C90.4,25.7 90.2,25.5 89,25.2 C87.6,24.8 86.8,24.5 86.8,23.1 C86.8,21.9 87.8,21.1 89.2,21.1 C90.2,21.1 91,21.4 91.7,22 L90.9,23.1 C90.3,22.7 89.7,22.4 89.1,22.4 C88.5,22.4 88.2,22.7 88.2,23 C88.2,23.4 88.5,23.6 89.7,23.9 C91.1,24.3 91.8,24.8 91.8,25.9 C91.8,27.2 90.8,28 89.3,28 C88.3,28.1 87.3,27.7 86.5,27 Z M94.2,21.2 L95.7,21.2 L95.7,28 L94.2,28 L94.2,21.2 Z M100.1,22.6 L98,22.6 L98,21.2 L103.6,21.2 L103.6,22.6 L101.5,22.6 L101.5,28 L100,28 L100.1,22.6 Z M107.8,25.3 L105.2,21.2 L106.9,21.2 L108.5,23.9 L110.1,21.2 L111.8,21.2 L109.2,25.3 L109.2,28 L107.7,28 L107.8,25.3 Z"/>
    <g fill="#ED1C24" transform="translate(41 2)">
      <path d="M.2 1L2.9 1 2.9 11 9.6 11 8.6 13.5.2 13.5.2 1zM19.1 8.3L17.4 4.3 15.7 8.3 19.1 8.3zM16.2 1L18.7 1 24 13.5 21.1 13.5 20 10.7 14.7 10.7 13.6 13.5 10.8 13.5 16.2 1zM33.2 3.6L29.2 3.6 29.2 1 39.8 1 39.8 3.6 35.9 3.6 35.9 13.5 33.2 13.5 33.2 3.6zM48.4 7.1C49.1 7.1 49.6 6.9 50 6.6 50.4 6.3 50.5 5.9 50.5 5.3 50.5 4.7 50.3 4.3 49.9 4 49.5 3.7 49 3.6 48.3 3.6L45.6 3.6 45.6 7.2 48.4 7.1zM42.9 1L48.6 1C50.2 1 51.4 1.4 52.2 2.3 52.9 3 53.3 4 53.3 5.1 53.3 6.1 53.1 6.9 52.6 7.6 52.1 8.2 51.5 8.7 50.7 9L53.7 13.5 50.5 13.5 47.8 9.5 45.7 9.5 45.7 13.5 43 13.5 42.9 1zM62.4 11.2C62.9 11.2 63.4 11.1 63.9 10.9 64.4 10.7 64.8 10.4 65.1 10.1 65.4 9.7 65.7 9.3 65.9 8.9 66.1 8.4 66.2 7.9 66.2 7.4 66.2 6.9 66.1 6.4 65.9 5.9 65.7 5.4 65.5 5 65.1 4.7 64.8 4.3 64.4 4.1 63.9 3.9 63.4 3.7 62.9 3.6 62.4 3.6 61.8 3.6 61.3 3.7 60.9 3.9 60.4 4.1 60.1 4.4 59.7 4.7 59.4 5.1 59.1 5.5 58.9 5.9 58.7 6.4 58.6 6.9 58.6 7.4 58.6 7.9 58.7 8.4 58.9 8.9 59.1 9.4 59.3 9.8 59.7 10.1 60 10.5 60.4 10.7 60.9 11 61.3 11.1 61.8 11.2 62.4 11.2zM62.3 13.7C61.3 13.7 60.5 13.5 59.6 13.2 58.8 12.9 58.1 12.4 57.5 11.8 56.9 11.2 56.5 10.5 56.1 9.8 55.8 9 55.6 8.2 55.6 7.3 55.6 6.4 55.8 5.6 56.1 4.8 56.4 4 56.9 3.3 57.5 2.8 58.1 2.2 58.8 1.7 59.6 1.4 60.4 1.1 61.3.9 62.3.9 63.3.9 64.1 1.1 65 1.4 65.8 1.7 66.5 2.2 67.1 2.8 67.7 3.4 68.1 4.1 68.5 4.8 68.8 5.6 69 6.4 69 7.3 69 8.2 68.8 9 68.5 9.8 68.2 10.6 67.7 11.3 67.1 11.9 66.5 12.5 65.8 12.9 65 13.3 64.2 13.5 63.3 13.7 62.3 13.7zM77.9 11.1C78.5 11.1 79 11 79.3 10.8 79.6 10.6 79.8 10.2 79.8 9.8 79.8 9.4 79.6 9.1 79.3 8.8 79 8.6 78.5 8.4 77.8 8.4L74.6 8.4 74.6 11.1C74.6 11.1 77.9 11.1 77.9 11.1zM77.2 6.1C77.8 6.1 78.3 6 78.6 5.8 79 5.6 79.1 5.3 79.1 4.8 79.1 4.4 78.9 4.1 78.6 3.9 78.3 3.7 77.8 3.6 77.3 3.6L74.6 3.6 74.6 6.2 77.2 6.1zM72 1L77.8 1C79.2 1 80.3 1.4 81.1 2.1 81.7 2.7 82 3.4 82 4.2 82 4.6 82 4.9 81.9 5.1 81.8 5.4 81.7 5.6 81.5 5.8 81.4 6 81.2 6.2 81 6.4 80.8 6.6 80.6 6.7 80.4 6.8 81.1 7.1 81.7 7.4 82.1 7.9 82.5 8.4 82.7 9 82.7 9.9 82.7 10.5 82.6 11 82.4 11.4 82.2 11.8 81.9 12.2 81.5 12.5 81.1 12.8 80.6 13 80 13.1 79.4 13.2 78.8 13.3 78.1 13.3L72 13.3C72 13.3 72 1 72 1zM85.5 1L94.9 1 94.9 3.5 88.2 3.5 88.2 6 93.1 6 93.1 8.4 88.2 8.4 88.2 11.1 95 11.1 95 13.5 85.5 13.5 85.5 1z"/>
    </g>
  </g>
</svg>
