<?xml version="1.0" encoding="utf-8"?>
<!-- Generator: Adobe Illustrator 21.0.0, SVG Export Plug-In . SVG Version: 6.00 Build 0)  -->
<svg version="1.1" id="uwa" xmlns="http://www.w3.org/2000/svg" xmlns:xlink="http://www.w3.org/1999/xlink" x="0px" y="0px"
	 viewBox="0 0 145 55.6" style="enable-background:new 0 0 145 55.6;" xml:space="preserve">
<style type="text/css">
	.st0{fill:#ED1C24;}
</style>
<path d="M38.1,19.8c-0.1,0.2-0.4,0.4-0.4,0.4C38.4,20.2,38.1,19.8,38.1,19.8z M39.9,20.4c-0.1-0.9-0.5-0.9-1-1.1
	c-0.4-0.2-1.3-0.4-1.6-0.6s-0.6-0.2-1-0.3l-1.7-0.1c-0.4-0.1-1.1-0.2-1.2-0.1c-0.1,0.1-0.1,0.6-1.2,0.9l-2,0.6c0-0.3,0-1.2,0.8-2.5
	c1-1.6,1.2-2.1,0.8-2.5c-0.5-0.5-2.3,0.5-2.3,0.5s0-0.2,0.1-0.5c0.5-0.3,2.6-1.5,3.5-1c1,0.6-0.2,2.1-0.3,2.2s-1.5,2.2-1.7,3
	l0.6-0.2c0,0,1.3-2,1.7-2.5s1.4-2.1,0.6-2.7c-0.8-0.7-2.1-0.4-4.3,1c0-0.7-0.1-1.8-1.1-2.2c-1.7-0.6-7.3-0.2-13.7,4.9
	c0,0-2.5,1.7-4.9,4.2c-2.3,2.3-4.4,4.8-3.7,5.1c0.7,0.4,2.6-1.7,2.9-2c0,0,2,0.1,4.5-2c0,0,1.4,0.9,3.3,0.4c0,0-0.8,1.9,1.5,1.7
	c0,0-0.2,0.9,0.6,0.8c0,0-4.4,2.6-4.3,2.7s2.3-0.9,3.3-1.4c0.6-0.3,1-0.6,1.5-0.7s2.3-0.2,4.9-1.6s3.4-3.2,3.5-4.5
	c0,0-0.7,0.6-0.8,0.6c-0.2,0,0.1-0.7,0.2-1.1s0.6-2.1,0.1-1.9s-2,1.7-2.6,0.7c-0.4-0.7,0.7-2,0.7-2s-3.5,1.9-4.1,0.9
	c-0.6-0.9,0.4-1.6,0.4-1.6s-3.8,1.5-7.8,4.2c-3.9,2.7-6.3,5.9-7.1,6s6.2-8.1,13.6-11.1c4-1.6,6.7-1.8,7.8-1.3
	c0.6,0.3,0.6,1.1,0.6,1.3c0,0-0.6,5.3,0.4,6.7c0,0,0.8-0.4,1.5-0.7c0,0-0.3,0-0.2-0.3c0.1-0.2,0.3-0.2,0.7-0.4
	c0.5-0.2,1.4-0.2,1.8-0.6c0.5-0.3,0.4-0.5,0.6-0.5c0,0,0.9,0.2,1.4,0.1s0.9-0.1,1.2,0s1.3,0.6,1.9,0.7c0.6,0.1,0.7,0.2,0.9,0.5
	c0.2,0.4,0.2,0.8,0.2,0.8c-0.3-0.2-1.3-0.2-1.3-0.2c0.2,0,0.5,0.1,0.1,0.2c-0.3,0.1-1.3,0.4-1.3,0.4c0.3-0.4,0.8-0.6,0.9-0.6h-1.2
	c0.3-0.2,0.4-0.6,0.4-0.8c0.1,0,0.2,0,0.3-0.1c0.3-0.1,0-0.2-0.7-0.2s-1.3-0.1-1.3-0.1l-0.2,0.3c0.1,0,0.4-0.1,0.6-0.1
	c0,0.1,0.1,0.4,0.4,0.5c0.1,0,0.3,0,0.4-0.1c-0.1,0.2-0.4,0.6-1,0.5c-0.4-0.1-0.6-0.5-0.6-0.5s-0.4,0.9-0.8,1.1s-2.5,1.2-3.3,2.2
	S29.6,24.8,29,25c-0.7,0.2-0.7,0.2-0.8,0.3c-0.1,0.1-0.8,1.2-3,2.4c-0.7,0.4-1,0.4-1.1,0.2c-0.2-0.2,0.1-0.5-0.1-0.5
	s-0.4,0.1-0.9,0.3c-0.7,0.3-1.2,0.6-1.7,0.6s-1-0.1-1-0.9L20,27.5c-0.4,0.1-2.4,1.1-3.2,1.1c-0.4,0,0.3-0.9,0.3-0.9s-2,1.2-2.4,1.4
	c-0.4,0.2-1.6,0.7-1.2-0.5c0,0-2.8,1.8-7.1,3.1C5.3,32.1,5,31.9,5,32.2c0,0.2,0.2,0.2,0.4,0.2h1.3c0.9-0.1,2.6-0.5,3.9-0.9
	c2-0.6,2.5-1.3,3.9-0.9c1.7,0.5,2.6-0.2,2.6-0.2s0.3,0.5,1.3,0.4c0,0,1,0.7,2.7,0.5c0,0,0.7,0.4,1.7,0.3c0.1,0.4,0.2,1,0.1,1.5
	c-0.1,0.9,0,1.1,0.5,0.7c0,0,0.5,1.5,0.5,1.9s0,0.6,0.2,0.6h0.3c0,0,0.1,0.3,0.6,0.5c0,0,0,0.1-0.7,0.4c-0.4,0.1-0.7,0.5-0.6,0.7
	h0.6c0,0,0.4-0.4,1-0.1c0.3,0.1,0.3,0.3,0.3,0.5c0,0.1,0,0.1-0.1,0.2c0,0-0.1,0.1-0.1,0.2l-0.2,0.4c0.1,0.1,0.3,0.5-0.4,0.6
	c0,0,0,0.1,0.3,0.1c0.2,0,0.8-0.4,0.8-0.5c0,0,0.3-0.3,0.4-0.7l0.2-0.4c0.1,0.1,0.3,0.5,0.1,0.9c-0.1,0.3-0.2,0.3-0.1,0.5
	c0,0,0.1,0.1,0.2,0.1s0.1,0.1-0.1,0.3c-0.3,0.3,0.5-0.1,0.6-0.3c0,0,0.3-0.3,0.2-1.4c0,0,0-0.1,0.1,0s0.4,0.3,0.4,0.5
	s-0.1,0.4,0,0.5s0.1,0.3,0.1,0.4l-0.3,0.2c0.1,0,0.7,0,0.8-0.6c0.1-0.7-0.2-1.4-1-1.9s-1-0.7-1.2-3.6c0-1,0.2-2.2,0.5-3
	c0.3-1,0.6-1.5,0.6-1.4c0,0.2-0.2,0.9-0.3,1.3c0,0,2.3-1.2,3-1.8c0.7-0.6,1-1,1.1-1.1c0,0,0.6-0.6,0.8-2.1l0.9-1.7
	c0,0,0.4,0.6,0.6,0.2c0.3-0.4,0.9-1.3,1-1.4c0,0,0.1,0.4,0.4,0.3c0.2-0.1,0.3-0.6,0.8-0.9s1.5-0.5,1.5-0.5s2.1-0.5,2.2-0.4
	c0.1,0.2,0.1,0.5,0.1,0.5S40,21.2,39.9,20.4L39.9,20.4z M26.8,36.7c0,0,0.1,0.2,0.3,0.4c0.2,0.1,0.6,0.3,0.8,0.6
	c0.1,0.1,0.2,0.2,0.1,0.2c0,0-0.2,0-0.4-0.2s-0.4-0.1-0.4,0v0.8c0,0.3-0.2,0.3-0.2,0s-0.1-0.9-0.4-0.9c-0.2,0-0.3,0.2-0.4,0.4
	c-0.1,0.1-0.2,0.3-0.1,0.2c0,0,0-0.3-0.1-0.6c-0.2-0.3-0.2-0.4-0.4-0.4s-0.2-0.2,0.1-0.3C26.1,36.6,26.3,36.6,26.8,36.7z M14.5,31
	c-0.6-0.2-1.4,0-2.2,0.4S7.5,33.1,5.2,33c0,0,0.3,0.5,1.7,0.7c0,0-0.1,0.8,1.3,0.5s6.3-2.5,7.3-3.1C15.4,31.1,15,31.2,14.5,31z
	 M18,31.2c0,0-0.7,0.1-1.2-0.4l-4.9,2.5c0,0-2.2,1-1.8,1.3c0,0,0.7,0.4,2.3-0.2s5.9-3,5.9-3L18,31.2z M20.1,31.7
	c0,0-0.6,0.1-1.1-0.2c0,0-2.6,1.7-3.1,1.9c-0.5,0.3-1.3,0.6-0.4,0.7c0.9,0.1,1.8,0,3.3-1.2C20,31.8,20.1,31.7,20.1,31.7z M28.5,30.4
	C28,30.7,27.3,31,27.3,31s-0.2,0.9-0.2,2.6c0.1,2.2,0.3,2.8,1,3.2c1,0.6,1.2,1.5,1.2,1.8s0,0.4,0.1,0.5s0.1,0.2,0,0.4l-0.3,0.3
	c0.1,0,0.5,0,0.6-0.4c0.2-0.4,0.4-0.6,0-1.4c0,0,0.4-0.1,0.5,0.7c0.1,0.5,0,0.6,0.3,0.8c0,0,0.1,0.2-0.2,0.4
	c-0.2,0.2,0.1,0.1,0.2,0.1c0.2-0.1,0.5-0.5,0.4-0.8c0-0.4-0.3-0.8-0.4-1.1c0,0,0.3,0.1,0.4,0.3c0.1,0.3,0.1,0.4,0.5,0.4
	c0,0,0.2,0.1,0.2,0.4s-0.3,0.4-0.2,0.4s0.8-0.3,0.3-1.1c0,0-0.1-0.4-0.5-0.6s-0.9-0.8-1.8-1c0,0-0.4-0.4-0.5-0.7
	c0,0,0.1-0.1,0.1-0.2s-0.6-3.3,0.9-6.1C30,29.5,29,30.1,28.5,30.4z M29.4,36.8c0.5,0,1.7,0.8,1.7,0.9s-0.4-0.1-0.6-0.2
	c-0.1,0-0.3-0.1-0.2,0.1s0.3,0.6,0.3,0.7s-0.1,0-0.1,0c-0.2-0.4-0.6-0.8-0.8-0.9s-0.3,0-0.3,0.1c0,0.2,0.1,0.4-0.1,0
	s-0.6-0.8-0.7-0.9c-0.1-0.1-0.1-0.2-0.1-0.2c0.1-0.1,0.2-0.1,0.3-0.1C29.2,36.5,29.4,36.8,29.4,36.8z M18.9,38.9l1.1,0.5
	c-0.1,0.6,0.5,1.1,0.5,1.1c-0.1,0.2-0.3,0.4-0.4,0.5C20,41,20,41.1,20,41.1h0.1c1.1-0.4,1.2-1.4,1.1-2.1c0-0.6-0.5-1-0.5-1
	s1.8,0.2,2.4,0.1c0.6-0.1,0-0.2,0-0.2c-1.3,0-2.8-0.5-3.6-0.3c-1,0.3-1.1,1.3-1.1,1.5c-0.1,0.9,0.4,1.5,0.6,1.6l0.1,0.1
	c0,0,0-0.1-0.1-0.1C18.6,39.6,18.9,38.9,18.9,38.9z M37.4,40.3c-1,0.1-2.2-0.1-2.2-0.1L35,40.3c0.8,0.4,1.7,0.3,1.9,0.3s0,0.1,0,0.1
	c-1.1,0.9-3,0.6-5.7,0.6s-5.6,0.8-6.6,0.9c-0.4,0.1-0.7-0.3-1-0.4L23,41.5c3.2-0.7,5.1-0.9,8.5-1.1c2.1-0.1,3.8,0.2,4.1-1.4
	c0.1-0.5,0-0.9-0.2-1.2c-0.3-0.6-0.9-0.8-1.1-0.9H34c-1.1,0.4-2.2,0.5-2.4,0.5s-0.1,0.1-0.1,0.1c1.2,0.1,2.1-0.2,2.4-0.3h0.2
	c0.2,0.1,0.7,0.3,1,1c0.4,1.2-0.5,1.5-1.3,1.6c-0.8,0-4.3,0.4-5.6,0.5s-4.8,0.5-6,0.7c-1,0.1-2.2,0.2-2.2,0.2
	c-0.3,0,0.2,0.2,1.5,0.4s1.7,0.7,2.2,1.1c0.2,0.2,0.7,0.2,1.1,0.1c0.5-0.1,1.7-0.4,2.4-0.5c1.4-0.3,3.9-0.5,7.3-0.4
	c1.9,0.1,2.6-0.5,3.2-1.3C38.1,40.2,37.4,40.3,37.4,40.3z M46.2,37.1v-3.9h1.5V37c0,1.1,0.6,1.7,1.5,1.7s1.5-0.6,1.5-1.6v-3.9h1.5
	V37c0,2.1-1.2,3.1-3,3.1C47.3,40.1,46.2,39.1,46.2,37.1z M54.8,33.2h1.4l3.2,4.2v-4.2h1.5V40h-1.3l-3.3-4.3V40h-1.5
	C54.8,40,54.8,33.2,54.8,33.2z M63.7,33.2h1.5V40h-1.5C63.7,40,63.7,33.2,63.7,33.2z M67.3,33.2H69l1.8,4.8l1.8-4.8h1.6L71.5,40
	h-1.3L67.3,33.2z M76.3,33.2h5.1v1.3h-3.6v1.4H81v1.3h-3.2v1.4h3.7v1.3h-5.2V33.2z M83.8,33.2h3.1c0.9,0,1.5,0.2,2,0.7
	c0.4,0.4,0.6,0.9,0.6,1.5c0,1.1-0.6,1.8-1.5,2.1l1.7,2.4H88l-1.4-2.2h-1.2v2.2h-1.5L83.8,33.2L83.8,33.2z M86.8,36.5
	c0.7,0,1.1-0.4,1.1-1s-0.4-1-1.2-1h-1.5v1.9L86.8,36.5L86.8,36.5L86.8,36.5z M91.5,39l0.9-1.1c0.6,0.5,1.2,0.8,2,0.8
	c0.6,0,1-0.2,1-0.6s-0.2-0.6-1.4-0.9c-1.4-0.4-2.2-0.7-2.2-2.1c0-1.2,1-2,2.4-2c1,0,1.8,0.3,2.5,0.9l-0.8,1.1
	c-0.6-0.4-1.2-0.7-1.8-0.7s-0.9,0.3-0.9,0.6c0,0.4,0.3,0.6,1.5,0.9c1.4,0.4,2.1,0.9,2.1,2c0,1.3-1,2.1-2.5,2.1
	C93.3,40.1,92.3,39.7,91.5,39z M99.2,33.2h1.5V40h-1.5V33.2z M105.1,34.6H103v-1.4h5.6v1.4h-2.1V40H105L105.1,34.6L105.1,34.6z
	 M112.8,37.3l-2.6-4.1h1.7l1.6,2.7l1.6-2.7h1.7l-2.6,4.1V40h-1.5L112.8,37.3L112.8,37.3z"/>
<g>
	<path class="st0" d="M46.2,15h2.7v10h6.7l-1,2.5h-8.4L46.2,15L46.2,15z M65.1,22.3l-1.7-4l-1.7,4H65.1z M62.2,15h2.5L70,27.5h-2.9
		L66,24.7h-5.3l-1.1,2.8h-2.8L62.2,15z M79.2,17.6h-4V15h10.6v2.6h-3.9v9.9h-2.7V17.6L79.2,17.6z M94.4,21.1c0.7,0,1.2-0.2,1.6-0.5
		s0.5-0.7,0.5-1.3s-0.2-1-0.6-1.3s-0.9-0.4-1.6-0.4h-2.7v3.6L94.4,21.1L94.4,21.1z M88.9,15h5.7c1.6,0,2.8,0.4,3.6,1.3
		c0.7,0.7,1.1,1.7,1.1,2.8c0,1-0.2,1.8-0.7,2.5c-0.5,0.6-1.1,1.1-1.9,1.4l3,4.5h-3.2l-2.7-4h-2.1v4H89L88.9,15L88.9,15L88.9,15z
		 M108.4,25.2c0.5,0,1-0.1,1.5-0.3c0.5-0.2,0.9-0.5,1.2-0.8c0.3-0.4,0.6-0.8,0.8-1.2c0.2-0.5,0.3-1,0.3-1.5s-0.1-1-0.3-1.5
		s-0.4-0.9-0.8-1.2c-0.3-0.4-0.7-0.6-1.2-0.8c-0.5-0.2-1-0.3-1.5-0.3c-0.6,0-1.1,0.1-1.5,0.3c-0.5,0.2-0.8,0.5-1.2,0.8
		c-0.3,0.4-0.6,0.8-0.8,1.2c-0.2,0.5-0.3,1-0.3,1.5s0.1,1,0.3,1.5s0.4,0.9,0.8,1.2c0.3,0.4,0.7,0.6,1.2,0.9
		C107.3,25.1,107.8,25.2,108.4,25.2 M108.3,27.7c-1,0-1.8-0.2-2.7-0.5c-0.8-0.3-1.5-0.8-2.1-1.4s-1-1.3-1.4-2
		c-0.3-0.8-0.5-1.6-0.5-2.5s0.2-1.7,0.5-2.5s0.8-1.5,1.4-2c0.6-0.6,1.3-1.1,2.1-1.4s1.7-0.5,2.7-0.5s1.8,0.2,2.7,0.5
		c0.8,0.3,1.5,0.8,2.1,1.4s1,1.3,1.4,2c0.3,0.8,0.5,1.6,0.5,2.5s-0.2,1.7-0.5,2.5s-0.8,1.5-1.4,2.1s-1.3,1-2.1,1.4
		C110.2,27.5,109.3,27.7,108.3,27.7"/>
	<path class="st0" d="M123.9,25.1c0.6,0,1.1-0.1,1.4-0.3c0.3-0.2,0.5-0.6,0.5-1s-0.2-0.7-0.5-1c-0.3-0.2-0.8-0.4-1.5-0.4h-3.2v2.7
		C120.6,25.1,123.9,25.1,123.9,25.1z M123.2,20.1c0.6,0,1.1-0.1,1.4-0.3c0.4-0.2,0.5-0.5,0.5-1c0-0.4-0.2-0.7-0.5-0.9
		c-0.3-0.2-0.8-0.3-1.3-0.3h-2.7v2.6L123.2,20.1L123.2,20.1z M118,15h5.8c1.4,0,2.5,0.4,3.3,1.1c0.6,0.6,0.9,1.3,0.9,2.1
		c0,0.4,0,0.7-0.1,0.9c-0.1,0.3-0.2,0.5-0.4,0.7c-0.1,0.2-0.3,0.4-0.5,0.6s-0.4,0.3-0.6,0.4c0.7,0.3,1.3,0.6,1.7,1.1
		c0.4,0.5,0.6,1.1,0.6,2c0,0.6-0.1,1.1-0.3,1.5s-0.5,0.8-0.9,1.1c-0.4,0.3-0.9,0.5-1.5,0.6s-1.2,0.2-1.9,0.2H118
		C118,27.3,118,15,118,15z M131.5,15h9.4v2.5h-6.7V20h4.9v2.4h-4.9v2.7h6.8v2.4h-9.5V15L131.5,15z"/>
</g>
</svg>
