<svg xmlns="http://www.w3.org/2000/svg" width="138" height="60" viewBox="0 0 138 60">
  <g fill="none" transform="translate(0 9)">
    <g fill="#231F20" transform="translate(47 4)">
      <path d="M5 8.9L3.1 5.4C2.5 4.3 2.2 3.5 2.2 3.5L2.1 3.5C2.1 3.5 2.2 4.2 2.2 5.5L2.2 11.6.1 11.6.1.3 2.3.3 4.8 5.1C5.3 6 5.5 6.6 5.5 6.6L5.6 6.6C5.6 6.6 5.7 6.1 6.3 5.1L8.8.3 11 .3 11 11.6 8.9 11.6 8.9 5.5C8.9 4.2 9 3.5 9 3.5 9 3.5 8.8 4.3 8.2 5.4L6.3 8.9 5 8.9zM20 8.8L15.5 8.8 14.5 11.6 12.4 11.6 16.5.3 19.1.3 23.2 11.6 21 11.6 20 8.8zM16.1 7.1L19.4 7.1 18.7 5C18.1 3.2 17.8 1.9 17.8 1.9L17.7 1.9C17.7 1.9 17.4 3.2 16.8 4.9L16.1 7.1zM33.5 9.4C32.5 11 31.2 11.8 28.8 11.8 25.8 11.8 23.8 9.7 23.8 5.9 23.8 2.1 25.9-1.77635684e-15 29.2-1.77635684e-15 31.4-1.77635684e-15 32.8 1 33.6 2.8L31.7 3.8C31.3 2.5 30.4 1.9 29.2 1.9 27.2 1.9 26.1 3.5 26.1 6 26.1 8.5 27.1 10 29.2 10 30.5 10 31.3 9.5 32 8.3L33.5 9.4zM43 14.6C40.4 14.6 39 13.4 38.4 11.8 35.9 11.3 34.4 9.3 34.4 6 34.4 2.2 36.4.1 39.6.1 42.8.1 44.8 2.2 44.8 6 44.8 9.4 43.2 11.5 40.5 11.8 41.3 12.6 42.4 12.9 43.6 12.8L43 14.6zM36.5 6C36.5 8.5 37.5 10.1 39.5 10.1 41.5 10.1 42.6 8.5 42.6 6 42.6 3.4 41.6 1.9 39.5 1.9 37.6 1.9 36.5 3.4 36.5 6zM55.4.3L55.4 7.9C55.4 10.9 53.2 11.9 50.9 11.9 48.6 11.9 46.4 10.9 46.4 7.9L46.4.3 48.5.3 48.5 7.3C48.5 9.2 49.3 10.1 50.9 10.1 52.6 10.1 53.3 9.2 53.3 7.3L53.3.2 55.4.3zM63.8 8.8L59.3 8.8 58.3 11.6 56.2 11.6 60.3.3 62.9.3 67 11.6 64.8 11.6 63.8 8.8zM59.9 7.1L63.2 7.1 62.5 5C61.9 3.2 61.6 1.9 61.6 1.9L61.5 1.9C61.5 1.9 61.2 3.2 60.6 4.9L59.9 7.1zM74.8 11.6C74.5 11.3 74.4 11 74.3 10.5L73.9 8.6C73.6 7.4 73 7.2 72 7.2L70.6 7.2 70.6 11.6 68.5 11.6 68.5.3 72.6.3C75.2.3 76.6 1.3 76.6 3.6 76.6 5.4 75.5 6.3 74 6.4 75.1 6.6 75.6 7 75.9 8.2L76.5 10.4C76.6 10.8 76.8 11.2 77.1 11.6L74.8 11.6zM70.5 5.5L72.4 5.5C73.7 5.5 74.3 5 74.3 3.7 74.3 2.6 73.7 2 72.4 2L70.5 2 70.5 5.5z"/>
      <polygon points="80.9 .3 80.9 11.6 78.8 11.6 78.8 .3"/>
      <polygon points="90.8 11.6 83.6 11.6 83.6 .3 90.8 .3 90.8 2.1 85.7 2.1 85.7 5.1 90.2 5.1 90.2 6.9 85.7 6.9 85.7 9.9 90.8 9.9"/>
    </g>
    <polygon fill="#E52823" points="21.7 22.8 25 24.7 25.2 24.7 25.2 24.9 36.3 31.3 36.3 10.7 21.7 19.2"/>
    <polygon fill="#6D0020" points="12 24.7 15.3 22.8 15.3 19.2 .7 10.7 .7 31.3 11.8 24.9 11.8 24.7"/>
    <polygon fill="#E52823" points="18.5 .5 36.3 10.7 36.3 .5"/>
    <polygon fill="#6D0020" points=".7 .5 .7 10.7 18.5 .5"/>
    <g fill="#6D0020" transform="translate(21 22)">
      <path d="M4.8,5.6 L4.8,6.9 L4.2,6.9 C3.6,7.2 3.3,7.8 3.1,8.7 L2.5,8.7 L2.6,10.1 L2.9,16.5 L15.3,9.3 L4.2,2.9 L3.6,5.7 L4.8,5.6 Z"/>
      <polygon points="4 2.7 .7 .8 .7 2.7"/>
    </g>
    <g fill="#E52823" transform="translate(0 22)">
      <path d="M12.4,5.6 L11.8,2.8 L0.7,9.2 L13.1,16.4 L13.5,8.6 L12.9,8.6 C12.7,7.7 12.4,7.2 11.8,6.8 L11.2,6.8 L11.2,5.5 L12.4,5.6 Z"/>
      <polygon points="15.3 .8 12 2.7 15.3 2.7"/>
    </g>
    <path fill="#FFF" d="M18.9 13.1C19 13.1 19.1 13.1 19.1 13.1 19.3 12.9 19.4 12.7 19.4 12.4 19.4 11.9 19 11.5 18.5 11.5 18.4 11.5 18.3 11.5 18.3 11.5 18.1 11.7 18 11.9 18 12.2 18 12.7 18.4 13.1 18.9 13.1zM19.9 30.9C17.3 30.9 16.6 32.5 16.6 32.5L16.4 32.8 16.1 40.2 18.4 41.5 23.8 38.4 23.5 32C23.5 32 22.9 30.9 19.9 30.9z"/>
    <path fill="#B3B3B3" d="M11.2,27.6 L11.2,28.9 L11.8,28.9 C12.4,29.2 12.7,29.8 12.9,30.7 L13.5,30.7 L13.1,38.5 L16.2,40.3 L16.5,32.9 L16.7,32.6 C16.7,32.6 17.4,31 20,31 C22.9,31 23.6,32 23.6,32.1 L23.5,30.7 L24.1,30.7 C24.3,29.8 24.6,29.3 25.2,28.9 L25.8,28.9 L25.8,27.6 L11.2,27.6 Z"/>
    <path fill="#B3B3B3" d="M19.1,36.2 C19.1,36 18.8,35.6 18.5,35.6 C18.2,35.6 17.9,36 17.9,36.2 L17.9,37.8 L19.1,37.8 L19.1,36.2 Z"/>
    <g fill="#6D0020" transform="translate(16 18)">
      <polygon points=".2 0 .2 .9 2.5 2.3 4.9 .9 4.9 0"/>
      <polygon points="2.5 3.7 .2 5.1 .2 6 4.9 6 4.9 5.1"/>
    </g>
    <path fill="#6D0020" d="M21.7,17.3 L22,17.3 C22.2,17.3 22.4,17.5 22.4,17.7 C22.4,17.9 22.2,18.1 22,18.1 L21.7,18.1 L21.7,19.2 L36.3,10.8 L18.5,0.5 L18.5,11.5 C19,11.5 19.4,11.9 19.4,12.4 C19.4,12.6 19.3,12.9 19.1,13 C19,13.1 18.9,13.3 18.9,13.5 C18.9,13.7 19,14 19.2,14.1 C20.6,14.5 21.7,15.8 21.7,17.3 Z"/>
    <path fill="#B3B3B3" d="M18.5,24 L16.1,24 L16.1,23.1 L18.5,21.7 L18.5,20.3 L16.1,18.9 L16.1,18 L17.1,18 C17,18 17,17.8 17,17.6 C17,17.4 17.1,17.2 17.1,17.2 L17.2,17.2 C17.2,15.4 17.7,14 18.4,14 C18.6,14 18.9,14 19.1,14.1 C18.9,14 18.8,13.8 18.8,13.5 C18.8,13.3 18.9,13.1 19,13 C18.9,13 18.8,13 18.8,13 C18.3,13 17.9,12.6 17.9,12.1 C17.9,11.8 18,11.6 18.2,11.4 C17.8,11.5 17.5,11.9 17.5,12.3 C17.5,12.5 17.6,12.8 17.8,12.9 C17.9,13 18,13.2 18,13.4 C18,13.6 17.9,13.9 17.7,14 C16.3,14.3 15.2,15.6 15.2,17.1 L15,17.1 C14.8,17.1 14.6,17.3 14.6,17.5 C14.6,17.7 14.8,17.9 15,17.9 L15.2,17.9 L15.2,24.6 L18.4,24.6 L18.5,24 Z"/>
    <path fill="#FFF" d="M18.5,20.3 L18.5,21.7 L20.9,23.1 L20.9,24 L18.5,24 L18.5,24.8 L11.8,24.8 L12.4,27.7 L24.5,27.7 L25.1,24.8 L21.6,24.8 L21.6,18.1 L21.9,18.1 C22.1,18.1 22.3,17.9 22.3,17.7 C22.3,17.5 22.1,17.3 21.9,17.3 L21.6,17.3 C21.6,15.5 20.2,14.1 18.4,14.1 C17.7,14.1 17.2,15.5 17.2,17.3 L17.1,17.3 C17,17.3 17,17.5 17,17.7 C17,17.9 17.1,18.1 17.1,18.1 L20.8,18.1 L20.8,19 L18.5,20.3 Z"/>
    <polygon fill="#6D0020" points="16.2 20.1 17.7 21 16.1 21.9"/>
    <polygon fill="#E52823" points="20.9 20.1 19.3 21 20.9 21.9"/>
    <polygon fill="#FFF" points="25.1 11.6 23.8 12.9 23.9 11 22.1 10.7 23.6 9.7 22.7 8.1 24.4 8.6 25.1 6.9 25.8 8.6 27.6 8.1 26.7 9.7 28.2 10.7 26.4 11 26.5 12.9"/>
    <path fill="#E52823" d="M15.1,18 C14.9,18 14.7,17.8 14.7,17.6 C14.7,17.4 14.9,17.2 15.1,17.2 L15.3,17.2 C15.3,15.7 16.4,14.4 17.8,14.1 C18,14 18.1,13.7 18.1,13.5 C18.1,13.3 18,13.1 17.9,13 C17.7,12.8 17.6,12.6 17.6,12.4 C17.6,12 17.9,11.6 18.3,11.5 C18.4,11.5 18.5,11.5 18.5,11.5 L18.5,0.5 L0.7,10.7 L15.3,19.1 L15.3,18 L15.1,18 Z"/>
    <g transform="translate(12 25)">
      <polygon fill="#B3B3B3" points="3.7 2 4.6 2 4.5 .3 3.5 .3"/>
      <polygon fill="#B3B3B3" points="5.2 2 6.4 2 6.4 .3 5.1 .3"/>
      <polygon fill="#E52823" points="2.2 2 3.1 2 2.9 .3 1.9 .3"/>
      <polygon fill="#E52823" points=".9 2 1.5 2 1.2 .3 .5 .3"/>
      <polygon fill="#6D0020" points="10 2 10.9 2 11.2 .3 10.2 .3"/>
      <polygon fill="#6D0020" points="11.5 2 12.2 2 12.6 .3 11.9 .3"/>
    </g>
    <g fill="#231F20" transform="translate(46 18)">
      <path d="M6.3 1.5L7.3 1.5 7.3 7.2C7.3 8.5 7.1 9.4 6.7 9.8 6.2 10.3 5.7 10.5 5 10.5 4.3 10.5 3.7 10.3 3.3 9.8 3.1 9.5 2.9 9.2 2.8 8.8 2.7 8.4 2.7 7.8 2.7 6.9L2.7 1.5 3.6 1.5 3.6.8.2.8.2 1.5 1.2 1.5 1.2 7.2C1.2 8.6 1.5 9.6 2.1 10.2 2.7 10.8 3.6 11.2 4.9 11.2 6.1 11.2 7 10.8 7.6 10.1 7.9 9.7 8.1 9.3 8.2 8.9 8.3 8.5 8.4 7.8 8.4 6.9L8.4 1.6 9.4 1.6 9.4.9 6.4.9 6.3 1.5zM17.1 5.7C17.1 5 16.9 4.4 16.6 4 16.2 3.6 15.7 3.4 15.1 3.4 14.6 3.4 14.1 3.5 13.6 3.8 13.2 4.1 12.8 4.5 12.4 5L12.4 3.6 10 3.6 10 4.3 11 4.3 11 10.4 10 10.4 10 11.1 13.4 11.1 13.4 10.4 12.4 10.4 12.4 5.7C12.8 5.3 13.1 5 13.5 4.8 13.9 4.6 14.2 4.5 14.6 4.5 15 4.5 15.3 4.6 15.5 4.8 15.7 5 15.8 5.4 15.8 6L15.8 10.3 14.8 10.3 14.8 11 18.2 11 18.2 10.3 17.2 10.3 17.1 5.7z"/>
      <polygon points="21.2 3.6 18.9 3.6 18.9 4.2 19.9 4.2 19.9 10.3 18.9 10.3 18.9 11 22.3 11 22.3 10.3 21.2 10.3"/>
      <rect width="1.4" height="1.3" x="19.9" y=".9"/>
      <polygon points="27.8 4.2 28.8 4.2 26.5 9.3 24.4 4.2 25.4 4.2 25.4 3.6 22.4 3.6 22.4 4.2 23 4.2 25.8 11 26.5 11 29.5 4.2 30.1 4.2 30.1 3.6 27.8 3.6"/>
      <path d="M33.4 3.4C32.4 3.4 31.7 3.8 31.1 4.5 30.5 5.2 30.2 6.1 30.2 7.2 30.2 8.4 30.5 9.3 31.2 10 31.9 10.7 32.8 11.1 33.8 11.1 34.5 11.1 35.3 10.9 36.2 10.6L36.2 9.6C35.5 10 34.8 10.2 34 10.2 33.2 10.2 32.6 9.9 32.2 9.4 31.8 8.8 31.6 8.1 31.6 7.1L36.2 7.1 36.2 6.8C36.2 5.7 36 4.8 35.5 4.2 34.9 3.7 34.2 3.4 33.4 3.4zM34.7 6.4L31.6 6.4C31.6 5.6 31.8 5 32.1 4.6 32.4 4.2 32.8 4 33.3 4 34.2 4 34.7 4.7 34.7 6.2L34.7 6.4zM39.8 4.9L39.8 3.5 37.4 3.5 37.4 4.2 38.4 4.2 38.4 10.3 37.4 10.3 37.4 11 40.8 11 40.8 10.3 39.8 10.3 39.8 5.6C40.4 4.9 41 4.6 41.6 4.6L41.8 4.6 41.8 5.4 42.6 5.4 42.6 3.5C42.5 3.4 42.3 3.4 42.2 3.4 41.2 3.4 40.4 3.9 39.8 4.9zM47.1 6.8L46.5 6.5C45.9 6.2 45.5 6 45.2 5.8 45 5.6 44.9 5.4 44.9 5.1 44.9 4.8 45 4.5 45.3 4.3 45.5 4.1 45.8 4 46.2 4 46.4 4 46.7 4 46.9 4.1 47.1 4.2 47.4 4.3 47.6 4.5L47.6 5.4 48.4 5.4 48.4 3.8C48 3.7 47.6 3.6 47.3 3.5 46.9 3.4 46.6 3.4 46.2 3.4 45.5 3.4 44.9 3.6 44.4 4 43.9 4.4 43.7 4.9 43.7 5.5 43.7 6.5 44.4 7.2 45.8 7.8L46.5 8.1C47.3 8.4 47.7 8.8 47.7 9.4 47.7 9.8 47.6 10 47.3 10.3 47 10.5 46.7 10.6 46.2 10.6 45.9 10.6 45.7 10.5 45.4 10.4 45.1 10.3 44.8 10.1 44.5 9.9L44.5 9.1 43.7 9.1 43.7 10.7C44.1 10.9 44.5 11 44.9 11.1 45.3 11.2 45.8 11.2 46.2 11.2 47 11.2 47.7 11 48.3 10.6 48.8 10.2 49.1 9.6 49.1 9 49.1 8.5 49 8.1 48.7 7.8 48.2 7.4 47.7 7.1 47.1 6.8z"/>
      <rect width="1.4" height="1.3" x="50.9" y=".9"/>
      <polygon points="52.3 3.6 49.9 3.6 49.9 4.2 50.9 4.2 50.9 10.3 49.9 10.3 49.9 11 53.3 11 53.3 10.3 52.3 10.3"/>
      <path d="M59,9.3 L58.3,9.3 C58.3,9.3 58.3,10 57.6,10.3 C57.5,10.3 57.4,10.4 57.3,10.4 C57,10.4 56.8,10.3 56.6,10 C56.5,9.7 56.4,9.4 56.4,8.8 L56.4,4.2 L58.3,4.2 L58.3,3.5 L56.4,3.5 L56.4,1.8 L55,2.1 L55,3.4 L54,3.4 L54,4.1 L55,4.1 L55,8.5 C55,9.4 55.2,10 55.5,10.4 C55.9,10.8 56.4,11 57,11 C57.1,11 57.2,11 57.3,11 C57.3,11 57.3,11 57.4,11 C57.4,11 57.4,11 57.5,11 C57.5,11 57.6,11 57.7,10.9 L57.8,10.9 L57.9,10.9 C57.9,10.9 57.9,10.9 58,10.9 C58.4,10.7 58.9,10.2 59,9.3 Z"/>
      <path d="M64.5,3.6 L64.5,4.3 L65.5,4.3 L63.3,9.3 L61.2,4.3 L62.2,4.3 L62.2,3.6 L59.1,3.6 L59.1,4.3 L59.7,4.3 L62.5,11.1 C62.4,11.4 62.3,11.6 62.1,11.8 C61.8,12.2 61.6,12.6 61.1,12.8 C60.9,12.9 60.6,13 60.3,13 C60,13 59.7,12.9 59.5,12.7 L59.5,12.1 L58.8,12.1 L58.8,13.4 C58.9,13.5 59.2,13.5 59.4,13.6 C59.8,13.7 60.1,13.7 60.5,13.7 C61.1,13.6 61.6,13.4 62,13 C62.3,12.7 62.6,12.2 62.8,11.8 C62.9,11.7 62.9,11.6 62.9,11.5 L63.1,11.1 L66.1,4.3 L66.7,4.3 L66.7,3.6 L64.5,3.6 Z"/>
    </g>
    <g fill="#231F20" transform="translate(47 34)">
      <path d="M.6 3.7C.7 4.2 1 4.4 1.4 4.4 1.8 4.4 2.1 4.2 2.1 3.9 2.1 3.6 1.9 3.4 1.3 3.2.7 3 .2 2.8.2 2.1.2 1.3.8 1 1.4 1 2.1 1 2.6 1.3 2.7 2L2.1 2.1C2.1 1.7 1.8 1.5 1.4 1.5 1.1 1.5.8 1.7.8 2 .8 2.4 1.1 2.5 1.6 2.7 2.2 2.9 2.6 3.1 2.6 3.8 2.6 4.5 2 4.9 1.3 4.9.6 4.9.1 4.6 0 3.9L.6 3.7zM5.1 2.2C5.3 2.6 5.4 2.8 5.4 2.8 5.4 2.8 5.4 2.6 5.6 2.2L6.2 1 6.8 1 5.7 3.3 5.7 4.7 5.1 4.7 5.1 3.3 3.9 1 4.6 1 5.1 2.2zM8.3 4.7L8.3 1 9.5 1C10.5 1 11.3 1.5 11.3 2.8 11.3 4.2 10.5 4.7 9.5 4.7L8.3 4.7zM9.4 4.3C10.1 4.3 10.7 3.9 10.7 2.9 10.7 1.9 10.2 1.5 9.5 1.5L8.9 1.5 8.9 4.3 9.4 4.3zM15.1 3.1C15.3 3.4 15.5 3.8 15.5 3.8 15.5 3.8 15.5 3.4 15.5 2.9L15.5.9 16.1.9 16.1 4.6 15.5 4.6 14 2.5C13.8 2.2 13.6 1.8 13.6 1.8 13.6 1.8 13.6 2.2 13.6 2.7L13.6 4.7 13 4.7 13 1 13.6 1 15.1 3.1z"/>
      <polygon points="20.4 4.7 18.1 4.7 18.1 1 20.4 1 20.4 1.5 18.7 1.5 18.7 2.6 20.2 2.6 20.2 3.1 18.7 3.1 18.7 4.2 20.4 4.2"/>
      <path d="M23 2.2C23.2 2.6 23.3 2.8 23.3 2.8 23.3 2.8 23.3 2.6 23.5 2.2L24.1 1 24.7 1 23.6 3.3 23.6 4.7 23 4.7 23 3.3 21.8 1 22.5 1 23 2.2zM26.8 2.6C27 2.6 27.2 2.8 27.2 3 27.2 3.2 27 3.4 26.8 3.4 26.6 3.4 26.4 3.2 26.4 3 26.4 2.8 26.6 2.6 26.8 2.6zM31.7 3.7L30.2 3.7 29.8 4.7 29.2 4.7 30.6 1 31.4 1 32.8 4.7 32.2 4.7 31.7 3.7zM30.3 3.2L31.5 3.2 31.2 2.4C31 1.8 30.9 1.4 30.9 1.4 30.9 1.4 30.8 1.8 30.6 2.4L30.3 3.2zM36.9 1L36.9 3.5C36.9 4.5 36.2 4.8 35.5 4.8 34.8 4.8 34.1 4.5 34.1 3.5L34.1 1 34.7 1 34.7 3.4C34.7 4.1 35 4.4 35.6 4.4 36.1 4.4 36.5 4.1 36.5 3.4L36.5 1 36.9 1zM39 3.7C39.1 4.2 39.4 4.4 39.8 4.4 40.2 4.4 40.5 4.2 40.5 3.9 40.5 3.6 40.3 3.4 39.7 3.2 39.1 3 38.6 2.8 38.6 2.1 38.6 1.3 39.2 1 39.8 1 40.5 1 41 1.3 41.1 2L40.5 2.1C40.5 1.7 40.2 1.5 39.8 1.5 39.5 1.5 39.2 1.7 39.2 2 39.2 2.4 39.5 2.5 40 2.7 40.6 2.9 41 3.1 41 3.8 41 4.5 40.4 4.9 39.7 4.9 39 4.9 38.5 4.6 38.4 3.9L39 3.7z"/>
      <polygon points="43.4 4.7 43.4 1.5 42.3 1.5 42.3 1 45 1 45 1.5 44 1.5 44 4.7"/>
      <path d="M48.7 4.7C48.6 4.6 48.6 4.5 48.5 4.4L48.3 3.8C48.2 3.4 48 3.3 47.6 3.3L47.1 3.3 47.1 4.8 46.5 4.8 46.5 1.1 47.8 1.1C48.7 1.1 49.1 1.5 49.1 2.2 49.1 2.8 48.7 3.1 48.2 3.1 48.6 3.1 48.7 3.3 48.8 3.7L49 4.4C49 4.6 49.1 4.7 49.2 4.8L48.7 4.7zM47.2 2.7L47.9 2.7C48.4 2.7 48.6 2.5 48.6 2.1 48.6 1.7 48.4 1.5 47.9 1.5L47.2 1.5 47.2 2.7zM53.1 3.7L51.6 3.7 51.2 4.7 50.6 4.7 52 1 52.8 1 54.2 4.7 53.6 4.7 53.1 3.7zM51.7 3.2L52.9 3.2 52.6 2.4C52.4 1.8 52.3 1.4 52.3 1.4 52.3 1.4 52.2 1.8 52 2.4L51.7 3.2zM56.2 1L56.2 4.2 57.9 4.2 57.9 4.7 55.6 4.7 55.6 1C55.6 1 56.2 1 56.2 1z"/>
      <polygon points="60.1 1 60.1 4.7 59.5 4.7 59.5 1"/>
      <path d="M64.1,3.7 L62.6,3.7 L62.2,4.7 L61.6,4.7 L63,1 L63.8,1 L65.2,4.7 L64.6,4.7 L64.1,3.7 Z M62.7,3.2 L63.9,3.2 L63.6,2.4 C63.4,1.8 63.3,1.4 63.3,1.4 C63.3,1.4 63.2,1.8 63,2.4 L62.7,3.2 Z"/>
    </g>
  </g>
</svg>
