<svg xmlns="http://www.w3.org/2000/svg" width="145" height="60" viewBox="0 0 145 60">
  <g fill="none" transform="translate(0 5)">
    <g transform="translate(0 1)">
      <path fill="#1C4A92" d="M3.5,10.1 C3.5,10.6 3.4,14.7 6,18.9 C8.3,22.7 11.7,24.4 13.1,24.9 C14.6,24.4 18,22.7 20.2,18.9 C22.7,14.7 22.7,10.6 22.7,10.1 L22.7,0.2 L3.4,0.2 C3.5,0.3 3.5,10.1 3.5,10.1 Z"/>
      <path fill="#1C4A92" d="M23.9,14.8 L23.8,15.1 C23.7,15.5 23.6,15.8 23.4,16.2 L22.6,15.5 L22.5,15.8 C22.1,17.1 21.5,18.3 20.8,19.5 C19,22.4 16.4,24.5 13.4,25.6 L13.1,25.7 L12.8,25.6 C9.8,24.5 7.2,22.4 5.4,19.5 C4.7,18.4 4.1,17.2 3.7,15.8 L3.6,15.5 L3.4,15.7 L2.8,16.2 C2.7,15.8 2.5,15.5 2.4,15.1 L2.3,14.8 L2.1,15 L0,16.9 L0,17 C0.5,18.6 1.3,20.2 1.9,21.3 L2,21.5 L2.9,20.7 L3,20.9 C5.1,24.3 8.2,26.8 11.8,28.2 L13.1,28.7 L14.4,28.2 C18,26.9 21,24.4 23.2,20.9 L23.3,20.7 L24.2,21.5 L24.3,21.3 C24.9,20.2 25.7,18.6 26.2,17 L26.2,16.9 L23.9,14.8 Z"/>
      <g fill="#FFF" transform="translate(14 1)">
        <path d="M7.1 3.6C7.1 3.7 7.1 3.9 7 4L6.9 4.2 6.7 4.3 6.7 4.2C6.7 4.1 6.7 3.9 6.8 3.8 6.9 3.6 7 3.5 7.2 3.4 7.1 3.5 7.1 3.6 7.1 3.6zM5.5 6.2C5.7 6.2 5.8 6.2 6 6.3 5.9 6.4 5.7 6.5 5.6 6.5 5.4 6.5 5.3 6.5 5.1 6.4 5.2 6.3 5.4 6.2 5.5 6.2zM4.7 6.5C4.7 6.3 4.7 6.2 4.8 6 4.9 5.9 5 5.8 5.2 5.7 5.2 5.9 5.2 6 5.1 6.1 5 6.3 4.9 6.4 4.7 6.5zM5.4 5.6C5.5 5.5 5.5 5.4 5.6 5.3L5.6 5.5 5.6 5.8C5.6 5.9 5.5 6 5.4 6.1L5.3 6.1C5.4 6 5.4 5.8 5.4 5.6zM5.7 5.2C5.7 5.1 5.8 5 5.9 4.9 6 5 6 5.2 6 5.3L6 5.4C6 5.5 5.9 5.6 5.9 5.7L5.8 5.8C5.8 5.5 5.8 5.4 5.7 5.2zM6 4.7C6 4.6 6 4.5 6.1 4.4 6.2 4.5 6.3 4.7 6.3 4.8L6.3 4.9C6.3 5 6.3 5.1 6.3 5.1L6.2 5.2C6.1 5 6.1 4.8 6 4.7zM6.1 4.1L6.1 3.9 6.1 3.7C6.2 3.8 6.4 3.9 6.4 4.1 6.4 4.2 6.5 4.3 6.5 4.4L6.4 4.5C6.3 4.4 6.2 4.3 6.1 4.1zM6.1 3.6C6 3.5 6 3.4 6 3.2 6.2 3.3 6.3 3.4 6.4 3.5 6.5 3.6 6.5 3.7 6.5 3.8L6.5 3.9C6.4 3.8 6.3 3.7 6.1 3.6zM6.5 3.4C6.3 3.3 6.2 3.2 6 3.1 5.9 3 5.9 2.9 5.8 2.8 6 2.8 6.1 2.9 6.2 3 6.3 3.1 6.4 3.2 6.5 3.4zM6.3 2.7C6.1 2.6 6 2.5 5.8 2.5 5.7 2.4 5.6 2.3 5.6 2.2 5.8 2.2 5.9 2.2 6.1 2.3 6.2 2.4 6.3 2.4 6.4 2.5L6.3 2.7zM5.9 6.1L5.6 6.1C5.7 6 5.8 5.8 6 5.8 6.2 5.7 6.3 5.7 6.5 5.8 6.4 6 6.3 6.1 6.1 6.1L5.9 6.1zM6.4 5.5L6.1 5.5C6.2 5.3 6.3 5.2 6.4 5.1 6.5 5 6.7 5 6.9 4.9 6.8 5.1 6.7 5.2 6.6 5.3 6.6 5.4 6.4 5.5 6.4 5.5zM6.9 4.7L6.7 4.9 6.5 5C6.5 4.8 6.6 4.7 6.7 4.5 6.8 4.4 7 4.3 7.1 4.2 7.1 4.4 7 4.6 6.9 4.7zM7 3L7 3.2C7 3.3 6.9 3.4 6.9 3.4L6.7 3.6C6.7 3.5 6.6 3.4 6.6 3.3L6.6 3.1C6.6 2.9 6.7 2.8 6.9 2.7 7 2.8 7 2.9 7 3z"/>
        <path d="M6.4 2.5C6.4 2.3 6.5 2.2 6.6 2 6.7 2.1 6.8 2.3 6.8 2.5L6.8 2.7 6.7 2.9C6.5 2.8 6.4 2.7 6.4 2.5zM6.1 1.4C6.2 1.5 6.3 1.7 6.4 1.8L6.4 2 6.4 2.1 6.3 2.4C6.2 2.3 6.1 2.1 6.1 2L6.1 1.8C6 1.7 6 1.5 6.1 1.4zM6 2.2C5.8 2.1 5.6 2.1 5.4 2.2 5.3 2.1 5.2 2.1 5.1 2 5.3 1.9 5.4 1.9 5.6 2 5.7 2 5.8 2.1 6 2.2 5.9 2.1 6 2.2 6 2.2zM5.4 1C5.6 1.1 5.7 1.2 5.8 1.4L5.9 1.6 5.9 1.9C5.8 1.8 5.6 1.7 5.5 1.6 5.4 1.5 5.4 1.4 5.4 1.2L5.4 1zM5.3 1.3L5.4 1.5 5.5 1.7C5.3 1.7 5.2 1.6 5.1 1.6 5 1.5 4.9 1.4 4.8 1.2 5 1.2 5.1 1.2 5.3 1.3zM3 5C3.1 5 3.2 5.1 3.2 5.2L3.2 5.3 3.2 5.4 3.5 5.4 3.5 2.1C3.5 1.7 3.5 1.1 3.8.6L3.9.5 4 .6C4.2 1.1 4.3 1.7 4.3 2.1L4.3 5.4 4.6 5.4C4.7 5.4 4.7 5.4 4.6 5.3L4.6 5.2C4.6 5.1 4.7 5 4.8 5 4.9 5 5 5.1 5 5.2 5 5.3 4.9 5.5 4.7 5.5L4.3 5.5C4.4 5.7 4.4 5.9 4.4 6.1 4.4 6.4 4.3 6.7 4.3 6.8 4.6 6.7 4.9 6.7 5.1 6.5L5.2 6.6C5 6.7 4.8 6.8 4.6 6.8L4.3 6.9 4.4 7C4.4 7.1 4.3 7.2 4.2 7.2 4.1 7.2 4 7.1 4 7L4.1 6.9 3.8 6.8C3.6 6.7 3.4 6.7 3.2 6.6L3.3 6.5C3.5 6.6 3.8 6.7 4.1 6.8 4 6.6 3.9 6.4 3.9 6.1 3.9 5.9 3.9 5.6 4 5.5L3.6 5.5C3.4 5.5 3.3 5.4 3.3 5.2 2.8 5.1 2.9 5 3 5zM2.3 6.1C2.1 6 2 5.9 2 5.8L2 5.5 2 5.3C2.1 5.4 2.2 5.5 2.2 5.6 2.2 5.8 2.2 6 2.3 6.1zM1.8 2.6C1.6 2.6 1.4 2.7 1.3 2.8L1.3 2.7C1.4 2.6 1.5 2.5 1.6 2.5 1.7 2.4 1.9 2.4 2.1 2.4 2 2.4 1.9 2.5 1.8 2.6zM1.8 5.7C1.6 5.6 1.6 5.5 1.6 5.4L1.6 5.3C1.6 5.2 1.6 5 1.7 4.9 1.8 5 1.8 5.1 1.9 5.2 1.8 5.4 1.8 5.5 1.8 5.7zM1.3 4.8C1.3 4.6 1.4 4.5 1.5 4.4 1.6 4.5 1.6 4.6 1.6 4.7 1.5 4.9 1.4 5 1.4 5.2L1.3 5.1 1.3 4.8zM1.2 4.6C1.1 4.4 1.1 4.3 1.2 4.2 1.3 4.1 1.4 3.9 1.5 3.8L1.5 4 1.5 4.2C1.3 4.3 1.2 4.4 1.2 4.6zM1.3 2.9C1.4 2.8 1.6 2.7 1.8 2.7 1.8 2.8 1.7 2.9 1.6 3 1.4 3.1 1.3 3.1 1.1 3.3L1.1 3.2C1.1 3.1 1.2 3 1.3 2.9zM1.2 3.5C1.3 3.4 1.4 3.3 1.6 3.2 1.6 3.3 1.6 3.4 1.5 3.6 1.3 3.7 1.2 3.8 1.1 4L1.1 3.9C1.1 3.7 1.1 3.6 1.2 3.5zM1.1 5L.9 4.9.7 4.7C.6 4.6.5 4.4.5 4.2.7 4.2.8 4.3.9 4.5 1 4.6 1.1 4.8 1.1 5zM1.2 5.2C1.3 5.3 1.4 5.4 1.5 5.6L1.2 5.6 1 5.5C.9 5.4.8 5.3.7 5.1.9 5 1 5.1 1.2 5.2zM1.6 5.7C1.8 5.8 1.9 5.9 2 6L1.7 6 1.5 5.9C1.3 5.8 1.2 5.7 1.1 5.6 1.2 5.7 1.4 5.7 1.6 5.7zM2 6.2C2.2 6.2 2.3 6.3 2.5 6.4 2.3 6.5 2.2 6.5 2 6.5 1.8 6.5 1.7 6.4 1.5 6.3 1.7 6.2 1.9 6.2 2 6.2zM2.5 6.2C2.4 6.1 2.4 5.9 2.4 5.8 2.6 5.9 2.7 6 2.8 6.1 2.9 6.2 2.9 6.4 2.9 6.5 2.7 6.4 2.6 6.3 2.5 6.2zM2.2 1.5L2.3 1.3 2.4 1.3C2.5 1.2 2.7 1.2 2.9 1.1 2.8 1.3 2.7 1.4 2.6 1.5 2.5 1.6 2.3 1.6 2.2 1.5zM1.8 1.3C1.9 1.1 2 1 2.2.9L2.2 1C2.2 1.1 2.2 1.3 2.1 1.4 2 1.5 1.9 1.7 1.8 1.7L1.8 1.3C1.7 1.5 1.8 1.3 1.8 1.3zM1.7 2.1C1.8 2 1.9 2 2 1.9 2.1 1.9 2.3 1.9 2.5 1.9 2.4 2 2.3 2.1 2.2 2.1 2 2.1 1.8 2.1 1.7 2.1zM1.2 1.9C1.2 1.7 1.3 1.6 1.5 1.5 1.5 1.6 1.6 1.7 1.6 1.8L1.6 2C1.6 2.2 1.5 2.3 1.3 2.4L1.2 2.1 1.2 1.9z"/>
        <path d="M.9 2.5C.9 2.3 1 2.2 1.1 2 1.2 2.2 1.3 2.3 1.3 2.5 1.3 2.7 1.2 2.8 1.2 3L1.1 2.8.9 2.5zM.7 2.7C.8 2.8.9 3 1 3.1L1 3.3C1 3.4 1 3.5.9 3.6.8 3.5.8 3.5.7 3.4L.6 3.2.6 3C.6 2.9.6 2.8.7 2.7zM.5 3.5C.7 3.6.8 3.7.9 3.9 1 4 1 4.1 1 4.3L1 4.4.8 4.3.7 4.1C.6 4 .6 3.9.6 3.7.5 3.6.5 3.5.5 3.5z"/>
      </g>
      <path fill="#1C4A92" d="M18,3.1 C18,2.7 18,2.3 17.8,1.9 L17.8,6.2 L18,6.2 C18,6.1 18,3.1 18,3.1 Z"/>
      <g fill="#FFF" transform="translate(4 1)">
        <path d="M5.9 5.6C6.2 5.7 6.6 5.8 7 5.8L7 1.3C6.6 1.3 6.2 1.2 5.9 1.1 5.6 1 5.3.9 5 1 4.6 1 4.4 1.1 4.3 1.2L4.3 5.7C4.5 5.6 4.7 5.5 5 5.5 5.2 5.4 5.6 5.5 5.9 5.6zM3.3 5.4C3.6 5.4 3.8 5.5 4 5.6L4 1.1C3.9 1 3.7.9 3.3.9 3 .9 2.7 1 2.4 1 2 1.1 1.7 1.2 1.3 1.2L1.3 5.7C1.7 5.7 2 5.6 2.4 5.5 2.7 5.5 3 5.4 3.3 5.4z"/>
        <path d="M7.5,1.3 L7.2,1.3 L7.2,1.4 L7.2,6.1 L4.3,6.1 C4.2,6.2 4.2,6.2 4.1,6.2 C4,6.2 3.9,6.2 3.9,6.1 L1,6.1 L1,1.4 L1,1.3 L0.7,1.3 L0.7,6.4 L3.8,6.4 C3.9,6.5 4,6.6 4.2,6.6 C4.4,6.6 4.5,6.5 4.6,6.4 L7.7,6.4 L7.7,1.3 L7.5,1.3 Z"/>
      </g>
      <g fill="#1C4A92" transform="translate(5 2)">
        <path d="M4 1C3.8 1 3.7 1 3.6 1.1L3.6 1.3C3.7 1.3 3.9 1.2 4 1.2 4.3 1.2 4.6 1.3 4.9 1.3 5.2 1.4 5.5 1.4 5.7 1.5L5.7 1.3C5.4 1.3 5.2 1.2 4.9 1.1 4.6 1.1 4.2 1 4 1zM4 3.6C3.8 3.6 3.7 3.6 3.6 3.7L3.6 3.9C3.7 3.9 3.9 3.8 4 3.8 4.3 3.8 4.6 3.9 4.9 3.9 5.2 4 5.5 4 5.7 4.1L5.7 3.9C5.4 3.9 5.2 3.8 4.9 3.7 4.6 3.7 4.2 3.6 4 3.6zM4 3.1C3.8 3.1 3.7 3.1 3.6 3.2L3.6 3.4C3.7 3.4 3.9 3.3 4 3.3 4.3 3.3 4.6 3.4 4.9 3.4 5.2 3.5 5.4 3.5 5.7 3.6L5.7 3.4C5.4 3.4 5.2 3.3 4.9 3.2 4.6 3.2 4.2 3.1 4 3.1zM4 1.5C3.8 1.5 3.7 1.5 3.6 1.6L3.6 1.8C3.7 1.8 3.9 1.7 4 1.7 4.3 1.7 4.6 1.8 4.9 1.8 5.2 1.9 5.5 1.9 5.7 2L5.7 1.8C5.4 1.8 5.2 1.7 4.9 1.6 4.6 1.6 4.2 1.5 4 1.5zM4 2.6C3.8 2.6 3.7 2.6 3.6 2.7L3.6 2.9C3.7 2.9 3.9 2.8 4 2.8 4.3 2.8 4.6 2.9 4.9 2.9 5.2 3 5.5 3 5.7 3.1L5.7 2.9C5.4 2.9 5.2 2.8 4.9 2.7 4.6 2.6 4.2 2.6 4 2.6zM4.9.6C4.6.5 4.3.4 4 .5 3.8.5 3.7.5 3.6.6L3.6.8C3.7.8 3.9.7 4 .7 4.3.7 4.6.8 4.9.8 5.2.9 5.5.9 5.7 1L5.7.8C5.4.8 5.1.7 4.9.6zM1.4 3.3C1.1 3.4.9 3.4.6 3.5L.6 3.7C.9 3.7 1.2 3.6 1.4 3.5 1.7 3.4 2 3.3 2.3 3.4 2.5 3.4 2.6 3.4 2.7 3.5L2.7 3.3C2.6 3.3 2.4 3.2 2.3 3.2 2 3.1 1.7 3.2 1.4 3.3zM1.4 2.7C1.1 2.8.9 2.8.6 2.9L.6 3.1C.9 3.1 1.2 3 1.4 2.9 1.7 2.8 2 2.7 2.3 2.8 2.5 2.8 2.6 2.8 2.7 2.9L2.7 2.7C2.6 2.7 2.4 2.6 2.3 2.6 2 2.6 1.7 2.6 1.4 2.7zM4 2C3.8 2 3.7 2 3.6 2.1L3.6 2.3C3.7 2.3 3.9 2.2 4 2.2 4.3 2.2 4.6 2.3 4.9 2.3 5.2 2.4 5.4 2.4 5.7 2.5L5.7 2.3C5.4 2.3 5.2 2.2 4.9 2.1 4.6 2.1 4.2 2 4 2zM1.4 3.8C1.1 3.9.9 3.9.6 4L.6 4.2C.9 4.2 1.2 4.1 1.4 4 1.7 3.9 2 3.8 2.3 3.9 2.5 3.9 2.6 3.9 2.7 4L2.7 3.8C2.6 3.8 2.4 3.7 2.3 3.7 2 3.6 1.7 3.7 1.4 3.8zM1.4.6C1.1.7.9.7.6.8L.6 1C.9 1 1.2.9 1.4.8 1.7.7 2 .6 2.3.7 2.5.7 2.6.7 2.7.8L2.7.6C2.6.6 2.4.5 2.3.5 2 .5 1.7.5 1.4.6zM1.4 1.2C1.1 1.3.9 1.3.6 1.4L.6 1.6C.9 1.6 1.2 1.5 1.4 1.4 1.7 1.3 2 1.2 2.3 1.3 2.5 1.3 2.6 1.3 2.7 1.4L2.7 1.2C2.6 1.2 2.4 1.1 2.3 1.1 2 1 1.7 1.1 1.4 1.2zM1.4 2.2C1.1 2.3.9 2.3.6 2.4L.6 2.6C.9 2.6 1.2 2.5 1.4 2.4 1.7 2.3 2 2.2 2.3 2.3 2.5 2.3 2.6 2.3 2.7 2.4L2.7 2.2C2.6 2.2 2.4 2.1 2.3 2.1 2 2 1.7 2.1 1.4 2.2zM1.4 1.7C1.1 1.8.9 1.8.6 1.9L.6 2.1C.9 2.1 1.2 2 1.4 1.9 1.7 1.8 2 1.7 2.3 1.8 2.5 1.8 2.6 1.8 2.7 1.9L2.7 1.7C2.6 1.7 2.4 1.6 2.3 1.6 2 1.5 1.7 1.6 1.4 1.7z"/>
      </g>
      <polygon fill="#FFF" points="10.2 17.2 10.9 17.1 10.6 17.7 11.1 18.1 10.5 18.3 10.5 19 10 18.6 9.5 19 9.5 18.3 8.9 18.1 9.4 17.7 9.1 17.1 9.8 17.2 10.1 16.6"/>
      <polygon fill="#FFF" points="13.1 20.7 13.4 21.4 14.1 21.2 13.9 21.9 14.5 22.2 13.9 22.5 14.1 23.2 13.4 23 13.1 23.6 12.8 23 12.1 23.2 12.3 22.5 11.7 22.2 12.3 21.9 12.1 21.2 12.8 21.4"/>
      <polygon fill="#FFF" points="12.6 15.9 12.6 15.2 12 15 12.5 14.6 12.2 14 12.9 14.1 13.2 13.5 13.5 14.1 14.2 14 13.9 14.6 14.4 15 13.8 15.2 13.8 15.9 13.3 15.5"/>
      <polygon fill="#FFF" points="14.8 19.5 14.3 19.2 13.8 19.5 13.9 18.9 13.5 18.5 14.1 18.4 14.4 17.9 14.7 18.4 15.3 18.5 14.9 18.9"/>
      <polygon fill="#FFF" points="16.9 16.4 16.6 16.9 16.9 17.4 16.3 17.4 16 17.9 15.7 17.4 15.1 17.4 15.4 16.9 15.1 16.4 15.7 16.4 16 15.9 16.3 16.4"/>
      <path fill="#FFF" d="M13.1 11.2L20.4 17.8C20.9 16.9 21.2 16 21.5 15.1L13.1 7.5 4.7 15.1C5 16 5.3 16.9 5.8 17.8L13.1 11.2zM24.5 20L24.9 17.5 23.8 16.5C23.9 16.2 24 15.9 24.1 15.5 24.4 15.8 25.6 16.8 25.8 17 25.4 18 24.9 19.1 24.5 20zM23.9 20.8L23.5 20.4C23.8 20 24 19.5 24.2 19L23.9 20.8zM.5 17C.7 16.9 1.8 15.8 2.1 15.5 2.2 15.8 2.3 16.2 2.4 16.5L1.3 17.5 1.7 19.9C1.3 19.1.8 18 .5 17zM2.3 20.8L2 19C2.2 19.5 2.5 19.9 2.7 20.4L2.3 20.8z"/>
      <path fill="#FFF" d="M22.8,20.7 C20.7,24.1 17.7,26.5 14.2,27.8 L13.1,28.2 C13,28.2 12,27.8 12,27.8 C8.5,26.5 5.5,24.1 3.4,20.7 C2.8,19.7 2.3,18.7 1.9,17.6 L3.5,16.2 C3.9,17.4 4.5,18.6 5.1,19.7 C7,22.7 9.6,24.8 12.7,26 L13.1,26.2 L13.6,26 C16.7,24.9 19.3,22.7 21.2,19.7 C21.9,18.6 22.4,17.5 22.9,16.2 C23.2,16.5 24.3,17.5 24.5,17.6 C23.9,18.7 23.4,19.8 22.8,20.7 Z"/>
      <path fill="#1C4A92" d="M4 19.6L4.3 19.2 4.3 19.1 4.1 18.9C3.8 19 3.2 19 3 19.1L3 19 2.9 19 3 19.2 3.1 19.4 3.2 19.4 3.2 19.3 3.6 19.2 3.8 19.5 3.5 19.8 3.4 19.7 3.3 19.7 3.4 19.9 3.5 20.1 3.6 20.1 3.6 20C3.7 20 3.9 19.8 4 19.6zM3.6 19.2L4.1 19.1 3.8 19.5 3.6 19.2zM5.7 21.3L5.6 21.1 5.5 20.9 5.4 20.9 5.5 21C5.3 21.1 4.9 21.5 4.9 21.5L5.3 20.5 5.2 20.3 5 20.2 4.9 20.2 4.9 20.3 4.6 20.5 4.3 20.7 4 20.9 3.9 20.8 3.8 20.8 3.9 21 4 21.2 4.1 21.2 4.1 21.1C4.3 21 4.5 20.8 4.7 20.6L4.3 21.6 4.4 21.7 4.5 21.8 4.9 21.5 5.2 21.3 5.7 21.3C5.6 21.2 5.7 21.3 5.7 21.3zM5.8 22.3C5.5 22.6 5.5 22.9 5.8 23.2 6 23.4 6.1 23.5 6.4 23.5L6.4 23.4C6.2 23.4 6.1 23.3 6 23.2 5.8 23 5.8 22.8 6 22.6 6.2 22.4 6.4 22.5 6.6 22.6 6.7 22.7 6.7 22.8 6.7 22.9L6.6 23 6.7 23.1C6.8 23 6.9 23 7 22.9 6.9 22.8 6.9 22.6 6.8 22.5 6.5 22.1 6 22 5.8 22.3zM8.1 23.7C7.8 23.4 7.4 23.5 7.2 23.7 6.9 24 7 24.4 7.3 24.6 7.6 24.9 8 24.8 8.2 24.6 8.5 24.3 8.5 24 8.1 23.7zM8 24.4C7.8 24.6 7.6 24.7 7.4 24.5 7.2 24.4 7.2 24.1 7.4 23.9 7.6 23.7 7.8 23.6 8 23.8 8.2 24 8.2 24.2 8 24.4zM9.9 25L9.7 24.9 9.5 24.8 9.3 24.7 9.3 24.8 9.4 24.9 9.2 25.2 9 25.5 8.8 25.8 8.7 25.8 8.7 25.9 8.9 26 9.1 26.2 9.1 26.1 9 26 9.2 25.7 9.3 25.6 9.4 25.7 9.5 26.4 9.8 26.6 9.8 26.5 9.7 25.9C9.9 26 10 25.9 10.1 25.8 10.2 25.3 10.2 25.2 9.9 25zM9.8 25.3C9.7 25.4 9.6 25.4 9.5 25.3L9.4 25.2 9.5 25.1 9.6 24.9 9.7 25C9.8 25.1 9.8 25.2 9.8 25.3zM11.7 25.9L11.3 25.8C11.1 26.1 10.7 26.5 10.5 26.6L10.4 26.6 10.4 26.7 10.6 26.8 10.8 26.9 10.8 26.8 10.7 26.7 10.9 26.4 11.2 26.6 11.2 27 11.1 27 11.1 27.1 11.4 27.2 11.6 27.3 11.6 27.2 11.5 27.1C11.5 27 11.5 26.7 11.5 26.4 11.6 26.4 11.7 25.9 11.7 25.9zM11.3 26.5L11 26.4 11.3 26C11.4 26 11.3 26.5 11.3 26.5zM15.1 26.9L15 26.6 14.9 26.3 14.8 26 14.9 25.9 14.9 25.8 14.6 25.9 14.3 26 14.3 26.1 14.4 26.1 14.6 26.4 14.7 26.7 14.8 27 14.7 27.1 14.7 27.2 15 27.1 15.3 27 15.3 26.9C15.3 26.8 15.1 26.9 15.1 26.9zM17.3 25.7L17.1 25.4 16.9 25.1 16.7 24.8 16.8 24.7 16.8 24.6 16.6 24.7 16.4 24.8C16.4 25 16.6 25.6 16.6 25.7 16.5 25.6 16 25.2 15.9 25.1L15.7 25.2 15.5 25.3 15.5 25.4 15.6 25.4 15.7 25.5C15.8 25.6 16 26.1 16.1 26.2L16 26.3 16 26.4 16.2 26.3 16.4 26.2 16.4 26.1 16.3 26.1 16.1 25.8 16 25.6 15.8 25.3 16.6 26 16.8 25.9 16.6 24.9 16.8 25.2 16.9 25.4 17.1 25.7 17 25.8 17 25.9 17.3 25.7 17.4 25.5 17.3 25.7zM18.5 24.8L18.3 24.5 18.1 24.3 17.9 24 18 23.9C18.1 23.8 18.2 23.8 18.3 23.9 18.4 24 18.4 24.1 18.3 24.2L18.2 24.3 18.3 24.5 18.5 24.4C18.8 24.2 18.8 23.9 18.6 23.8 18.5 23.6 18.3 23.6 18.1 23.8L17.9 24 17.7 24.2 17.5 24.4 17.5 24.5 17.6 24.4 17.8 24.6 18 24.9 18.2 25.2 18.1 25.3 18.1 25.4 18.3 25.2 18.6 25 18.5 24.8zM20.5 23C20.4 23 20.1 22.8 19.9 22.7L19.4 22.5 19.3 22.6 19.2 22.8C19.4 23.1 19.6 23.6 19.7 23.8L19.6 23.9 19.7 24 19.8 23.9 20 23.7 19.9 23.6 19.8 23.7 19.6 23.4 19.9 23.1 20.2 23.3 20.1 23.4 20.2 23.5 20.4 23.3 20.5 23C20.5 22.9 20.5 23 20.5 23zM19.5 23.2L19.3 22.8 19.7 23C19.8 23 19.5 23.2 19.5 23.2zM21.8 21.3L21.1 21.3C21.2 21.1 21.2 21 21 20.9 20.9 20.8 20.7 20.8 20.5 21.1L20.3 21.3 20.1 21.5 20 21.7 20.1 21.7 20.2 21.6 20.5 21.8 20.8 22 21 22.2 20.9 22.3 21 22.3 21.2 22.1 21.4 21.9 21.3 21.9 21.2 22 20.9 21.8 20.8 21.7 20.9 21.6 21.6 21.6 21.8 21.3C21.9 21.3 21.8 21.3 21.8 21.3zM20.9 21.5L20.7 21.5 20.5 21.3 20.6 21.2C20.7 21.1 20.8 21.1 20.9 21.1 21 21.3 21 21.4 20.9 21.5zM22.6 19.2C22.2 19 21.9 19.1 21.7 19.5 21.5 19.9 21.6 20.3 21.9 20.4 22.2 20.6 22.6 20.5 22.8 20.1 23 19.7 22.9 19.3 22.6 19.2zM22.6 20C22.5 20.2 22.2 20.2 22 20.1 21.8 20 21.7 19.7 21.8 19.5 21.9 19.3 22.2 19.3 22.4 19.4 22.6 19.6 22.7 19.8 22.6 20zM13.1 26.7C13 26.7 12.8 26.8 12.8 27 12.8 27.2 12.9 27.3 13.1 27.3 13.3 27.3 13.4 27.2 13.4 27 13.4 26.8 13.2 26.7 13.1 26.7zM3.1 18.2C3.2 18.2 3.4 18.1 3.4 17.9 3.4 17.7 3.3 17.6 3.1 17.6 3 17.6 2.8 17.7 2.8 17.9 2.8 18 2.9 18.2 3.1 18.2zM23.1 18.2C23.3 18.2 23.4 18.1 23.4 17.9 23.4 17.7 23.3 17.6 23.1 17.6 23 17.6 22.8 17.7 22.8 17.9 22.9 18 23 18.2 23.1 18.2z"/>
    </g>
    <g fill="#231F20" transform="translate(33 25)">
      <path d="M13.6.4L13.6 11.8C13.6 16.5 11.7 18.7 7.5 18.7 2.7 18.7 1.7 15 1.7 11.8L1.7.4.3.4.3 11.8C.3 17.2 2.7 19.9 7.5 19.9 12.4 19.9 14.9 17.2 14.9 11.8L14.9.4C15 .4 13.6.4 13.6.4zM24.1 5.4C22 5.4 20.1 6.6 19.3 8.3L19.3 5.7 18 5.7 18 19.5 19.2 19.5 19.2 12.1C19.2 8.7 21.1 6.6 24 6.6 27.7 6.6 27.7 9.8 27.7 10.9L27.7 19.6 29 19.6 29 11.1C29 9.5 29 5.4 24.1 5.4z"/>
      <polygon points="32.1 5.7 32.1 19.5 33.3 19.5 33.3 5.7 33.2 5.7"/>
      <path d="M32.1 1.5L32.1 3.4 33.3 3.4 33.3 1.5 33.2 1.5C33.2 1.5 32.1 1.5 32.1 1.5zM45.6 5.7C45.6 5.7 41.2 17.5 41.1 17.9 40.9 17.5 36.3 5.7 36.3 5.7L34.9 5.7 40.5 19.5 41.9 19.5 47.1 5.7C46.9 5.7 45.6 5.7 45.6 5.7zM53.7 5.4C52.1 5.4 50.7 6 49.6 7 48.3 8.4 47.5 10.5 47.6 12.8 47.6 15 48.2 16.9 49.5 18.1 50.6 19.2 52 19.8 53.7 19.8 57 19.8 59.1 18 59.7 14.8L59.7 14.7 58.5 14.7 58.5 14.8C58 17.3 56.3 18.7 53.8 18.7 52.5 18.7 51.4 18.3 50.6 17.4 49.6 16.4 49 14.7 49 12.9L59.9 12.9 59.9 12.8 59.9 12.3C59.9 10.2 59.3 8.4 58.1 7.2 56.9 6 55.4 5.4 53.7 5.4zM53.7 6.5C56.8 6.5 58.4 9.1 58.5 11.7L48.8 11.7C49.1 9.1 50.8 6.5 53.7 6.5zM63.2 8.5L63.2 5.8 62 5.8 62 19.6 63.2 19.6 63.2 12.1C63.3 10 63.7 9.3 64.7 8.3 66.2 6.9 67.9 7 68.3 7L68.4 7 68.4 5.8 68.3 5.8C66.1 5.5 63.9 6.8 63.2 8.5zM75 11.9L74.6 11.8C72.5 11.4 70.6 11 70.6 9 70.6 7.2 72.6 6.5 74.4 6.5 75.8 6.5 78.3 6.9 78.3 9.8L78.3 9.9 79.5 9.9 79.5 9.8C79.5 6.9 77.7 5.4 74.4 5.4 73.2 5.4 69.4 5.7 69.4 9 69.4 12 72.2 12.6 74.2 13L74.6 13.1C76.8 13.5 78.8 13.9 78.8 16 78.8 18.5 75.9 18.8 74.6 18.8 72.1 18.8 70.4 17.3 70.2 15L70.2 14.9 69 14.9 69 15C69.1 18 71.2 19.9 74.6 19.9 75.9 19.9 80 19.6 80 16 79.9 13 77.7 12.4 75 11.9z"/>
      <polygon points="82.4 5.7 82.4 19.5 83.6 19.5 83.6 5.7 83.5 5.7"/>
      <path d="M102.9 5.7L98.3 17.9C98.1 17.4 93.4 5.7 93.4 5.7L89 5.7 89 1.5 87.8 1.5 87.8 5.7 85.3 5.7 85.3 6.8 87.8 6.8 87.8 16.1 87.8 16.3C87.8 17.4 88.1 18.1 88.6 18.7 89.4 19.5 90.8 19.5 91.9 19.4L92 19.4 92 18.3 91.9 18.3C90.8 18.3 90 18.3 89.6 17.8 89.3 17.5 89.1 16.9 89.1 16L89.1 6.7 92.5 6.7 97.8 19.2C97.2 20.9 96.8 21.9 96.4 22.3 95.8 22.9 95.1 23.1 93.7 23.1L93.6 23.1 93.6 24.2 93.7 24.2C95.2 24.2 96.2 24.2 96.9 23.6 97.5 23.1 97.9 22.2 98.5 20.8L104.4 5.6 102.9 5.7zM82.4 1.5L82.4 3.4 83.6 3.4 83.6 1.5 83.5 1.5C83.5 1.5 82.4 1.5 82.4 1.5z"/>
    </g>
    <g fill="#231F20" transform="translate(33)">
      <path d="M32.1 20.6C26.7 20.5 22.1 16.3 22.2 10.5 22.3 6 26 .8 32.6 1 37.2 1.1 42.4 4.6 42.3 10.9 42.2 17.3 36.8 20.7 32.1 20.6zM32.3 2.2C28.2 2.2 25.3 5.3 25.3 10.4 25.3 16.5 28.9 19.3 32.4 19.3 36.5 19.3 39.3 16.1 39.3 11.1 39.3 5.6 36.5 2.2 32.3 2.2zM112 1.5L112 1.2 106.6 1.2 106.6 1.5C107.7 1.6 108 1.8 108 3.3L108 9.9 98.2 9.9 98.2 3.3C98.2 1.8 98.5 1.6 99.6 1.5L99.6 1.2 94.2 1.2 94.2 1.5C95.3 1.6 95.6 1.8 95.6 3.3L95.6 18.2C95.6 19.7 95.3 19.9 94.2 20L94.2 20.3 99.6 20.3 99.6 20C98.5 19.9 98.2 19.7 98.2 18.2L98.2 11.1 108 11.1 108 18.2C108 19.7 107.7 19.9 106.6 20L106.6 20.3 112 20.3 112 20C110.9 19.9 110.6 19.7 110.6 18.2L110.6 3.3C110.6 1.8 110.9 1.6 112 1.5zM43.8 1.3L43.8 1.6C44.8 1.7 45.1 1.8 45.1 2.9L45.1 18.3C45.1 19.8 44.8 20 43.7 20.1L43.7 20.4 47.8 20.4 47.8 20.1C46.7 20 46.4 19.8 46.4 18.3L46.4 4.4C46.4 4.7 57 17.6 59.3 20.3L59.7 20.3 59.7 2.8C59.7 1.7 60 1.6 61 1.5L61 1.2 57 1.2 57 1.5C58 1.6 58.3 1.7 58.3 2.8L58.3 14.9 47.2 1.3C47.4 1.3 43.8 1.3 43.8 1.3zM70.5 1.3L70.1 1.3C69.1 3.6 64.7 14.1 63.1 17.8 62.8 18.4 62.4 19.4 62.1 19.8 61.8 20.1 61.6 20.1 61.4 20.1L61.4 20.4 65 20.4 65 20.1C64.7 20.1 64.1 20.1 64 19.6 64 19.4 64 19.2 64.1 19 64.2 18.7 64.9 16.8 65.9 14.7L73.2 14.7C73.9 16.5 74.6 18 74.9 18.7 75 18.9 75.2 19.4 75.2 19.6 75.2 20.1 74.7 20.1 74.2 20.1L74.2 20.4 79.3 20.4 79.3 20.1C78.7 20.1 78.5 19.9 78 18.9 77.9 18.8 70.5 1.3 70.5 1.3zM66.4 13.5C67.6 10.5 69.5 5.7 69.5 5.7 69.5 5.7 71.2 10 72.7 13.5L66.4 13.5zM.1 1.3L.1 1.6C.7 1.6 1 1.7 1.2 1.9 1.3 2 1.3 2.1 1.3 2.2 1.3 2.3 1.3 2.4 1.4 2.5L1.4 2.9 1.4 18.3C1.4 19.8 1.1 20 7.10542736e-15 20.1L7.10542736e-15 20.4 4.1 20.4 4.1 20.1C3 20 2.7 19.8 2.7 18.3L2.7 5.1C2.7 4.8 2.6 4.4 2.6 4.4L2.9 5.1 9.5 20.3 9.9 20.3 16.6 4.6 16.8 4C16.8 4 16.7 4.3 16.7 4.6L16.7 18.3C16.7 19.8 16.4 20 15.3 20.1L15.3 20.4 20.7 20.4 20.7 20.1C19.6 20 19.3 19.8 19.3 18.3L19.3 2.9C19.3 1.8 19.6 1.7 20.6 1.6L20.6 1.3 16.4 1.3 10.3 15.7 4.1 1.3C4.3 1.3.1 1.3.1 1.3zM80.2 19C81.5 19.8 83.4 20.6 85.4 20.6L85.5 20.6C88.5 20.6 91.6 18.4 91.6 14.9 91.6 11.1 89 10.3 86.3 8.9 83.6 7.6 82.5 6.9 82.5 5.1 82.5 3.9 83.2 2.1 85.6 2.1 86.4 2.1 87 2.3 87.6 2.6 89.5 3.7 89.6 5.2 89.9 6.1L90.2 6.1 90 1.9C88.8 1.4 87.8 1.2 87.1 1.1 86.7 1 86.3 1 86 1 83.3 1 80.2 2.6 80.2 6 80.2 8.3 81.6 9.7 84.3 11.1 87 12.5 89 13 89 15.7 89 17.1 88.2 19.5 85.2 19.5 84 19.5 83 19.1 82.3 18.4 80.5 16.7 80.5 15.4 80.4 14.9L80.1 14.9 80.2 19"/>
    </g>
  </g>
</svg>
