<svg xmlns="http://www.w3.org/2000/svg" width="136" height="60" viewBox="0 0 136 60">
  <g fill="none" transform="translate(0 14)">
    <path fill="#000" d="M36.8,24.8 L37.9,24.8 C38,24.8 38,24.9 38,24.9 L38,29.1 C38,29.9 38.1,30.1 38.4,30.4 C38.7,30.6 39,30.8 39.5,30.8 C40,30.8 40.3,30.7 40.6,30.5 C41,30.2 41.1,29.9 41.1,29.2 L41.1,25 C41.1,24.9 41.2,24.9 41.2,24.9 L42,24.9 C42.1,24.9 42.1,25 42.1,25 L42.1,29.6 C42.1,30.4 41.8,31 41.3,31.4 C40.8,31.8 40.2,31.9 39.3,31.9 C38.4,31.9 37.8,31.7 37.3,31.4 C36.7,30.9 36.5,30.4 36.5,29.3 L36.5,25 C36.6,24.9 36.7,24.8 36.8,24.8 Z M48.8,26.4 L48.8,31.6 C48.8,31.7 48.7,31.7 48.7,31.7 L47.9,31.7 C47.8,31.7 47.8,31.6 47.8,31.6 L47.8,25 C47.8,24.9 47.9,24.9 47.9,24.9 L49,24.9 C49.2,24.9 49.3,25 49.4,25.1 L52.4,30 L52.4,25 C52.4,24.9 52.5,24.9 52.5,24.9 L53.3,24.9 C53.4,24.9 53.4,25 53.4,25 L53.4,31.6 C53.4,31.7 53.3,31.7 53.3,31.7 L52.3,31.7 C52.1,31.7 52,31.6 51.9,31.5 L48.8,26.4 Z M59,31.6 L59,25 C59,24.9 59.1,24.9 59.1,24.9 L60.2,24.9 C60.3,24.9 60.3,25 60.3,25 L60.3,31.6 C60.3,31.7 60.2,31.7 60.2,31.7 L59,31.6 C59,31.7 59,31.6 59,31.6 Z M68.4,30.3 L70.1,25 C70.2,24.8 70.2,24.8 70.4,24.8 L71,24.8 C71.1,24.8 71.2,24.8 71.2,24.9 L71.2,25 L69,31.4 C68.9,31.8 68.8,31.8 68.6,31.8 L67.9,31.8 C67.6,31.8 67.6,31.8 67.5,31.5 L65.3,25.1 L65.3,25 C65.3,24.9 65.4,24.9 65.5,24.9 L66.4,24.9 C66.6,24.9 66.7,24.9 66.7,25.1 C66.7,25.1 68.4,30.3 68.4,30.3 Z M77.5,25.8 L77.5,27.6 L79.6,27.6 C79.7,27.6 79.7,27.7 79.7,27.7 L79.7,28.5 C79.7,28.6 79.6,28.6 79.6,28.6 L77.5,28.6 L77.5,30.7 L80.4,30.7 C80.5,30.7 80.5,30.8 80.5,30.8 L80.5,31.6 C80.5,31.7 80.4,31.7 80.4,31.7 L76.3,31.7 C76.2,31.7 76.2,31.6 76.2,31.6 L76.2,25 C76.2,24.9 76.3,24.9 76.3,24.9 L80.2,24.9 C80.3,24.9 80.3,25 80.3,25 L80.3,25.8 C80.3,25.9 80.2,25.9 80.2,25.9 L77.5,25.8 Z M86.8,28.5 L86.8,31.6 C86.8,31.7 86.7,31.7 86.7,31.7 L85.6,31.7 C85.5,31.7 85.5,31.6 85.5,31.6 L85.5,25 C85.5,24.9 85.6,24.9 85.6,24.9 L87.9,24.9 C88.7,24.9 89.1,25 89.5,25.4 C89.8,25.6 90,26 90,26.6 C90,27.6 89.5,28.2 88.5,28.4 L88.5,28.5 C88.6,28.6 88.7,28.7 88.8,29 C89.1,29.4 89.3,29.6 89.4,29.8 L90.5,31.5 C90.6,31.6 90.6,31.7 90.6,31.7 C90.6,31.8 90.5,31.8 90.4,31.8 L89.2,31.8 C89.1,31.8 89.1,31.8 89.1,31.7 L87.1,28.7 C87,28.6 87,28.6 86.9,28.6 L86.8,28.5 Z M86.8,27.8 L87.7,27.8 C88.3,27.8 88.7,27.4 88.7,26.8 C88.7,26.2 88.3,25.8 87.7,25.8 L86.8,25.8 L86.8,27.8 Z M97.6,28.9 L96.6,28.2 C95.9,27.7 95.7,27.3 95.7,26.7 C95.7,25.5 96.6,24.8 98,24.8 C99,24.8 99.7,25 99.7,25.3 L99.7,26 C99.7,26.1 99.7,26.1 99.6,26.1 L99.4,26.1 C98.9,25.9 98.6,25.8 98.1,25.8 C97.5,25.8 97.1,26.1 97.1,26.5 C97.1,26.8 97.3,27 97.8,27.4 L98.9,28.1 C99.6,28.6 99.9,29.1 99.9,29.8 C99.9,31.1 99,31.8 97.5,31.8 C96.4,31.8 95.6,31.5 95.6,31.2 L95.6,30.5 C95.6,30.4 95.6,30.4 95.7,30.4 C95.7,30.4 95.8,30.4 95.9,30.5 C96.4,30.8 96.9,30.9 97.4,30.9 C98.1,30.9 98.5,30.6 98.5,30.1 C98.4,29.5 98.2,29.3 97.6,28.9 Z M105,31.6 L105,25 C105,24.9 105.1,24.9 105.1,24.9 L106.2,24.9 C106.3,24.9 106.3,25 106.3,25 L106.3,31.6 C106.3,31.7 106.2,31.7 106.2,31.7 L105,31.6 Z M113.3,25.8 L111.4,25.8 C111.3,25.8 111.3,25.7 111.3,25.7 L111.3,25 C111.3,24.9 111.4,24.9 111.4,24.9 L116.6,24.9 C116.7,24.9 116.7,25 116.7,25 L116.7,25.7 C116.7,25.8 116.6,25.8 116.6,25.8 L114.6,25.8 L114.6,31.6 C114.6,31.7 114.5,31.7 114.5,31.7 L113.4,31.7 C113.3,31.7 113.3,31.6 113.3,31.6 L113.3,25.8 Z M123.8,29 L121.5,25.1 C121.5,25 121.4,25 121.4,25 C121.4,24.9 121.5,24.9 121.6,24.9 L122.6,24.9 C122.8,24.9 122.9,24.9 123,25.1 L124.6,27.8 L126.1,25 C126.2,24.9 126.2,24.8 126.4,24.8 L127.1,24.8 C127.2,24.8 127.3,24.9 127.3,24.9 L127.3,25 L125.2,28.9 L125.2,31.6 C125.2,31.7 125.1,31.7 125.1,31.7 L124,31.7 C123.9,31.7 123.9,31.6 123.9,31.6 L123.8,29 Z M39.3,5 L39.3,18.7 C39.3,18.9 39.1,19.1 39,19.1 L37,19.1 C36.8,19.1 36.7,18.9 36.7,18.7 L36.7,0.8 C36.7,0.6 36.9,0.4 37,0.4 L40.4,0.4 C41.1,0.4 41.3,0.5 41.5,1.2 L46.4,16 L51,1.6 C51.3,0.6 51.4,0.5 52,0.5 L55.6,0.5 C55.8,0.5 55.9,0.7 55.9,0.9 L55.9,18.8 C55.9,19 55.7,19.2 55.6,19.2 L52.8,19.2 C52.6,19.2 52.5,19 52.5,18.8 L52.5,5 L48.1,18 C47.8,19.1 47.6,19.1 46.9,19.1 L44.7,19.1 C44.2,19.1 44.1,19 43.8,18.1 C43.8,18.1 39.3,5 39.3,5 Z M67.5,18.4 C67,18.4 66.9,18.4 66.6,18.6 L65.8,18.9 C65.2,19.2 64.2,19.3 63.3,19.3 C60.3,19.3 58.7,17.8 58.7,14.9 L58.7,6 C58.7,5.8 58.9,5.7 59,5.7 L61.5,5.7 C61.7,5.7 61.8,5.9 61.8,6 L61.8,13.8 C61.8,15.9 62.6,16.8 64.4,16.8 C66.1,16.8 67.1,16.1 67.1,14.9 L67.1,6 C67.1,5.8 67.2,5.7 67.4,5.7 L70,5.7 C70.2,5.7 70.4,5.9 70.4,6 L70.4,18.7 C70.4,18.9 70.2,19 70,19 L67.8,19 C67.6,19 67.5,18.8 67.5,18.7 L67.5,18.4 Z M76.1,6.5 C76.4,6.5 76.5,6.5 76.8,6.3 C77.8,5.8 78.9,5.6 79.8,5.6 C80.7,5.6 80.9,5.7 80.9,6.2 L80.9,8.2 C80.9,8.5 80.8,8.6 80.5,8.6 L80.2,8.6 L79.7,8.5 L79,8.3 L78.4,8.3 C77,8.3 76.4,8.9 76.4,10.3 L76.4,18.7 C76.4,18.9 76.2,19 76.1,19 L73.6,19 C73.4,19 73.3,18.8 73.3,18.7 L73.3,6 C73.3,5.8 73.5,5.7 73.6,5.7 L75.8,5.7 C76.1,5.7 76.2,5.8 76.2,6 L76.1,6.5 Z M91.6,18.3 C91.4,18.3 91.3,18.3 91,18.5 C90.1,19 89,19.2 88,19.2 C84.2,19.2 81.7,16.5 81.7,12.4 C81.7,8.3 84.3,5.4 88.1,5.4 C89.1,5.4 89.9,5.6 90.7,6.1 C91,6.3 91,6.3 91.4,6.3 L91.4,0.7 C91.4,0.5 91.6,0.4 91.7,0.4 L94.2,0.4 C94.4,0.4 94.5,0.6 94.5,0.7 L94.5,18.7 C94.5,18.9 94.3,19 94.2,19 L92,19 C91.8,19 91.6,18.8 91.6,18.7 L91.6,18.3 Z M91.4,15.1 L91.4,9.7 C91.4,8.3 90.5,7.6 88.7,7.6 C86.3,7.6 85,9.3 85,12.3 C85,15.4 86.3,17 88.7,17 C90.4,17 91.4,16.3 91.4,15.1 Z M96.6,12.4 C96.6,7.9 98.9,5.4 103.1,5.4 C105.1,5.4 106.4,5.8 107.5,6.8 C108.9,8.1 109.6,9.9 109.6,12.3 C109.6,17 107.4,19.5 103,19.5 C100.9,19.5 99.7,19.1 98.6,18.1 C97.3,16.8 96.6,15 96.6,12.4 Z M99.8,12.4 C99.8,15.4 101.1,17.2 103.1,17.2 C105.2,17.2 106.4,15.4 106.4,12.5 C106.4,9.5 105.1,7.6 103.1,7.6 C101.1,7.6 99.8,9.4 99.8,12.4 Z M122.2,16.4 L122.2,17.8 C122.2,18.7 120.3,19.3 117.8,19.3 C113.7,19.3 111.2,16.8 111.2,12.5 C111.2,8.3 113.9,5.4 117.9,5.4 C120.3,5.4 122.1,6 122.1,6.7 L122.1,8.1 C122.1,8.3 122,8.4 121.8,8.4 C121.7,8.4 121.5,8.3 121.3,8.2 C120.5,7.8 119.3,7.5 118.4,7.5 C115.8,7.5 114.4,9.1 114.4,12.1 C114.4,15.3 115.7,16.9 118.3,16.9 C119.4,16.9 120.7,16.6 121.5,16.1 C121.7,16 121.8,15.9 121.9,15.9 C122.1,16 122.2,16.2 122.2,16.4 Z M127.4,6.3 C127.8,6.3 127.8,6.3 128.3,6.1 C129.2,5.6 130.2,5.4 131.3,5.4 C134.2,5.4 136,7.1 136,10 L136,18.7 C136,18.9 135.8,19 135.7,19 L133.2,19 C133,19 132.9,18.8 132.9,18.7 L132.9,11.1 C132.9,8.9 132.1,7.9 130.3,7.9 C128.6,7.9 127.5,8.6 127.5,9.8 L127.5,18.8 C127.5,19 127.3,19.1 127.2,19.1 L124.7,19.1 C124.5,19.1 124.4,18.9 124.4,18.8 L124.4,0.8 C124.4,0.6 124.6,0.5 124.7,0.5 L127.2,0.5 C127.4,0.5 127.5,0.7 127.5,0.8 L127.4,6.3 Z"/>
    <path fill="#E31837" d="M24.6,22.9 L18.8,22.9 C18.1,22.9 16.7,23 15.7,23.6 C14.9,24.1 14.2,25 14.2,25 C14.2,25 13.6,24.1 12.7,23.6 C11.7,23 10.3,22.9 9.6,22.9 L3.8,22.9 C4.3,23.9 5,24.8 5.8,25.7 C10.3,30.2 14.1,31.7 14.1,31.7 C14.1,31.7 17.9,30.3 22.5,25.7 C23.4,24.9 24.1,23.9 24.6,22.9 Z"/>
    <path fill="#8DC63F" d="M28.5,15.7 L27.7,17.6 C27.7,17.6 26.8,18 25.4,18 C24,18 24.1,17.9 22.6,17.9 C19.4,17.9 18,19 18,19 C18,19 18.7,17.5 20.6,16.7 C21.5,16.3 22.3,16.3 22.8,16.3 C23.3,16.3 25,16.5 25.9,16.5 C27,16.5 28.5,15.7 28.5,15.7 Z M0,15.7 L0.8,17.6 C0.8,17.6 1.7,18 3.1,18 C4.5,18 4.4,17.9 5.9,17.9 C9.1,17.9 10.5,19 10.5,19 C10.5,19 9.8,17.5 7.9,16.7 C7,16.3 6.2,16.3 5.7,16.3 C5.2,16.3 3.5,16.5 2.6,16.5 C1.5,16.5 0,15.7 0,15.7 Z"/>
    <path fill="#FDB913" d="M18.1,8.2 C18.1,7.2 17.7,6.3 17.1,5.6 L17,18.6 L16.6,5.1 C16.3,4.8 15.9,4.6 15.5,4.5 L15.3,19.6 L14.9,4.4 C14.7,4.4 14.5,4.3 14.2,4.3 C14,4.3 13.7,4.3 13.5,4.4 L13.2,19.6 L13,4.5 C12.6,4.6 12.2,4.9 11.9,5.1 L11.5,18.6 L11.3,5.6 C10.7,6.3 10.3,7.2 10.3,8.2 C10.3,8.9 10.2,14.1 10.2,16.3 C10.2,18.7 12,19.8 12.8,20.1 C14.1,20.6 14.2,21.7 14.2,21.7 C14.2,21.7 14.3,20.6 15.6,20.1 C16.4,19.8 18.2,18.7 18.2,16.3 C18.3,14.2 18.1,9 18.1,8.2 Z"/>
    <path fill="#5E9732" d="M27.5,20 L19,20 C16.2,20 14.3,21.7 14.2,23.9 C14.3,23.8 15.1,21.6 18.9,21.6 L26.8,21.6 C26.8,21.6 27.5,20 27.5,20 Z M1,20 L9.5,20 C12.3,20 14.2,21.7 14.3,23.9 C14.2,23.8 13.4,21.6 9.6,21.6 L1.7,21.6 L1,20 Z"/>
    <path fill="#E31837" d="M14.3,0.5 L14.4,2 L14.7,2.7 C15.2,2.7 15.6,2.8 16,3 L16,2.9 L16.6,2.4 L17.3,1.1 L17.5,1.1 L17,2.5 L17,3.4 C17.4,3.6 17.8,3.9 18.1,4.3 L18.2,4.3 L19,4.1 L20.1,3.2 L20.2,3.3 L20.2,3.4 L19.1,4.4 L18.8,5.1 C19.1,5.5 19.4,6 19.5,6.5 L20.2,6.6 L21.6,6.2 L21.6,6.4 L20.3,6.9 L19.8,7.5 C19.8,7.8 19.9,8.1 19.9,8.3 L19.9,9.3 L20.5,9.6 L21.9,9.5 L21.9,9.7 L20.5,9.9 L19.9,10.3 L19.9,12 L20.5,12.3 L21.9,12.4 L21.9,12.6 L20.5,12.7 L20,12.8 L20,14.4 L20.6,14.7 L22,14.8 L22,15 L20.6,15.1 L20,15.4 L20,16.3 C20,16.5 20,16.8 19.9,17 L20.5,16.7 C21.4,16.3 22.2,16.3 22.7,16.3 C23.2,16.3 24.9,16.5 25.8,16.5 L26.3,16.5 C26.3,16 26.4,15.7 26.4,15.4 L26.4,0.5 L14.3,0.5 Z M2,15.3 L2,16.4 L2.5,16.4 C3.5,16.4 5.1,16.2 5.6,16.2 C6.1,16.2 6.9,16.3 7.8,16.6 L8.4,16.9 C8.4,16.6 8.3,16.4 8.3,16.2 L8.3,15.3 L7.8,15 L6.4,14.9 L6.4,14.7 L7.8,14.6 L8.4,14.3 L8.4,12.6 L7.9,12.3 L6.5,12.2 L6.5,12 L7.9,11.9 L8.5,11.6 L8.5,9.8 L8,9.7 L6.6,9.6 L6.6,9.4 L8,9.5 L8.6,9.3 L8.6,8.3 C8.6,8 8.6,7.7 8.7,7.4 L8.2,6.8 L6.9,6.3 L6.9,6.1 L8.3,6.5 L9,6.4 C9.2,5.9 9.4,5.4 9.7,5 L9.4,4.3 L8.3,3.3 L8.3,3.2 L8.4,3.1 L9.5,4 L10.3,4.2 C10.6,3.9 11,3.6 11.5,3.3 L11.5,2.5 L11,1.2 L11.2,1.2 L11.9,2.5 L12.5,3 L12.5,3.1 L13.8,2.8 L14.1,2.1 L14.2,0.6 L2,0.6 L2,15.3 Z"/>
  </g>
</svg>
