<svg xmlns="http://www.w3.org/2000/svg" width="132" height="60" viewBox="0 0 132 60">
  <g fill="none" transform="translate(0 7)">
    <g fill="#010101" transform="translate(37 2)">
      <path d="M68 1.5L71.4 1.5 71.4.2 59.3.2 59.3 1.5 62.8 1.5 62.8 25.9 59.3 25.9 59.3 27.1 71.4 27.1 71.4 25.9 68 25.9 68 1.5zM90 27.1L90 25.8 86.3 25.8 86.3 1.2C92 .9 92.9 2.1 93.7 7.3L94.9 7.3 94.5.2 73 .2 72.6 7.3 73.9 7.3C74.6 2.2 75.6.9 81.3 1.2L81.3 25.8 77.6 25.8 77.6 27.1 90 27.1zM8.9 11.8L8.9 1.5 12.4 1.5C16 1.5 17.3 2.4 17.3 6.9 17.3 10.5 15.8 11.7 12.2 11.7L8.9 11.8zM57 1.5L57 .2 47.1.2 41.3 18.6 35.7.2 25.8.2 25.8 1.5 29.3 1.5 29.3 25.8 25.5 25.8C22 25.9 22 23 22 22.4 22 15.8 20.6 13.5 14.3 12.5L14.3 12.4C18 12 22.8 10.9 22.8 6.4 22.8.8 17.6.3 13.2.3L.2.3.2 1.6 3.7 1.6 3.7 25.9.2 25.9.2 27.2 12.3 27.2 12.3 25.9 8.8 25.9 8.8 13C11 12.9 13.5 13.5 14.7 14.5 15.7 15.4 16.3 18.1 16.3 21.5 16.3 25.6 18.4 27.2 22.5 27.2L34.2 27.2 34.2 25.9 30.8 25.9 30.8 1.9 30.9 1.9 38.9 27.1 40.3 27.1 48.4 1.9 48.5 1.9 48.5 25.8 45 25.8 45 27.1 57 27.1 57 25.8 53.5 25.8 53.5 1.5 57 1.5z"/>
    </g>
    <path fill="#EE3625" d="M15.9,0.6 L11.9,0.6 L11.9,3.9 L5.2,3.9 L5.2,10.7 L0.2,10.7 L0.2,20.7 L5.2,20.7 L5.2,27.5 L11.9,27.5 L11.9,30.8 L15.4,30.8 C23.7,30.8 31,24.1 31,15.8 C30.9,7.5 24.1,0.6 15.9,0.6"/>
    <path fill="#010101" d="M40.7,37.3 C40.7,37.1 40.6,37 40.4,37 L39.8,37 L39.8,35.7 L41.3,35.7 C42,35.7 42.3,36 42.3,36.7 L42.3,42.5 C42.3,44.1 43.3,45 44.8,45 C46.3,45 47.3,44.1 47.3,42.5 L47.3,36.7 C47.3,36 47.6,35.7 48.3,35.7 L49.8,35.7 L49.8,37 L49.2,37 C49,37 48.9,37.1 48.9,37.3 L48.9,42.5 C48.9,44.8 47.3,46.4 44.9,46.4 C42.5,46.4 40.9,44.8 40.9,42.5 L40.9,37.3 L40.7,37.3 Z M50.7,44.9 L51.3,44.9 C51.5,44.9 51.6,44.8 51.6,44.6 L51.6,35.7 L53,35.7 L57.7,42.4 C58.1,43 58.6,43.8 58.6,43.8 C58.6,43.8 58.5,43 58.5,42.4 L58.5,36.7 C58.5,36 58.8,35.7 59.5,35.7 L61,35.7 L61,37 L60.4,37 C60.2,37 60.1,37.1 60.1,37.3 L60.1,46.2 L58.8,46.2 L54,39.5 C53.6,38.9 53.1,38.1 53.1,38.1 C53.1,38.1 53.2,38.9 53.2,39.5 L53.2,45.2 C53.2,45.9 52.9,46.2 52.2,46.2 L50.7,46.2 C50.7,46.2 50.7,44.9 50.7,44.9 Z M62.6,44.9 L63.6,44.9 L63.6,36.9 L62.6,36.9 L62.6,35.6 L66.1,35.6 L66.1,36.9 L65.1,36.9 L65.1,44.9 L66.1,44.9 L66.1,46.2 L62.6,46.2 L62.6,44.9 Z M67.7,37.3 C67.6,37 67.5,37 67.2,37 L67,37 L67,35.7 L67.8,35.7 C68.5,35.7 68.8,35.9 69,36.6 L71.3,43.1 C71.5,43.7 71.7,44.5 71.7,44.5 C71.7,44.5 71.9,43.6 72.1,43.1 L74.4,36.6 C74.7,35.9 74.9,35.7 75.6,35.7 L76.4,35.7 L76.4,37 L76.2,37 C75.9,37 75.8,37.1 75.7,37.3 L72.4,46.2 L71,46.2 L67.7,37.3 Z M78.5,36.9 L77.5,36.9 L77.5,35.6 L83.7,35.6 C84.4,35.6 84.7,35.9 84.7,36.6 L84.7,37.9 L83.3,37.9 L83.3,37.2 C83.3,37 83.2,36.9 83,36.9 L80,36.9 L80,40.2 L83.7,40.2 L83.7,41.5 L80,41.5 L80,44.6 C80,44.8 80.1,44.9 80.3,44.9 L83.4,44.9 C83.6,44.9 83.7,44.8 83.7,44.6 L83.7,43.9 L85.1,43.9 L85.1,45.2 C85.1,45.9 84.8,46.2 84.1,46.2 L79.4,46.2 C78.7,46.2 78.4,45.9 78.4,45.2 L78.5,36.9 Z M87.2,36.9 L86.2,36.9 L86.2,35.6 L90.8,35.6 C92.7,35.6 94,36.8 94,38.7 C94,40.5 92.9,41.3 92.1,41.5 C92.1,41.5 92.4,41.6 92.5,42 L93.8,44.5 C93.9,44.8 94.2,44.8 94.5,44.8 L94.7,44.8 L94.7,46.1 L94,46.1 C93.2,46.1 92.9,46 92.5,45.3 L91.1,42.5 C90.8,42 90.6,41.9 90.1,41.9 L88.7,41.9 L88.7,46.1 L87.2,46.1 C87.2,46.1 87.2,36.9 87.2,36.9 Z M90.6,40.7 C91.7,40.7 92.4,40 92.4,38.8 C92.4,37.6 91.7,36.9 90.6,36.9 L88.6,36.9 L88.6,40.7 L90.6,40.7 Z M96.6,43.7 C96.6,43.7 97.7,45 99.2,45 C100.2,45 101,44.4 101,43.4 C101,41.2 95.9,41.5 95.9,38.3 C95.9,36.7 97.3,35.5 99.3,35.5 C100.4,35.5 102.3,36 102.3,37.4 L102.3,38.3 L101,38.3 L101,37.8 C101,37.2 100.2,36.8 99.4,36.8 C98.3,36.8 97.5,37.4 97.5,38.2 C97.5,40.3 102.6,39.9 102.6,43.3 C102.6,44.9 101.3,46.3 99.3,46.3 C97.1,46.3 95.8,44.7 95.8,44.7 L96.6,43.7 Z M104.1,44.9 L105.1,44.9 L105.1,36.9 L104.1,36.9 L104.1,35.6 L107.6,35.6 L107.6,36.9 L106.6,36.9 L106.6,44.9 L107.6,44.9 L107.6,46.2 L104.1,46.2 L104.1,44.9 Z M112.4,36.9 L110.3,36.9 C110.1,36.9 110,37 110,37.2 L110,37.9 L108.7,37.9 L108.7,36.5 C108.7,35.8 108.9,35.6 109.6,35.6 L116.9,35.6 C117.6,35.6 117.8,35.8 117.8,36.5 L117.8,37.9 L116.5,37.9 L116.5,37.2 C116.5,37 116.4,36.9 116.2,36.9 L114.1,36.9 L114.1,46.2 L112.6,46.2 L112.6,36.9 L112.4,36.9 Z M121.9,41.6 L119.2,37.3 C119,37 118.9,36.9 118.6,36.9 L118.3,36.9 L118.3,35.6 L119,35.6 C119.7,35.6 120,35.7 120.4,36.4 L122,39.1 L122.6,40.3 L123.2,39.1 L124.8,36.4 C125.2,35.7 125.5,35.6 126.2,35.6 L126.9,35.6 L126.9,36.9 L126.6,36.9 C126.3,36.9 126.1,37 125.9,37.3 L123.2,41.6 L123.2,46.2 L121.7,46.2 L121.7,41.6 L121.9,41.6 Z"/>
  </g>
</svg>
