<svg xmlns="http://www.w3.org/2000/svg" width="99" height="60" viewBox="0 0 99 60">
  <g fill="none" transform="translate(0 5)">
    <polygon fill="#ED1C2E" stroke="#ED1C2E" stroke-width=".2" points="49.5 .1 98.5 .1 98.5 49.1 49.5 49.1"/>
    <path fill="#FFF" stroke="#FFF" stroke-width=".15" d="M60.1,18.5 C59.8,18.5 59.6,18.5 59.3,18.4 L59.3,18 C59.6,18.2 59.8,18.3 60.2,18.3 C60.8,18.3 61.2,18.1 61.2,17.6 C61.2,17.2 60.9,17.1 60.6,16.9 L59.9,16.5 C59.5,16.3 59.3,16 59.3,15.6 C59.3,15 59.9,14.7 60.5,14.7 C60.8,14.7 61,14.7 61.3,14.8 L61.3,15.2 C61.1,15 60.9,15 60.6,14.9 C60.2,14.9 59.7,15.2 59.8,15.6 C59.8,15.9 60,16 60.2,16.1 L60.8,16.4 C61.3,16.7 61.6,16.8 61.7,17.4 C61.6,18.3 60.8,18.5 60.1,18.5 Z M66.5,14.9 L66.4,15.1 L65.2,18.6 L64.2,16 L63.2,18.7 L61.9,15.1 C61.9,15 61.9,15 61.8,15 C61.8,14.9 61.7,14.9 61.7,14.9 L62.4,14.9 L62.4,15.1 L63.3,17.7 L64.1,15.6 L63.9,15.1 C63.9,15 63.8,15 63.8,15 L63.7,14.9 L64.4,14.9 L64.4,15.2 L65.3,17.8 L66.2,15.3 C66.2,15.2 66.3,15.2 66.2,15.1 L66.2,15 L66.8,15 C66.6,14.8 66.6,14.8 66.5,14.9 Z M67.7,14.9 L67.7,18.4 C67.7,18.5 67.7,18.5 67.8,18.5 L67.2,18.5 C67.2,18.5 67.2,18.4 67.3,18.4 L67.3,15 C67.3,14.9 67.3,14.9 67.2,14.8 L67.7,14.9 C67.7,14.8 67.7,14.8 67.7,14.9 Z M71.9,14.9 L71.9,18.6 L68.9,15.3 L68.9,18.6 L68.4,18.6 C68.4,18.5 68.5,18.5 68.5,18.5 L68.5,15 C68.5,14.9 68.4,14.9 68.4,14.9 L69,14.9 L71.6,17.9 L71.6,14.9 L71.9,14.9 C71.9,14.8 71.9,14.8 71.9,14.9 Z M73.5,18.5 L72.5,18.5 C72.5,18.5 72.5,18.4 72.6,18.4 L72.6,15.1 C72.6,15 72.6,15 72.5,14.9 C72.5,14.8 72.5,14.8 72.4,14.8 L73.5,14.8 C74,14.8 74.4,15.2 74.4,15.7 C74.4,16.1 74.3,16.2 74,16.4 L73.9,16.5 L74.1,16.6 C74.5,16.7 74.7,17 74.7,17.5 C74.8,18.1 74.3,18.5 73.5,18.5 Z M73.4,15 L73,15 L73,16.3 L73.3,16.3 C73.8,16.3 74.1,16 74.1,15.6 C74.1,15.2 73.9,15 73.4,15 Z M73.4,16.6 L73.1,16.6 L73.1,18.2 C73.2,18.2 73.3,18.3 73.5,18.2 C74,18.2 74.5,17.9 74.5,17.4 C74.4,16.7 73.9,16.6 73.4,16.6 Z M78.4,14.9 L78.4,17.3 C78.4,18 77.8,18.5 77,18.6 C76.2,18.6 75.5,18.1 75.5,17.3 L75.5,14.7 L76,14.7 L76,17.2 C76,17.8 76.5,18.2 77.1,18.2 C77.7,18.2 78.1,17.8 78.1,17.2 L78.1,14.7 L78.6,14.7 C78.4,14.8 78.4,14.8 78.4,14.9 Z M81.2,18.5 L79.7,16.5 C79.7,16.4 79.6,16.4 79.6,16.4 L79.5,16.4 L79.5,18.3 C79.5,18.4 79.5,18.4 79.6,18.5 L79,18.5 L79.1,18.3 L79.1,14.8 C79.1,14.7 79.1,14.7 79,14.6 L80.1,14.6 C80.6,14.6 81,14.9 81,15.5 C81,16 80.5,16.5 80,16.4 L80.1,16.5 L80.4,16.8 L81.3,17.9 C81.4,18.1 81.5,18.2 81.6,18.3 L81.8,18.5 C81.8,18.5 81.2,18.5 81.2,18.5 Z M79.9,14.9 C79.7,14.9 79.6,14.9 79.5,15 L79.5,16.3 L79.8,16.3 C80.3,16.3 80.6,16 80.6,15.6 C80.6,15.3 80.5,15 79.9,14.9 Z M85.5,14.9 L85.5,18.6 L82.5,15.3 L82.5,18.6 L82,18.6 C82,18.5 82.1,18.5 82.1,18.5 L82.1,15 C82.1,14.9 82,14.9 82,14.9 L82.6,14.9 L85.2,17.9 L85.2,14.9 L85.5,14.9 C85.5,14.8 85.5,14.8 85.5,14.9 Z M88.4,18.5 L86.2,18.5 C86.2,18.4 86.3,18.4 86.3,18.4 L86.3,14.9 C86.3,14.9 86.3,14.8 86.2,14.8 L88.1,14.8 L88.1,15.1 L88,15 L86.8,15 L86.8,16.2 L88.2,16.2 L88.2,16.6 L88,16.5 L86.8,16.5 L86.8,18.2 L88,18.2 C88.2,18.2 88.3,18.2 88.4,18.1 C88.5,18.1 88.5,18.1 88.6,18 L88.4,18.5 Z M58.2,21.3 L58.2,23.7 C58.2,24.4 57.6,24.9 56.8,25 C56,25 55.3,24.5 55.3,23.7 L55.3,21.1 L55.8,21.1 L55.8,23.6 C55.8,24.2 56.3,24.6 56.9,24.6 C57.5,24.6 57.9,24.2 57.9,23.6 L57.9,21.3 C57.9,21.2 57.9,21.2 57.8,21.1 L58.3,21.1 C58.2,21.2 58.2,21.3 58.2,21.3 Z M62.3,21.3 L62.3,25 L59.3,21.7 L59.3,25 L58.8,25 C58.8,24.9 58.9,24.9 58.9,24.9 L58.9,21.4 C58.9,21.3 58.8,21.3 58.8,21.3 L59.4,21.3 L62,24.3 L62,21.3 L62.3,21.3 C62.3,21.2 62.3,21.3 62.3,21.3 Z M63.5,21.3 L63.5,24.8 C63.5,24.9 63.5,24.9 63.6,24.9 L63,24.9 C63,24.9 63,24.8 63.1,24.8 L63.1,21.4 C63.1,21.3 63.1,21.3 63,21.2 L63.5,21.3 C63.6,21.2 63.6,21.3 63.5,21.3 Z M67.7,21.3 C67.7,21.4 67.6,21.4 67.7,21.3 L66,24.9 L64.3,21.3 C64.3,21.3 64.3,21.2 64.2,21.2 C64.2,21.1 64.1,21.1 64.1,21.1 L64.7,21.1 L64.7,21.3 L66,24.1 L67.3,21.4 L67.4,21.2 L67.4,21.1 L67.9,21.1 C67.8,21.2 67.8,21.3 67.7,21.3 Z M70.6,24.9 L68.4,24.9 C68.4,24.8 68.5,24.8 68.5,24.8 L68.5,21.3 C68.5,21.3 68.5,21.2 68.4,21.2 L70.3,21.2 L70.3,21.6 L70.2,21.5 L69,21.5 L69,22.7 L70.4,22.7 L70.4,23.1 L70.2,23 L69,23 L69,24.7 L70.2,24.7 C70.4,24.7 70.5,24.7 70.6,24.6 C70.7,24.6 70.7,24.6 70.8,24.5 L70.6,24.9 Z M73.4,24.9 L71.9,22.9 C71.9,22.8 71.8,22.8 71.8,22.8 L71.7,22.8 L71.7,24.7 C71.7,24.8 71.7,24.8 71.8,24.9 L71.2,24.9 L71.3,24.7 L71.3,21.2 C71.3,21.1 71.3,21.1 71.2,21 L72.3,21 C72.8,21 73.2,21.3 73.2,21.9 C73.2,22.4 72.7,22.9 72.2,22.8 L72.3,22.9 L72.6,23.2 L73.5,24.3 C73.6,24.5 73.7,24.6 73.8,24.7 L74,24.9 C74,24.9 73.4,24.9 73.4,24.9 Z M72.1,21.4 C71.9,21.4 71.8,21.4 71.7,21.5 L71.7,22.8 L72,22.8 C72.5,22.8 72.8,22.5 72.8,22.1 C72.8,21.7 72.7,21.4 72.1,21.4 Z M74.9,25 C74.6,25 74.4,25 74.1,24.9 L74.1,24.5 C74.4,24.7 74.6,24.8 75,24.8 C75.6,24.8 76,24.6 76,24.1 C76,23.7 75.7,23.6 75.4,23.4 L74.7,23 C74.3,22.8 74.1,22.5 74.1,22.1 C74.1,21.5 74.7,21.2 75.3,21.2 C75.6,21.2 75.8,21.2 76.1,21.3 L76.1,21.7 C75.9,21.5 75.7,21.5 75.4,21.4 C75,21.4 74.5,21.7 74.6,22.1 C74.6,22.4 74.8,22.5 75,22.6 L75.6,22.9 C76.1,23.2 76.4,23.3 76.5,23.9 C76.4,24.8 75.6,25 74.9,25 Z M77.5,21.3 L77.5,24.8 C77.5,24.9 77.5,24.9 77.6,24.9 L77,24.9 C77,24.9 77,24.8 77.1,24.8 L77.1,21.4 C77.1,21.3 77.1,21.3 77,21.2 L77.5,21.3 C77.5,21.2 77.5,21.3 77.5,21.3 Z M80.8,21.5 L79.8,21.5 L79.8,24.8 C79.8,24.9 79.8,24.9 79.9,24.9 L79.3,24.9 C79.3,24.9 79.3,24.8 79.4,24.8 L79.4,21.5 L78.4,21.5 C78.3,21.5 78.3,21.5 78.2,21.6 L78.3,21.2 L81.1,21.2 L81.1,21.6 C80.9,21.5 80.8,21.5 80.8,21.5 Z M84.1,21.3 L84,21.5 L83,23 L83,24.9 L82.5,24.9 L82.5,23 L81.5,21.4 C81.5,21.3 81.4,21.3 81.4,21.3 L81.3,21.2 L81.9,21.2 L81.9,21.3 C81.9,21.4 81.9,21.4 82,21.5 L82.8,22.8 L83.7,21.5 C83.7,21.5 83.7,21.4 83.8,21.4 L83.8,21.3 L84.3,21.3 C84.2,21.2 84.1,21.2 84.1,21.3 Z M88.1,24.9 C87.1,24.9 86.2,24 86.2,23 C86.2,21.9 87.1,21.1 88.2,21.1 C89.3,21.1 90,22 90.1,23 C90,24.1 89.1,24.9 88.1,24.9 Z M88.1,21.4 C87.2,21.4 86.6,22.1 86.6,23 C86.6,23.8 87.2,24.6 88.1,24.6 C89,24.6 89.6,23.8 89.6,23 C89.6,22.1 89,21.4 88.1,21.4 Z M92.3,22.9 L91.1,22.9 L91.1,24.9 L90.6,24.9 C90.6,24.8 90.6,24.8 90.7,24.8 L90.7,21.3 C90.7,21.3 90.7,21.2 90.6,21.2 L92.5,21.2 L92.5,21.6 C92.4,21.6 92.4,21.5 92.4,21.5 L91.2,21.5 L91.2,22.7 L92.6,22.7 L92.6,23 C92.4,23 92.4,22.9 92.3,22.9 Z M59,27.9 L58,27.9 L58,31.2 C58,31.3 58,31.3 58.1,31.3 L57.5,31.3 C57.5,31.3 57.5,31.2 57.6,31.2 L57.6,27.9 L56.6,27.9 C56.5,27.9 56.5,27.9 56.4,28 L56.5,27.6 L59.3,27.6 L59.3,28 C59.1,27.9 59.1,27.9 59,27.9 Z M62,31.4 L59.8,31.4 C59.8,31.3 59.9,31.3 59.9,31.3 L59.9,27.8 C59.9,27.8 59.9,27.7 59.8,27.7 L61.7,27.7 L61.7,28.1 L61.6,28 L60.4,28 L60.4,29.1 L61.8,29.1 L61.8,29.5 L61.6,29.4 L60.4,29.4 L60.4,31.1 L61.5,31.1 C61.7,31.1 61.8,31.1 61.9,31 C62,31 62,31 62.1,30.9 L62,31.4 Z M65.3,31.3 C65,31.4 64.8,31.4 64.4,31.4 C63.2,31.5 62.2,30.6 62.2,29.5 C62.2,28.4 63.1,27.5 64.3,27.6 C64.6,27.6 64.9,27.6 65.2,27.8 L65.2,28.1 C64.9,27.9 64.7,27.9 64.3,27.9 C63.3,27.9 62.6,28.6 62.6,29.5 C62.6,30.5 63.4,31.1 64.3,31.1 C64.6,31.1 65,31 65.4,30.8 C65.4,30.8 65.3,31.3 65.3,31.3 Z M68.4,31.3 L68.5,31.1 L68.5,29.3 L66.5,29.3 L66.5,31.1 C66.5,31.1 66.5,31.2 66.6,31.2 L66,31.2 C66,31.2 66,31.1 66.1,31.1 L66.1,27.6 C66.1,27.5 66.1,27.5 66,27.4 L66.6,27.4 C66.6,27.5 66.6,27.5 66.5,27.5 L66.5,29.1 L68.5,29.1 L68.5,27.8 C68.5,27.7 68.5,27.7 68.4,27.6 L69,27.6 C69,27.7 69,27.7 68.9,27.8 L68.9,31.2 C68.9,31.3 68.9,31.3 69,31.4 L68.4,31.3 Z M73.1,27.8 L73.1,31.5 L70.1,28.2 L70.1,31.5 L69.6,31.5 C69.6,31.4 69.7,31.4 69.7,31.4 L69.7,27.9 C69.7,27.8 69.6,27.8 69.6,27.8 L70.2,27.8 L72.8,30.8 L72.8,27.8 L73.1,27.8 C73.1,27.7 73.1,27.7 73.1,27.8 Z M75.6,31.4 C74.6,31.4 73.7,30.5 73.7,29.5 C73.7,28.4 74.6,27.6 75.7,27.6 C76.8,27.6 77.5,28.5 77.6,29.5 C77.6,30.6 76.7,31.4 75.6,31.4 Z M75.7,27.8 C74.8,27.8 74.2,28.5 74.2,29.4 C74.2,30.2 74.8,31 75.7,31 C76.6,31 77.2,30.2 77.2,29.4 C77.1,28.6 76.5,27.9 75.7,27.8 Z M80.4,31.3 L78.2,31.3 C78.2,31.3 78.2,31.2 78.3,31.2 L78.3,27.7 C78.3,27.6 78.3,27.6 78.2,27.5 L78.8,27.5 C78.8,27.6 78.8,27.6 78.7,27.6 L78.7,30.9 L80.3,30.9 C80.4,30.9 80.4,30.9 80.5,30.8 L80.4,31.3 Z M82.5,31.4 C81.5,31.4 80.6,30.5 80.6,29.5 C80.6,28.4 81.5,27.6 82.6,27.6 C83.7,27.6 84.4,28.5 84.5,29.5 C84.4,30.6 83.5,31.4 82.5,31.4 Z M82.5,27.8 C81.6,27.8 81,28.5 81,29.4 C81,30.2 81.6,31 82.5,31 C83.4,31 84,30.2 84,29.4 C84,28.6 83.4,27.9 82.5,27.8 Z M88.4,29.6 L88.4,31 C88.1,31.2 87.7,31.4 87.2,31.4 C86,31.5 85.1,30.6 85.1,29.5 C85.1,28.3 86,27.6 87.1,27.6 C87.5,27.6 87.7,27.6 88.1,27.8 L88.1,28.1 C87.7,27.9 87.4,27.9 87.1,27.9 C86,27.9 85.5,28.7 85.5,29.5 C85.5,30.4 86.3,31.1 87.2,31.1 C87.5,31.1 87.8,31 88,30.9 L88,29.7 L87.9,29.5 L88.5,29.5 C88.4,29.5 88.4,29.6 88.4,29.6 Z M91.4,27.7 L91.3,27.9 L90.3,29.4 L90.3,31.3 L89.8,31.3 L89.8,29.4 L88.8,27.8 C88.8,27.7 88.7,27.7 88.7,27.7 L88.6,27.6 L89.2,27.6 L89.2,27.7 C89.2,27.8 89.2,27.8 89.3,27.9 L90.1,29.2 L91,27.9 C91,27.9 91,27.8 91.1,27.8 L91.1,27.7 L91.6,27.7 C91.6,27.7 91.4,27.7 91.4,27.7 Z"/>
    <path fill="#000" stroke="#000" stroke-width=".2" d="M0.5,0.1 L49.5,0.1 L49.5,49.1 L0.5,49.1 C0.5,49.1 0.5,0.1 0.5,0.1 Z"/>
    <path fill="#FFF" d="M8.4,16.5 C7.3,16.5 6.6,16.5 5.6,16.1 L5.6,14.8 C6.5,15.6 7.4,15.6 8.5,15.7 C10.5,15.8 11.7,14.9 11.7,13.3 C11.7,12.1 10.8,11.5 9.8,10.9 L7.5,9.6 C6.3,8.9 5.5,8 5.5,6.7 C5.5,4.7 7.4,3.5 9.6,3.6 C10.6,3.6 11.2,3.6 12.1,4 L12.1,5.3 C11.4,4.6 10.7,4.5 9.7,4.4 C8.3,4.3 6.8,5.2 6.9,6.6 C7,7.5 7.6,8 8.4,8.4 L10.4,9.6 C11.9,10.5 13.2,10.9 13.3,13.1 C13.4,15.9 10.7,16.6 8.4,16.5 Z M28.8,5 C28.7,5.2 28.6,5.3 28.6,5.5 L24.6,16.6 L21.5,8.1 L18.4,16.6 L14.2,5.2 C14.2,5 14.1,4.9 14,4.8 C13.9,4.6 13.8,4.5 13.6,4.4 L15.8,4.4 C15.7,4.5 15.7,4.6 15.7,4.8 L15.7,5.2 L18.6,13.5 L21.1,6.8 L20.5,5.3 L20.2,4.8 C20.1,4.7 20,4.6 19.9,4.4 L22.1,4.4 C22,4.5 22,4.6 22,4.7 L22,5.3 L24.9,13.5 L27.6,5.4 C27.7,5.2 27.8,5 27.7,4.8 C27.7,4.6 27.7,4.5 27.6,4.4 L29.4,4.4 C29.1,4.6 29,4.7 28.8,5 Z M30.6,7.9 L29.1,7.9 L29.1,8 C29.2,8.1 29.2,8.2 29.3,8.4 C29.4,8.6 29.4,8.7 29.4,8.8 L29.4,15.6 C29.4,15.8 29.4,15.9 29.3,16 L29.2,16.3 L29.2,16.4 L30.7,16.4 L30.7,16.3 C30.7,16.3 30.7,16.2 30.6,16.2 L30.5,16 L30.5,8.7 C30.5,8.6 30.5,8.5 30.6,8.2 L30.6,7.9 Z M43.5,4.9 L43.5,16.7 L33.8,6.1 L33.8,15 C33.8,15.4 33.8,15.4 33.9,15.9 L34,16.4 L32.5,16.4 C32.6,16.2 32.7,16.1 32.7,16 C32.8,15.8 32.8,15.6 32.8,15.4 L32.8,5.4 C32.8,5.2 32.8,5.1 32.7,4.9 C32.6,4.7 32.5,4.6 32.4,4.5 L34.2,4.5 L42.6,14 L42.6,6.4 C42.6,5.8 42.6,5.5 42.5,4.9 L42.4,4.4 L43.7,4.4 C43.5,4.6 43.5,4.7 43.5,4.9 Z M14,30.4 L10.8,30.4 L11,30.1 C11.1,29.9 11.1,29.7 11.1,29.5 L11.1,19.7 C11.1,19.4 11.1,19.3 10.9,19 C10.8,18.8 10.8,18.7 10.6,18.6 L14.2,18.6 C15.7,18.6 16.9,19.9 17,21.5 C17,22.6 16.6,23.2 15.7,23.7 L15.3,24 L15.8,24.2 C17.1,24.6 17.9,25.6 17.9,27.2 C17.9,29.1 16.4,30.4 14,30.4 Z M13.5,19.3 L12.3,19.3 L12.3,23.6 L13.3,23.6 C15,23.6 15.8,22.7 15.8,21.4 C15.8,20.1 15,19.3 13.5,19.3 Z M13.5,24.3 C13.1,24.3 12.9,24.3 12.5,24.4 L12.5,29.5 C12.9,29.6 13.2,29.7 13.7,29.6 C15.3,29.5 16.8,28.6 16.7,26.9 C16.6,24.9 15.1,24.4 13.5,24.3 Z M29.1,19 L29.1,26.6 C29.1,28.9 27.1,30.6 24.7,30.6 C22.1,30.6 19.9,28.9 19.9,26.5 L19.9,19.1 C19.9,18.8 19.8,18.7 19.8,18.5 L21.4,18.5 C21.3,18.7 21.3,18.8 21.3,19 L21.3,26.4 C21.3,28.2 22.9,29.7 24.8,29.6 C26.6,29.6 27.9,28.2 27.9,26.5 L27.9,19.1 C27.9,18.9 27.8,18.8 27.7,18.6 L29.4,18.6 C29.2,18.6 29.1,18.8 29.1,19 Z M38.5,30.4 L33.7,24.2 C33.6,24 33.5,23.9 33.4,23.8 C33.3,23.7 33.3,23.7 33.2,23.7 L33.2,29.8 C33.2,30 33.3,30.2 33.4,30.4 L31.6,30.4 C31.7,30.2 31.8,30.1 31.8,29.9 L31.8,20.1 C31.8,19.7 31.8,19.4 31.7,19 C31.7,18.8 31.6,18.7 31.5,18.5 L35.1,18.5 C36.7,18.5 38.1,19.5 38,21.2 C38,22.9 36.5,24.3 34.8,24 L35,24.2 C35.3,24.5 35.5,24.7 35.8,25.1 L38.6,28.7 C39,29.2 39.3,29.6 39.6,29.9 L40.2,30.4 L38.5,30.4 Z M34.4,19.2 C33.9,19.2 33.6,19.2 33.1,19.4 L33.1,23.5 L34.1,23.5 C35.7,23.4 36.7,22.5 36.6,21.2 C36.7,20.3 36.4,19.2 34.4,19.2 Z M26,33 L26,44.8 L16.4,34.1 L16.4,43 C16.4,43.4 16.4,43.4 16.5,43.9 L16.6,44.4 L15.1,44.4 C15.2,44.2 15.3,44.1 15.3,44 C15.4,43.8 15.4,43.6 15.4,43.4 L15.4,33.4 C15.4,33.2 15.4,33.1 15.3,32.9 C15.2,32.7 15.1,32.6 15,32.5 L16.8,32.5 L25.2,42 L25.2,34.4 C25.2,33.8 25.2,33.5 25.1,32.9 L25,32.4 L26.3,32.4 C26.1,32.7 26.1,32.8 26,33 Z M35.6,44.4 L28.7,44.4 C28.8,44.2 28.9,44.1 28.9,44 C29,43.8 28.9,43.6 28.9,43.4 L28.9,33.4 C28.9,33.2 28.9,33.1 28.8,32.9 L28.6,32.6 L34.7,32.6 L34.7,33.8 C34.6,33.7 34.4,33.6 34.2,33.5 C33.9,33.4 33.7,33.5 33.5,33.5 L30.3,33.5 L30.3,37.4 L34.7,37.4 L34.7,38.5 C34.5,38.4 34.3,38.3 34,38.3 L30.3,38.3 L30.3,43.6 L34.1,43.6 C34.6,43.6 34.9,43.6 35.4,43.4 C35.6,43.3 35.8,43.3 35.9,43.1 C35.9,43.1 35.6,44.4 35.6,44.4 Z M7.5,36.3 C7.6,36.3 7.8,36.4 7.8,36.4 L8.1,36.4 L8.4,36.6 L8.5,36.8 L8.5,37.4 C8.5,37.5 8.6,37.6 8.7,37.6 C8.8,37.6 8.9,37.5 8.9,37.4 L8.9,37.3 C8.9,37.2 8.7,37 8.9,36.6 C9,36.4 9.2,36.3 9.4,36.3 L9.7,36.3 C9.8,36.3 9.9,36.2 9.9,36.2 C9.9,36.2 10,36.2 10,36.3 L10,36.4 C10,36.5 10.1,36.8 10.1,36.8 C10.1,36.9 10.1,37.1 10,37.2 C10,37.3 9.9,37.3 9.8,37.4 C9.6,37.5 9.2,37.4 9.2,37.7 L9.2,37.8 L9.3,37.9 C9.4,37.9 9.5,37.8 9.7,37.7 C9.8,37.7 10,37.6 10,37.6 L10.1,37.6 C10.1,37.6 10.3,37.6 10.3,37.7 C10.4,37.8 10.5,38 10.5,38.1 C10.5,38.2 10.6,38.4 10.6,38.4 C10.6,38.5 10.4,38.6 10.3,38.6 L10.1,38.8 L9.9,38.8 C9.7,38.8 9.5,38.7 9.3,38.5 L9.2,38.2 C9.1,38.1 9,38.1 8.9,38.2 L8.9,38.5 C8.9,38.6 9.1,38.6 9.2,38.7 C9.3,38.8 9.3,38.8 9.3,38.9 C9.3,39 9.4,39.1 9.4,39.1 L9.4,39.3 C9.4,39.4 9.2,39.5 9.1,39.6 C9,39.7 8.9,39.8 8.8,39.8 L8.5,39.6 L8.4,39.5 C8.3,39.4 8.3,39.2 8.3,39.1 L8.3,39 C8.3,38.9 8.4,38.8 8.5,38.8 C8.6,38.7 8.7,38.7 8.7,38.6 L8.7,38.5 L8.6,38.4 C8.5,38.4 8.3,38.6 8.3,38.6 L8.1,38.9 C8,39 7.9,39 7.9,39 L7.7,39 C7.6,39 7.4,38.9 7.3,38.8 L7.1,38.6 L7.1,38.5 L7.2,38.3 L7.3,38 L7.4,38 L7.6,37.8 L8,37.8 L8.2,37.9 C8.2,37.9 8.2,38 8.3,38 C8.3,38 8.4,38 8.4,38.1 C8.5,38.1 8.6,38.1 8.6,38 L8.6,37.9 L8.3,37.7 L8.2,37.7 C8.1,37.7 8.1,37.6 8.1,37.6 L8,37.6 C7.8,37.5 7.7,37.3 7.7,37.1 L7.8,36.7 C7.5,36.6 7.4,36.5 7.5,36.3 Z M42.5,36.3 C42.4,36.3 42.2,36.4 42.2,36.4 L41.9,36.4 L41.6,36.6 L41.5,36.8 L41.5,37.4 C41.5,37.5 41.4,37.6 41.3,37.6 C41.2,37.6 41.1,37.5 41.1,37.4 L41.1,37.3 C41.1,37.2 41.3,37 41.1,36.6 C41,36.4 40.8,36.3 40.6,36.3 L40.3,36.3 C40.2,36.3 40.1,36.2 40.1,36.2 C40.1,36.2 40,36.2 40,36.3 L40,36.4 C40,36.5 39.9,36.8 39.9,36.8 C39.9,36.9 39.9,37.1 40,37.2 C40,37.3 40.1,37.3 40.2,37.4 C40.4,37.5 40.8,37.4 40.8,37.7 L40.8,37.8 L40.7,37.9 C40.6,37.9 40.5,37.8 40.3,37.7 C40.2,37.7 40,37.6 40,37.6 L39.9,37.6 C39.9,37.6 39.7,37.6 39.7,37.7 C39.6,37.9 39.5,38.1 39.5,38.2 C39.5,38.3 39.4,38.5 39.4,38.5 C39.4,38.6 39.6,38.7 39.7,38.7 L39.9,38.9 L40.1,38.9 C40.3,38.9 40.5,38.8 40.7,38.6 L40.8,38.3 C40.9,38.2 41,38.2 41.1,38.3 C41.1,38.3 41.2,38.4 41.1,38.5 L41.1,38.6 C41.1,38.7 40.9,38.7 40.8,38.8 C40.7,38.9 40.7,38.9 40.7,39 C40.7,39.1 40.6,39.2 40.6,39.2 L40.6,39.4 C40.6,39.5 40.8,39.6 40.9,39.7 C41,39.8 41.1,39.9 41.2,39.9 L41.5,39.7 L41.6,39.6 C41.7,39.5 41.7,39.3 41.7,39.2 L41.7,39.1 C41.7,39 41.6,38.9 41.5,38.9 C41.4,38.8 41.3,38.8 41.3,38.7 L41.3,38.6 L41.4,38.5 C41.5,38.5 41.7,38.7 41.7,38.7 L41.9,39 C42,39.1 42.1,39.1 42.1,39.1 L42.3,39.1 C42.4,39.1 42.6,39 42.7,38.9 L42.9,38.7 L42.9,38.6 L42.8,38.4 L42.7,38.1 L42.6,38.1 L42.4,37.9 L42,37.9 L41.8,38 C41.8,38 41.8,38.1 41.7,38.1 C41.7,38.1 41.6,38.1 41.6,38.2 C41.5,38.2 41.4,38.2 41.4,38.1 L41.4,38 L41.7,37.8 L41.8,37.8 C41.9,37.8 41.9,37.7 41.9,37.7 L42,37.7 C42.2,37.6 42.3,37.4 42.3,37.2 L42.2,36.8 C42.5,36.6 42.5,36.5 42.5,36.3 Z"/>
  </g>
</svg>
