<svg xmlns="http://www.w3.org/2000/svg" width="58" height="60" viewBox="0 0 58 60">
  <g fill="none" transform="translate(0 1)">
    <polygon fill="#2E2A25" points=".5 .9 57.5 .9 57.5 57.9 .5 57.9"/>
    <path fill="#82BC00" d="M14,28.3 C15.2,28.3 16.9,27.8 18.8,26.9 L18.8,25.5 C18.4,25.7 16.7,26.3 15,26.3 C12.5,26.3 12.7,24.5 12.7,22.6 L12.7,13.7 L7.9,13.7 L7.9,14.7 L10.1,15.1 L10.1,23.3 C10.1,25.5 10.2,26.2 10.8,27.1 C11.5,27.9 12.5,28.3 14,28.3 Z M21,28.2 L25.7,28.2 L25.7,27.2 L23.7,26.8 L23.7,13.6 L18.9,13.6 L18.9,14.6 L21.1,15 L21.1,26.7 L21,28.2 Z M32,28.2 L36.8,28.2 L36.8,27.2 L34.6,26.8 L34.6,18.6 C34.6,16.4 34.5,15.7 33.9,14.8 C33.2,13.9 32.2,13.4 30.7,13.4 C29.5,13.4 27.8,13.9 25.9,14.8 L25.9,16.2 C26.3,16 28,15.4 29.7,15.4 C32.2,15.4 32,17.2 32,19.1 L32,28.2 Z M49.8,21 L49.8,20.2 C49.8,16 47.7,13.5 43.7,13.5 C40.1,13.5 37.2,16 37.2,21.1 C37.2,25.3 39.5,28.3 43.2,28.3 C44.9,28.3 46.5,27.9 49.3,26.7 L49.3,25.5 C49.1,25.6 48.9,25.6 48.9,25.6 C46.8,26.3 45.4,26.6 44.1,26.6 C42.1,26.6 40.6,25.3 40.2,22.9 C40.1,22.5 39.9,20.2 40.3,18.3 C40.8,15.9 42.1,15 43.8,15 C45.8,15 46.9,16.9 46.9,19.4 L42.3,19.6 L42.3,21 C42.3,21 49.8,21 49.8,21 Z"/>
    <path fill="#FFF" d="M34,32.7 L33.6,32.3 L33.2,32.7 L33.6,33.1 L34,32.7 Z M33.3,37.3 L33.8,37.3 L33.8,33.8 L33.3,33.8 L33.3,37.3 Z M28.1,34.3 L28.1,33.8 L27.6,33.8 L27.6,37.3 L28.1,37.3 L28.1,34.7 C28.3,34.4 28.6,34.2 29,34.2 C29.2,34.2 29.3,34.2 29.4,34.3 L29.5,33.8 L29.1,33.8 C28.7,33.8 28.3,34 28.1,34.3 Z M12.1,37.4 C12.9,37.4 13.9,37.1 13.9,35.6 L13.9,32.8 L13.4,32.8 L13.4,35.6 C13.4,36.7 12.8,37 12.1,37 C11.5,37 10.8,36.8 10.8,35.8 L10.8,32.9 L10.3,32.9 L10.3,35.9 C10.3,37.1 11.2,37.4 12.1,37.4 Z M16.8,33.7 C16.2,33.7 15.9,34 15.6,34.2 L15.6,33.8 L15.1,33.8 L15.1,37.3 L15.6,37.3 L15.6,34.6 C15.8,34.5 16.3,34.1 16.7,34.1 C17.3,34.1 17.4,34.5 17.4,35.1 L17.4,37.3 L17.9,37.3 L17.9,35 C17.9,34.5 17.8,33.7 16.8,33.7 Z M26.6,36.8 C26.5,36.8 26,36.9 25.7,36.9 C25,36.9 24.4,36.7 24.4,35.6 L26.7,35.6 L26.7,35.4 C26.7,34.2 26.3,33.7 25.4,33.7 C24.5,33.7 23.8,34.2 23.8,35.6 C23.8,36.9 24.4,37.3 25.4,37.3 C25.8,37.3 26.4,37.2 26.5,37.2 C26.5,37.2 26.6,36.8 26.6,36.8 Z M25.4,34.1 C25.9,34.1 26.2,34.5 26.2,35.3 L24.4,35.3 C24.5,34.5 24.9,34.1 25.4,34.1 Z M22.3,37.3 L23.5,33.8 L23,33.8 L22.2,36.2 L22,36.9 L21.8,36.2 L21.1,33.8 L20.6,33.8 L21.7,37.3 L22.3,37.3 Z M46.2,38.5 L46.7,38.5 L46.7,34.2 L47.5,34.2 L47.5,33.8 L46.7,33.8 L46.7,33.5 C46.7,33 47,32.8 47.5,32.8 C47.8,32.8 48.1,32.9 48.1,32.9 L48.2,32.5 C48.1,32.5 47.7,32.4 47.5,32.4 C46.8,32.4 46.2,32.6 46.2,33.6 L46.2,33.9 L45.7,33.9 L45.7,34.3 L46.2,34.3 L46.2,38.5 Z M43.5,37.4 C44.4,37.4 45.1,36.8 45.1,35.6 C45.1,34.4 44.6,33.8 43.5,33.8 C42.6,33.8 41.9,34.5 41.9,35.7 C42,36.8 42.6,37.4 43.5,37.4 Z M43.6,34.1 C44.5,34.1 44.7,34.9 44.7,35.5 C44.7,36.2 44.5,36.9 43.6,36.9 C42.8,36.9 42.5,36.2 42.5,35.5 C42.5,34.9 42.7,34.1 43.6,34.1 Z M19.1,37.3 L19.6,37.3 L19.6,33.8 L19.1,33.8 L19.1,37.3 Z M32.3,36.4 C32.3,35.3 30.5,35.5 30.5,34.7 C30.5,34.4 30.7,34.2 31.1,34.2 C31.5,34.2 31.8,34.3 31.9,34.3 L32,33.9 C31.9,33.9 31.6,33.8 31.2,33.8 C30.5,33.8 30,34.1 30,34.8 C30,36 31.8,35.7 31.8,36.5 C31.8,36.8 31.5,37 30.9,37 C30.6,37 30.2,36.9 30,36.9 L30,37.2 C30.1,37.2 30.6,37.3 31.1,37.3 C31.6,37.4 32.3,37.2 32.3,36.4 Z M19.7,32.7 L19.3,32.3 L18.9,32.7 L19.3,33.1 L19.7,32.7 Z M38.7,38.7 L40.4,33.8 L39.9,33.8 L39,36.3 L38.8,36.9 L38.6,36.3 L37.8,33.8 L37.3,33.8 L38.4,37.3 L38.6,37.3 L38.1,38.7 L38.7,38.7 Z M36.3,37 C35.8,37 35.6,36.9 35.6,36.4 L35.6,34.3 L36.7,34.3 L36.7,33.9 L35.6,33.9 L35.6,33.2 L35.1,33.2 L35.1,33.9 L34.6,33.9 L34.6,34.3 L35.1,34.3 L35.1,36.4 C35.1,37.4 35.6,37.4 36.3,37.4 C36.5,37.4 36.8,37.3 36.9,37.3 L36.9,36.9 C36.9,36.9 36.6,37 36.3,37 Z M13.4,44 L13.5,44.7 L11.2,40.5 L10.4,40.5 L10.4,44.9 L10.9,44.9 L10.9,40.8 L13.2,44.9 L14,44.9 L14,40.4 L13.5,40.4 L13.4,44 Z M16.4,41.3 C15.5,41.3 14.8,41.8 14.8,43.2 C14.8,44.5 15.4,44.9 16.4,44.9 C16.8,44.9 17.4,44.8 17.5,44.8 L17.4,44.4 C17.3,44.4 16.8,44.5 16.5,44.5 C15.8,44.5 15.2,44.3 15.2,43.2 L17.5,43.2 L17.5,43 C17.7,41.9 17.3,41.3 16.4,41.3 Z M15.4,42.9 C15.5,42.1 15.9,41.7 16.4,41.7 C16.9,41.7 17.2,42.1 17.2,42.9 L15.4,42.9 Z M37.2,44.9 L37.7,44.9 L37.7,40.1 L37.2,40.1 L37.2,44.9 Z M44.1,41.3 C43.5,41.3 43.2,41.6 42.9,41.8 L42.9,41.4 L42.4,41.4 L42.4,44.9 L42.9,44.9 L42.9,42.2 C43.1,42.1 43.6,41.7 44,41.7 C44.6,41.7 44.7,42.1 44.7,42.7 L44.7,44.9 L45.2,44.9 L45.2,42.6 C45.2,42.1 45.1,41.3 44.1,41.3 Z M48.4,40.1 L48.4,41.5 C48.2,41.4 48.1,41.4 47.7,41.4 C46.8,41.4 46,42 46,43.2 C46,44.8 46.8,45 47.5,45 C47.9,45 48.2,44.8 48.4,44.6 L48.4,44.9 L48.9,44.9 L48.9,40.1 L48.4,40.1 Z M48.4,44.1 C48.3,44.2 47.9,44.5 47.5,44.5 C46.9,44.5 46.5,44.1 46.5,43.1 C46.5,42.4 46.8,41.7 47.6,41.7 C47.9,41.7 48.2,41.7 48.3,41.8 L48.4,44.1 Z M41.2,44.2 L41.2,42.2 C41.2,41.5 40.7,41.3 40,41.3 C39.5,41.3 39,41.4 38.9,41.5 L39,41.9 C39.1,41.9 39.5,41.7 39.9,41.7 C40.5,41.7 40.8,41.8 40.8,42.4 L40.8,42.9 L40,42.9 C39.4,42.9 38.7,43.1 38.7,43.9 C38.7,44.5 39.1,44.9 39.7,44.9 C40.4,44.9 40.7,44.5 40.9,44.4 C40.9,44.8 41.4,44.9 41.7,44.8 L41.7,44.4 C41.4,44.6 41.2,44.5 41.2,44.2 Z M40.7,44.1 C40.7,44.1 40,44.6 39.6,44.6 C39.2,44.6 39,44.4 39,44 C39,43.7 39.2,43.4 39.9,43.4 L40.7,43.4 C40.7,43.4 40.7,44.1 40.7,44.1 Z M26.4,42.9 L28.3,42.9 L28.3,42.5 L26.4,42.5 L26.4,40.9 L28.4,40.9 L28.4,40.5 L25.9,40.5 L25.9,44.9 L28.6,44.9 L28.6,44.5 L26.4,44.5 L26.4,42.9 Z M22.2,43.9 L22,44.6 L21.8,43.9 L21.2,41.4 L20.5,41.4 L19.8,43.9 L19.6,44.6 L19.4,43.9 L18.7,41.4 L18.2,41.4 L19.3,44.9 L20,44.9 L20.7,42.3 L20.8,41.8 L20.9,42.3 L21.6,44.9 L22.3,44.9 L23.5,41.4 L23,41.4 L22.2,43.9 Z M31.3,41.3 C30.7,41.3 30.4,41.6 30.1,41.8 L30.1,41.4 L29.6,41.4 L29.6,44.9 L30.1,44.9 L30.1,42.2 C30.3,42.1 30.8,41.7 31.2,41.7 C31.8,41.7 31.9,42.1 31.9,42.7 L31.9,44.9 L32.4,44.9 L32.4,42.6 C32.4,42.1 32.3,41.3 31.3,41.3 Z M33.2,43.2 C33.2,44.8 34,45 34.7,45 C35,45 35.3,44.9 35.5,44.7 L35.5,45.1 C35.5,45.9 35,46 34.4,46 C34.1,46 33.6,45.9 33.5,45.9 L33.4,46.3 C33.5,46.3 34,46.4 34.5,46.4 C35.2,46.4 36,46.1 36,45.1 L36,41.5 C35.6,41.4 35.2,41.4 34.8,41.4 C34,41.4 33.2,42 33.2,43.2 Z M35.6,44.2 C35.5,44.3 35.2,44.6 34.8,44.6 C34.1,44.6 33.7,44.2 33.7,43.2 C33.7,42.5 34,41.8 34.9,41.8 C35.2,41.8 35.4,41.8 35.6,41.9 C35.6,41.9 35.6,44.2 35.6,44.2 Z"/>
  </g>
</svg>
