<?xml version="1.0" encoding="utf-8"?>
<!-- Generator: Adobe Illustrator 21.0.0, SVG Export Plug-In . SVG Version: 6.00 Build 0)  -->
<svg version="1.1" id="uwa" xmlns="http://www.w3.org/2000/svg" xmlns:xlink="http://www.w3.org/1999/xlink" x="0px" y="0px"
	 viewBox="0 0 145 55.6" style="enable-background:new 0 0 145 55.6;" xml:space="preserve">
<style type="text/css">
	.st0{fill:#4D6F9A;}
</style>
<g>
	<g>
		<path class="st0" d="M25.6,26.1c0,7.8-3.6,11.7-11.7,11.7S2.2,33.9,2.2,26.1V10.3h7v16.2c0,3.5,1.3,5.2,4.7,5.2s4.7-1.8,4.7-5.2
			V10.3h7C25.6,10.3,25.6,26.1,25.6,26.1z"/>
		<path class="st0" d="M29.3,17.6h6.2v2.7h0.1c1.2-2,3.8-3.2,6.1-3.2c6.5,0,7.1,4.8,7.1,7.6v12.6h-6.4v-9.6c0-2.7,0.3-5.4-3.2-5.4
			c-2.4,0-3.5,2-3.5,4.2v10.7h-6.4C29.3,37.2,29.3,17.6,29.3,17.6z"/>
		<path class="st0" d="M59.3,15.2h-6.4v-4.9h6.4V15.2z M52.9,17.6h6.4v19.6h-6.4V17.6z"/>
		<path class="st0" d="M64.7,10.3h2.4v26.9h-2.4V10.3z"/>
		<path class="st0" d="M73.8,28.1c0,3.5,1.8,7.7,6.4,7.7c3.5,0,5.4-2,6.1-5h2.4c-1,4.4-3.6,7-8.5,7c-6.2,0-8.8-4.8-8.8-10.3
			c0-5.1,2.6-10.3,8.8-10.3c6.3,0,8.7,5.5,8.6,10.9H73.8z M86.4,26.1c-0.1-3.6-2.3-6.9-6.2-6.9s-6,3.4-6.4,6.9H86.4L86.4,26.1z"/>
		<path class="st0" d="M92.5,23.7c0.2-4.6,3.4-6.5,7.9-6.5c3.4,0,7.2,1.1,7.2,6.3v10.3c0,0.9,0.5,1.4,1.4,1.4c0.3,0,0.6-0.1,0.8-0.2
			v2c-0.5,0.1-0.9,0.2-1.5,0.2c-2.4,0-2.8-1.4-2.8-3.4h-0.1c-1.7,2.5-3.4,4-7.1,4c-3.6,0-6.5-1.8-6.5-5.7c0-5.5,5.3-5.7,10.4-6.3
			c2-0.2,3.1-0.5,3.1-2.6c0-3.2-2.3-4-5.1-4c-2.9,0-5.1,1.4-5.2,4.5C95,23.7,92.5,23.7,92.5,23.7z M105.2,26.6L105.2,26.6
			c-0.4,0.6-1.4,0.8-2.1,0.9c-4,0.7-9.1,0.7-9.1,4.5c0,2.4,2.1,3.8,4.3,3.8c3.6,0,6.8-2.3,6.8-6.1L105.2,26.6
			C105.1,26.6,105.2,26.6,105.2,26.6z"/>
		<path class="st0" d="M113.1,17.8h2.2v4.6h0.1c1.2-3.1,3.8-5,7.4-4.8V20c-4.3-0.2-7.2,2.9-7.2,7v10.4h-2.4L113.1,17.8L113.1,17.8
			L113.1,17.8z"/>
		<path class="st0" d="M126.4,17.8h2.4v3.4h0.1c0.9-2.3,3.5-3.9,6.2-3.9c5.5,0,7.1,2.9,7.1,7.5v12.5h-2.4V25.2
			c0-3.4-1.1-5.9-4.9-5.9c-3.8,0-6,2.9-6.1,6.7v11.4h-2.4L126.4,17.8L126.4,17.8z"/>
	</g>
	<g>
		<path class="st0" d="M64.7,42.6h0.5l1.4,3.6l1.3-3.6h0.5l-1.8,4.9c-0.3,0.7-0.5,0.9-1.1,0.9c-0.2,0-0.3,0-0.4,0V48
			c0.1,0,0.2,0,0.4,0c0.5,0,0.6-0.3,0.7-0.7l0.2-0.5L64.7,42.6z"/>
		<path class="st0" d="M72.8,44.7c0,1.2-0.7,2.2-2,2.2s-2-1-2-2.2s0.7-2.2,2-2.2S72.8,43.5,72.8,44.7z M69.3,44.7
			c0,0.9,0.5,1.8,1.5,1.8s1.5-0.9,1.5-1.8s-0.5-1.8-1.5-1.8S69.3,43.8,69.3,44.7z"/>
		<path class="st0" d="M76.9,46.9h-0.5v-0.8l0,0c-0.3,0.6-0.8,0.9-1.5,0.9c-1.1,0-1.5-0.6-1.5-1.6v-2.7h0.5v2.8
			c0,0.8,0.3,1.2,1.1,1.2c0.9,0,1.3-0.8,1.3-1.7v-2.2h0.5L76.9,46.9L76.9,46.9z"/>
		<path class="st0" d="M77.9,42.6h0.5v1l0,0c0.3-0.7,0.8-1.1,1.6-1v0.5c-0.9,0-1.6,0.6-1.6,1.5v2.3h-0.5V42.6z"/>
		<path class="st0" d="M82.8,42.6h0.5v0.8l0,0c0.2-0.6,0.8-0.9,1.5-0.9c1.3,0,1.9,1,1.9,2.2s-0.6,2.2-1.9,2.2
			c-0.6,0-1.2-0.3-1.5-0.9l0,0v2.4h-0.5V42.6z M84.8,42.9c-1.1,0-1.5,0.8-1.5,1.8c0,0.9,0.4,1.8,1.5,1.8c1,0,1.4-0.9,1.4-1.8
			C86.2,43.9,85.8,42.9,84.8,42.9z"/>
		<path class="st0" d="M87.4,43.9c0-1,0.7-1.4,1.7-1.4c0.7,0,1.6,0.2,1.6,1.4v2.2c0,0.2,0.1,0.3,0.3,0.3c0.1,0,0.1,0,0.2,0v0.4
			c-0.1,0-0.2,0-0.3,0c-0.5,0-0.6-0.3-0.6-0.7l0,0c-0.5,0.6-0.8,0.9-1.6,0.9s-1.5-0.4-1.5-1.3c0-1.2,1.2-1.2,2.3-1.4
			c0.4,0,0.7-0.1,0.7-0.6c0-0.7-0.5-0.9-1.1-0.9s-1.1,0.3-1.1,1L87.4,43.9L87.4,43.9z M90.2,44.6L90.2,44.6
			c-0.1,0.1-0.3,0.1-0.5,0.1c-0.9,0.2-2,0.1-2,1c0,0.5,0.5,0.8,0.9,0.8c0.8,0,1.5-0.5,1.5-1.3L90.2,44.6L90.2,44.6z"/>
		<path class="st0" d="M92.5,42.6h0.9V43h-0.9v2.8c0,0.3,0,0.5,0.4,0.6c0.1,0,0.3,0,0.4,0v0.4c-0.2,0-0.3,0-0.5,0
			C92.3,46.9,92,46.7,92,46v-2.9h-0.7v-0.4H92v-1.3h0.5V42.6L92.5,42.6z"/>
		<path class="st0" d="M94.1,41h0.5v2.4l0,0c0.2-0.5,0.8-0.9,1.4-0.9c1.2,0,1.5,0.6,1.5,1.6v2.7h-0.4v-2.6c0-0.7-0.2-1.3-1.1-1.3
			c-0.8,0-1.3,0.6-1.3,1.4v2.5h-0.6V41L94.1,41z"/>
		<path class="st0" d="M101.6,42.6h0.9V43h-0.9v2.8c0,0.3,0,0.5,0.4,0.6c0.1,0,0.3,0,0.4,0v0.4c-0.2,0-0.3,0-0.5,0
			c-0.5,0.1-0.8-0.1-0.8-0.8v-2.9h-0.7v-0.4h0.7v-1.3h0.5V42.6L101.6,42.6z"/>
		<path class="st0" d="M107,44.7c0,1.2-0.7,2.2-2,2.2s-2-1-2-2.2s0.7-2.2,2-2.2S107,43.5,107,44.7z M103.6,44.7
			c0,0.9,0.5,1.8,1.5,1.8s1.5-0.9,1.5-1.8s-0.5-1.8-1.5-1.8S103.6,43.8,103.6,44.7z"/>
		<path class="st0" d="M113.5,46.9H113v-0.8l0,0c-0.3,0.6-0.8,0.9-1.5,0.9c-1.1,0-1.5-0.6-1.5-1.6v-2.7h0.5v2.8
			c0,0.8,0.3,1.2,1.1,1.2c0.9,0,1.3-0.8,1.3-1.7v-2.2h0.5L113.5,46.9C113.4,46.9,113.5,46.9,113.5,46.9z"/>
		<path class="st0" d="M114.5,42.6h0.5v0.7l0,0c0.2-0.5,0.8-0.9,1.4-0.9c1.2,0,1.5,0.6,1.5,1.6v2.7h-0.5v-2.6c0-0.7-0.2-1.3-1.1-1.3
			c-0.8,0-1.3,0.6-1.3,1.4v2.5h-0.5V42.6L114.5,42.6z"/>
		<path class="st0" d="M118.9,41h0.5v0.8h-0.5V41z M118.9,42.6h0.5v4.2h-0.5V42.6z"/>
		<path class="st0" d="M119.9,42.6h0.6l1.3,3.7l0,0l1.3-3.7h0.5l-1.6,4.2h-0.5L119.9,42.6z"/>
		<path class="st0" d="M124.5,44.9c0,0.8,0.4,1.7,1.4,1.7c0.8,0,1.2-0.4,1.3-1.1h0.5c-0.2,1-0.8,1.5-1.8,1.5c-1.3,0-1.9-1-1.9-2.2
			c0-1.1,0.6-2.2,1.9-2.2c1.4,0,1.9,1.2,1.9,2.4L124.5,44.9L124.5,44.9z M127.2,44.5c0-0.8-0.5-1.5-1.3-1.5s-1.3,0.7-1.4,1.5H127.2z
			"/>
		<path class="st0" d="M128.4,42.6h0.5v1l0,0c0.3-0.7,0.8-1.1,1.6-1v0.5c-0.9-0.1-1.6,0.6-1.6,1.5v2.3h-0.5V42.6z"/>
		<path class="st0" d="M133.5,43.9c0-0.6-0.5-0.9-1.1-0.9c-0.5,0-1,0.2-1,0.7s0.5,0.6,0.9,0.7l0.7,0.2c0.6,0.1,1.2,0.4,1.2,1.2
			c0,0.9-0.9,1.3-1.7,1.3c-1,0-1.7-0.5-1.7-1.5h0.5c0,0.7,0.6,1.1,1.2,1.1c0.5,0,1.2-0.2,1.2-0.8c0-0.5-0.5-0.7-0.9-0.8l-0.7-0.1
			c-0.7-0.3-1.2-0.6-1.2-1.3c0-0.9,0.8-1.2,1.6-1.2s1.5,0.4,1.5,1.4L133.5,43.9L133.5,43.9z"/>
		<path class="st0" d="M135,41h0.5v0.8H135V41z M135,42.6h0.5v4.2H135V42.6z"/>
		<path class="st0" d="M137.3,42.6h0.9V43h-0.9v2.8c0,0.3,0,0.5,0.4,0.6c0.1,0,0.3,0,0.4,0v0.4c-0.2,0-0.3,0-0.5,0
			c-0.7,0-0.9-0.2-0.9-0.9V43H136v-0.4h0.7v-1.3h0.5L137.3,42.6L137.3,42.6z"/>
		<path class="st0" d="M138.4,42.6h0.5l1.4,3.6l1.3-3.6h0.5l-1.8,4.9c-0.3,0.7-0.5,0.9-1.1,0.9c-0.2,0-0.3,0-0.4,0V48
			c0.1,0,0.2,0,0.4,0c0.5,0,0.6-0.3,0.7-0.7l0.2-0.5L138.4,42.6z"/>
	</g>
</g>
</svg>
