<svg xmlns="http://www.w3.org/2000/svg" width="132" height="60" viewBox="0 0 132 60">
  <g fill="none" transform="translate(0 10)">
    <path fill="#00509E" d="M127 26C127 25 128.1 24.9 128.8 24.9L129.5 24.9C129.5 25.4 129.4 25.9 129.2 26.2 128.9 26.5 128.5 26.8 128 26.8 127.5 26.8 127 26.6 127 26zM126.2 23.2C126.8 22.8 127.5 22.5 128.2 22.5 129.2 22.5 129.6 22.8 129.6 23.9L128.7 23.9C128 23.9 127.2 24 126.6 24.3 126 24.6 125.5 25.2 125.5 26.1 125.5 27.3 126.6 28 127.7 28 128.5 28 129.3 27.6 129.7 26.9 129.7 27.1 129.7 27.5 129.8 27.9L131.3 27.9 131.2 26.5 131.2 24.1C131.2 22.2 130.4 21.4 128.4 21.4 127.7 21.4 126.8 21.6 126.2 21.9L126.2 23.2zM122.5 20.3L124.2 20.3 124.2 18.7 122.5 18.7 122.5 20.3zM122.5 27.9L124.2 27.9 124.2 21.5 122.5 21.5 122.5 27.9zM119.1 27.9L120.8 27.9 120.8 18.6 119.1 18.6 119.1 27.9zM113.4 26C113.4 25 114.5 24.9 115.2 24.9L115.9 24.9C115.9 25.4 115.8 25.9 115.6 26.2 115.3 26.5 114.9 26.8 114.4 26.8 113.9 26.8 113.4 26.6 113.4 26zM112.6 23.2C113.2 22.8 113.9 22.5 114.6 22.5 115.6 22.5 116 22.8 116 23.9L115.1 23.9C114.4 23.9 113.6 24 113 24.3 112.4 24.6 111.9 25.2 111.9 26.1 111.9 27.3 113 28 114.1 28 114.9 28 115.7 27.6 116.1 26.9 116.1 27.1 116.1 27.5 116.2 27.9L117.7 27.9 117.6 26.5 117.6 24.1C117.6 22.2 116.8 21.4 114.8 21.4 114.1 21.4 113.2 21.6 112.6 21.9L112.6 23.2zM107.5 27.9L109.2 27.9 109.2 25.6C109.2 24.7 109.2 23 110.6 23 110.9 23 111.2 23.1 111.3 23.1L111.3 21.4 110.8 21.4C109.8 21.4 109.1 22.4 109 23L109 21.5 107.5 21.5 107.5 27.9zM103.3 26C103.3 27.3 104 28.1 105.3 28.1 105.8 28.1 106.2 28.1 106.5 28L106.5 26.7C106.3 26.8 106 26.9 105.7 26.9 105.1 26.9 104.9 26.4 104.9 25.8L104.9 22.8 106.4 22.8 106.4 21.6 104.9 21.6 104.9 19.8 103.2 20.3 103.2 21.6 102 21.6 102 22.8 103.2 22.8 103.3 26zM101.2 21.6C100.7 21.5 100.2 21.4 99.4 21.4 98.1 21.4 96.9 22 96.9 23.4 96.9 25.7 99.8 24.9 99.8 26.1 99.8 26.7 99.1 26.9 98.7 26.9 98.1 26.9 97.6 26.7 97.1 26.5L97 27.9C97.6 28.1 98.3 28.2 98.9 28.2 100.3 28.2 101.6 27.6 101.6 26.1 101.6 23.8 98.7 24.4 98.7 23.4 98.7 22.9 99.2 22.7 99.7 22.7 100.3 22.7 100.7 22.8 101.2 23L101.2 21.6zM95.6 21.5L94 21.5 94 24.6C94 25.4 93.7 26.7 92.5 26.7 91.4 26.7 91.4 25.6 91.4 24.9L91.4 21.5 89.7 21.5 89.7 25.5C89.7 26.9 90.4 28 91.9 28 92.8 28 93.5 27.6 94 27L94 27.9 95.6 27.9 95.6 21.5zM80.1 27.9L81.9 27.9 82.7 25.9 86.2 25.9 86.9 27.9 88.8 27.9 85.4 19.2 83.4 19.2 80.1 27.9zM85.7 24.5L83.2 24.5 84.5 20.9 85.7 24.5zM69.9 27.9L71.6 27.9 71.6 24.8C71.6 24 71.9 22.7 73.1 22.7 74.2 22.7 74.2 23.8 74.2 24.5L74.2 27.9 75.9 27.9 75.9 23.9C75.9 22.5 75.2 21.4 73.7 21.4 72.8 21.4 72.1 21.8 71.7 22.4L71.7 18.6 70 18.6 69.9 27.9zM65.7 26C65.7 27.3 66.4 28.1 67.7 28.1 68.2 28.1 68.6 28.1 68.9 28L68.9 26.7C68.7 26.8 68.4 26.9 68.1 26.9 67.5 26.9 67.3 26.4 67.3 25.8L67.3 22.8 68.8 22.8 68.8 21.6 67.3 21.6 67.3 19.8 65.6 20.3 65.6 21.6 64.4 21.6 64.4 22.8 65.6 22.8 65.7 26zM63.5 21.5L61.8 21.5 61.8 24.6C61.8 25.4 61.5 26.7 60.3 26.7 59.2 26.7 59.2 25.6 59.2 24.9L59.2 21.5 57.5 21.5 57.5 25.5C57.5 26.9 58.2 28 59.7 28 60.6 28 61.3 27.6 61.8 27L61.8 27.9 63.4 27.9 63.5 21.5zM51.5 24.5C51.5 23.5 52 22.6 53.1 22.6 54.2 22.6 54.7 23.5 54.7 24.5 54.7 25.6 54.4 26.7 53.1 26.7 51.8 26.7 51.5 25.6 51.5 24.5zM49.7 24.7C49.7 26.5 50.9 28 53 28 55.1 28 56.4 26.5 56.4 24.7 56.4 22.6 54.9 21.3 53 21.3 51.2 21.3 49.7 22.6 49.7 24.7zM48.3 19.4C47.7 19.2 47 19.1 46.2 19.1 44.7 19.1 43.2 19.8 43.2 21.7 43.2 24.6 47 23.9 47 25.5 47 26.3 46.1 26.6 45.5 26.6 44.8 26.6 44.1 26.4 43.5 26.1L43.3 27.7C44.2 27.9 44.6 28 45.5 28 47.3 28 48.8 27.3 48.8 25.4 48.8 22.5 45 23.1 45 21.6 45 20.7 45.8 20.4 46.4 20.4 47 20.4 47.6 20.5 48.2 20.8L48.3 19.4zM113.5 13L115.2 13 115.2 7.8 116.7 7.8 116.7 6.6 115.2 6.6 115.2 5.8C115.2 5.3 115.4 4.8 115.9 4.8 116.3 4.8 116.5 4.9 116.6 5L116.7 3.6C116.4 3.5 115.9 3.5 115.5 3.5 114.2 3.5 113.5 4.4 113.5 5.7L113.5 6.6 112.3 6.6 112.3 7.8 113.5 7.8C113.5 7.8 113.5 13 113.5 13zM106.7 9.6C106.7 8.6 107.2 7.7 108.3 7.7 109.4 7.7 109.9 8.6 109.9 9.6 109.9 10.7 109.6 11.8 108.3 11.8 107 11.8 106.7 10.7 106.7 9.6zM105 9.8C105 11.6 106.2 13.1 108.3 13.1 110.4 13.1 111.7 11.6 111.7 9.8 111.7 7.7 110.2 6.4 108.3 6.4 106.4 6.4 105 7.7 105 9.8zM96.3 6.6L94.5 6.6 96.9 13.3C96.9 14 96.5 14.4 95.8 14.4 95.4 14.4 95.2 14.4 94.9 14.3L94.8 15.5C95.2 15.6 95.6 15.7 96 15.7 97.7 15.7 98.1 14.3 98.7 12.9L101.1 6.6 99.4 6.6 97.9 11.3C97.9 11.3 96.3 6.6 96.3 6.6zM90.9 11.1C90.9 12.4 91.6 13.2 92.9 13.2 93.4 13.2 93.8 13.2 94.1 13.1L94.1 11.8C93.9 11.9 93.6 12 93.3 12 92.7 12 92.5 11.5 92.5 10.9L92.5 7.9 94 7.9 94 6.7 92.5 6.7 92.5 4.9 90.8 5.4 90.8 6.7 89.6 6.7 89.6 7.9 90.8 7.9 90.9 11.1zM87 5.4L88.7 5.4 88.7 3.8 87 3.8 87 5.4zM87 13L88.7 13 88.7 6.6 87 6.6 87 13zM85.5 6.7C85 6.6 84.5 6.5 83.7 6.5 82.4 6.5 81.2 7.1 81.2 8.5 81.2 10.8 84.1 10 84.1 11.2 84.1 11.8 83.4 12 83 12 82.4 12 81.9 11.8 81.4 11.6L81.3 13C81.9 13.2 82.6 13.3 83.2 13.3 84.6 13.3 85.9 12.7 85.9 11.2 85.9 8.9 83 9.5 83 8.5 83 8 83.5 7.8 84 7.8 84.6 7.8 85 7.9 85.5 8.1L85.5 6.7zM76.8 13L78.5 13 78.5 10.7C78.5 9.8 78.5 8.1 79.9 8.1 80.2 8.1 80.5 8.1 80.6 8.2L80.6 6.5 80.1 6.5C79.1 6.5 78.4 7.5 78.3 8.1L78.3 6.6 76.8 6.6 76.8 13zM75.1 11.3C74.5 11.6 73.8 11.9 73 11.9 72 11.9 71.2 11.3 71.2 10.3L75.6 10.3C75.6 8.1 74.9 6.4 72.6 6.4 70.6 6.4 69.6 7.9 69.6 9.8 69.6 11.9 70.8 13.1 72.9 13.1 73.8 13.1 74.5 12.9 75.1 12.6L75.1 11.3zM71.1 9.2C71.2 8.3 71.6 7.7 72.6 7.7 73.5 7.7 73.9 8.4 74 9.2L71.1 9.2zM64.8 13L66.7 13 69.1 6.6 67.4 6.6 65.9 11.3 64.3 6.6 62.5 6.6 64.8 13zM59.7 5.4L61.4 5.4 61.4 3.8 59.7 3.8 59.7 5.4zM59.7 13L61.4 13 61.4 6.6 59.7 6.6 59.7 13zM52.2 13L53.9 13 53.9 9.9C53.9 9.1 54.2 7.8 55.4 7.8 56.5 7.8 56.5 8.9 56.5 9.6L56.5 13 58.2 13 58.2 9C58.2 7.6 57.5 6.5 56 6.5 55.1 6.5 54.4 6.8 53.9 7.5L53.9 6.6 52.3 6.6 52.2 13zM43.4 9.9C43.4 12.2 44.7 13.2 46.9 13.2 49.1 13.2 50.4 12.2 50.4 9.9L50.4 4.4 48.7 4.4 48.7 9.4C48.7 10.9 48.2 11.8 46.9 11.8 45.6 11.8 45.1 10.8 45.1 9.4L45.1 4.4 43.4 4.4 43.4 9.9zM32.4 23.5C32.4 32.2 25.3 39.3 16.6 39.3 7.9 39.3.7 32.2.7 23.5L.7.5 32.4.5 32.4 23.5z"/>
    <path fill="#FFF" d="M12.3,15.4 L9.4,13.7 L6.6,15.4 L6.6,23.5 C6.6,29.1 11.1,33.6 16.7,33.6 C22.3,33.6 26.8,29.1 26.8,23.5 L26.8,7.1 L29.7,5.5 L26.8,3.8 L23.9,5.5 L23.9,23.5 C23.9,27.5 20.7,30.7 16.7,30.7 C12.7,30.7 9.5,27.5 9.5,23.5 L9.5,17 L12.3,15.4 Z M18.1,23.5 C18.1,24.3 17.5,24.9 16.7,24.9 C15.9,24.9 15.3,24.3 15.3,23.5 L15.3,13.7 L18.2,12.1 L15.2,10.4 L12.3,12.1 L12.3,23.5 C12.3,25.9 14.2,27.8 16.6,27.8 C19,27.8 20.9,25.9 20.9,23.5 L20.9,10.4 L23.8,8.8 L20.9,7.1 L18,8.8 L18.1,23.5 Z"/>
  </g>
</svg>
