<svg xmlns="http://www.w3.org/2000/svg" width="141" height="60" viewBox="0 0 141 60">
  <g fill="#4D6F9A" transform="translate(0 11)">
    <path d="M23.6 16.1C23.6 23.9 20 27.8 11.9 27.8 3.8 27.8.2 23.9.2 16.1L.2.3 7.2.3 7.2 16.5C7.2 20 8.5 21.7 11.9 21.7 15.3 21.7 16.6 19.9 16.6 16.5L16.6.3 23.6.3C23.6.3 23.6 16.1 23.6 16.1zM27.3 7.6L33.5 7.6 33.5 10.3 33.6 10.3C34.8 8.3 37.4 7.1 39.7 7.1 46.2 7.1 46.8 11.9 46.8 14.7L46.8 27.3 40.4 27.3 40.4 17.7C40.4 15 40.7 12.3 37.2 12.3 34.8 12.3 33.7 14.3 33.7 16.5L33.7 27.2 27.3 27.2C27.3 27.2 27.3 7.6 27.3 7.6zM57.3 5.2L50.9 5.2 50.9.3 57.3.3 57.3 5.2zM50.9 7.6L57.3 7.6 57.3 27.2 50.9 27.2 50.9 7.6z"/>
    <polygon points="62.7 .3 65.1 .3 65.1 27.2 62.7 27.2"/>
    <path d="M71.8 18.1C71.8 21.6 73.6 25.8 78.2 25.8 81.7 25.8 83.6 23.8 84.3 20.8L86.7 20.8C85.7 25.2 83.1 27.8 78.2 27.8 72 27.8 69.4 23 69.4 17.5 69.4 12.4 72 7.2 78.2 7.2 84.5 7.2 86.9 12.7 86.8 18.1L71.8 18.1zM84.4 16.1C84.3 12.5 82.1 9.2 78.2 9.2 74.3 9.2 72.2 12.6 71.8 16.1L84.4 16.1zM90.5 13.7C90.7 9.1 93.9 7.2 98.4 7.2 101.8 7.2 105.6 8.3 105.6 13.5L105.6 23.8C105.6 24.7 106.1 25.2 107 25.2 107.3 25.2 107.6 25.1 107.8 25L107.8 27C107.3 27.1 106.9 27.2 106.3 27.2 103.9 27.2 103.5 25.8 103.5 23.8L103.4 23.8C101.7 26.3 100 27.8 96.3 27.8 92.7 27.8 89.8 26 89.8 22.1 89.8 16.6 95.1 16.4 100.2 15.8 102.2 15.6 103.3 15.3 103.3 13.2 103.3 10 101 9.2 98.2 9.2 95.3 9.2 93.1 10.6 93 13.7 93 13.7 90.5 13.7 90.5 13.7zM103.2 16.6C102.8 17.2 101.8 17.4 101.1 17.5 97.1 18.2 92 18.2 92 22 92 24.4 94.1 25.8 96.3 25.8 99.9 25.8 103.1 23.5 103.1 19.7L103.2 16.6C103.1 16.6 103.2 16.6 103.2 16.6zM111.1 7.8L113.3 7.8 113.3 12.4 113.4 12.4C114.6 9.3 117.2 7.4 120.8 7.6L120.8 10C116.5 9.8 113.6 12.9 113.6 17L113.6 27.4 111.2 27.4 111.1 7.8zM124.4 7.8L126.8 7.8 126.8 11.2 126.9 11.2C127.8 8.9 130.4 7.3 133.1 7.3 138.6 7.3 140.2 10.2 140.2 14.8L140.2 27.3 137.8 27.3 137.8 15.2C137.8 11.8 136.7 9.3 132.9 9.3 129.1 9.3 126.9 12.2 126.8 16L126.8 27.4 124.4 27.4 124.4 7.8z"/>
    <g transform="translate(62 31)">
      <path d="M.7 1.6L1.2 1.6 2.6 5.2 3.9 1.6 4.4 1.6 2.6 6.5C2.3 7.2 2.1 7.4 1.5 7.4 1.3 7.4 1.2 7.4 1.1 7.4L1.1 7C1.2 7 1.3 7 1.5 7 2 7 2.1 6.7 2.2 6.3L2.4 5.8.7 1.6zM8.8 3.7C8.8 4.9 8.1 5.9 6.8 5.9 5.5 5.9 4.8 4.9 4.8 3.7 4.8 2.5 5.5 1.5 6.8 1.5 8.1 1.5 8.8 2.5 8.8 3.7zM5.3 3.7C5.3 4.6 5.8 5.5 6.8 5.5 7.8 5.5 8.3 4.6 8.3 3.7 8.3 2.8 7.8 1.9 6.8 1.9 5.8 1.9 5.3 2.8 5.3 3.7zM12.9 5.9L12.4 5.9 12.4 5.1C12.1 5.7 11.6 6 10.9 6 9.8 6 9.4 5.4 9.4 4.4L9.4 1.7 9.9 1.7 9.9 4.5C9.9 5.3 10.2 5.7 11 5.7 11.9 5.7 12.3 4.9 12.3 4L12.3 1.8 12.8 1.8 12.9 5.9zM13.9 1.6L14.4 1.6 14.4 2.6C14.7 1.9 15.2 1.5 16 1.6L16 2.1C15.1 2.1 14.4 2.7 14.4 3.6L14.4 5.9 13.9 5.9 13.9 1.6zM18.8 1.6L19.3 1.6 19.3 2.4C19.5 1.8 20.1 1.5 20.8 1.5 22.1 1.5 22.7 2.5 22.7 3.7 22.7 4.9 22.1 5.9 20.8 5.9 20.2 5.9 19.6 5.6 19.3 5L19.3 7.4 18.8 7.4 18.8 1.6zM20.8 1.9C19.7 1.9 19.3 2.7 19.3 3.7 19.3 4.6 19.7 5.5 20.8 5.5 21.8 5.5 22.2 4.6 22.2 3.7 22.2 2.9 21.8 1.9 20.8 1.9zM23.4 2.9C23.4 1.9 24.1 1.5 25.1 1.5 25.8 1.5 26.7 1.7 26.7 2.9L26.7 5.1C26.7 5.3 26.8 5.4 27 5.4 27.1 5.4 27.1 5.4 27.2 5.4L27.2 5.8C27.1 5.8 27 5.8 26.9 5.8 26.4 5.8 26.3 5.5 26.3 5.1 25.8 5.7 25.5 6 24.7 6 23.9 6 23.2 5.6 23.2 4.7 23.2 3.5 24.4 3.5 25.5 3.3 25.9 3.3 26.2 3.2 26.2 2.7 26.2 2 25.7 1.8 25.1 1.8 24.5 1.8 24 2.1 24 2.8L23.4 2.9zM26.2 3.6C26.1 3.7 25.9 3.7 25.7 3.7 24.8 3.9 23.7 3.8 23.7 4.7 23.7 5.2 24.2 5.5 24.6 5.5 25.4 5.5 26.1 5 26.1 4.2L26.2 3.6zM28.5 1.6L29.4 1.6 29.4 2 28.5 2 28.5 4.8C28.5 5.1 28.5 5.3 28.9 5.4 29 5.4 29.2 5.4 29.3 5.4L29.3 5.8C29.1 5.8 29 5.8 28.8 5.8 28.3 5.9 28 5.7 28 5L28 2.1 27.3 2.1 27.3 1.7 28 1.7 28 .4 28.5.4 28.5 1.6zM30.1 0L30.6 0 30.6 2.4C30.8 1.9 31.4 1.5 32 1.5 33.2 1.5 33.5 2.1 33.5 3.1L33.5 5.8 33.1 5.8 33.1 3.2C33.1 2.5 32.9 1.9 32 1.9 31.2 1.9 30.7 2.5 30.7 3.3L30.7 5.8 30.1 5.8 30.1 0zM37.6 1.6L38.5 1.6 38.5 2 37.6 2 37.6 4.8C37.6 5.1 37.6 5.3 38 5.4 38.1 5.4 38.3 5.4 38.4 5.4L38.4 5.8C38.2 5.8 38.1 5.8 37.9 5.8 37.4 5.9 37.1 5.7 37.1 5L37.1 2.1 36.4 2.1 36.4 1.7 37.1 1.7 37.1.4 37.6.4 37.6 1.6zM43 3.7C43 4.9 42.3 5.9 41 5.9 39.7 5.9 39 4.9 39 3.7 39 2.5 39.7 1.5 41 1.5 42.3 1.5 43 2.5 43 3.7zM39.6 3.7C39.6 4.6 40.1 5.5 41.1 5.5 42.1 5.5 42.6 4.6 42.6 3.7 42.6 2.8 42.1 1.9 41.1 1.9 40.1 1.9 39.6 2.8 39.6 3.7zM49.5 5.9L49 5.9 49 5.1C48.7 5.7 48.2 6 47.5 6 46.4 6 46 5.4 46 4.4L46 1.7 46.5 1.7 46.5 4.5C46.5 5.3 46.8 5.7 47.6 5.7 48.5 5.7 48.9 4.9 48.9 4L48.9 1.8 49.4 1.8 49.5 5.9C49.4 5.9 49.5 5.9 49.5 5.9zM50.5 1.6L51 1.6 51 2.3C51.2 1.8 51.8 1.4 52.4 1.4 53.6 1.4 53.9 2 53.9 3L53.9 5.7 53.4 5.7 53.4 3.1C53.4 2.4 53.2 1.8 52.3 1.8 51.5 1.8 51 2.4 51 3.2L51 5.7 50.5 5.7 50.5 1.6zM54.9 0L55.4 0 55.4.8 54.9.8 54.9 0zM54.9 1.6L55.4 1.6 55.4 5.8 54.9 5.8 54.9 1.6z"/>
      <polygon points="55.9 1.6 56.5 1.6 57.8 5.3 57.8 5.3 59.1 1.6 59.6 1.6 58 5.8 57.5 5.8"/>
      <path d="M60.5 3.9C60.5 4.7 60.9 5.6 61.9 5.6 62.7 5.6 63.1 5.2 63.2 4.5L63.7 4.5C63.5 5.5 62.9 6 61.9 6 60.6 6 60 5 60 3.8 60 2.7 60.6 1.6 61.9 1.6 63.3 1.6 63.8 2.8 63.8 4L60.5 3.9zM63.2 3.5C63.2 2.7 62.7 2 61.9 2 61.1 2 60.6 2.7 60.5 3.5L63.2 3.5zM64.4 1.6L64.9 1.6 64.9 2.6C65.2 1.9 65.7 1.5 66.5 1.6L66.5 2.1C65.6 2 64.9 2.7 64.9 3.6L64.9 5.9 64.4 5.9 64.4 1.6zM69.5 2.9C69.5 2.3 69 2 68.4 2 67.9 2 67.4 2.2 67.4 2.7 67.4 3.2 67.9 3.3 68.3 3.4L69 3.6C69.6 3.7 70.2 4 70.2 4.8 70.2 5.7 69.3 6.1 68.5 6.1 67.5 6.1 66.8 5.6 66.8 4.6L67.3 4.6C67.3 5.3 67.9 5.7 68.5 5.7 69 5.7 69.7 5.5 69.7 4.9 69.7 4.4 69.2 4.2 68.8 4.1L68.1 4C67.4 3.7 66.9 3.4 66.9 2.7 66.9 1.8 67.7 1.5 68.5 1.5 69.3 1.5 70 1.9 70 2.9L69.5 2.9zM71 0L71.5 0 71.5.8 71 .8 71 0zM71 1.6L71.5 1.6 71.5 5.8 71 5.8 71 1.6zM73.3 1.6L74.2 1.6 74.2 2 73.3 2 73.3 4.8C73.3 5.1 73.3 5.3 73.7 5.4 73.8 5.4 74 5.4 74.1 5.4L74.1 5.8C73.9 5.8 73.8 5.8 73.6 5.8 72.9 5.8 72.7 5.6 72.7 4.9L72.7 2 72 2 72 1.6 72.7 1.6 72.7.3 73.2.3 73.3 1.6zM74.4 1.6L74.9 1.6 76.3 5.2 77.6 1.6 78.1 1.6 76.3 6.5C76 7.2 75.8 7.4 75.2 7.4 75 7.4 74.9 7.4 74.8 7.4L74.8 7C74.9 7 75 7 75.2 7 75.7 7 75.8 6.7 75.9 6.3L76.1 5.8 74.4 1.6z"/>
    </g>
  </g>
</svg>
