<svg width="20" height="18" viewBox="0 0 20 18" fill="none" xmlns="http://www.w3.org/2000/svg">
<path d="M17.6573 1.01048C15.0183 -0.82554 11.7596 0.0312675 10.0003 2.13249C8.24095 0.0312675 4.9822 -0.83574 2.34322 1.01048C0.943757 1.98968 0.0640948 3.6421 0.00411789 5.38631C-0.135828 9.34395 3.30285 12.5162 8.55083 17.3816L8.65079 17.4734C9.4105 18.1772 10.5801 18.1772 11.3398 17.4632L11.4497 17.3612C16.6977 12.506 20.1264 9.33375 19.9964 5.37611C19.9365 3.6421 19.0568 1.98968 17.6573 1.01048ZM10.1002 15.8618L10.0003 15.9638L9.90031 15.8618C5.14214 11.4656 2.00335 8.55854 2.00335 5.61071C2.00335 3.5707 3.50277 2.04068 5.502 2.04068C7.04141 2.04068 8.54084 3.05049 9.07063 4.4479H10.9399C11.4597 3.05049 12.9591 2.04068 14.4985 2.04068C16.4978 2.04068 17.9972 3.5707 17.9972 5.61071C17.9972 8.55854 14.8584 11.4656 10.1002 15.8618Z" fill="#3458A4"/>
</svg>
