<?xml version="1.0" encoding="utf-8"?>
<!-- Generator: Adobe Illustrator 21.0.0, SVG Export Plug-In . SVG Version: 6.00 Build 0)  -->
<svg version="1.1" id="Layer_1" xmlns="http://www.w3.org/2000/svg" xmlns:xlink="http://www.w3.org/1999/xlink" x="0px" y="0px"
	 viewBox="0 0 300 300" style="enable-background:new 0 0 300 300;" xml:space="preserve">
<style type="text/css">
	.st0{fill:#FFFFFF;}
</style>
<g>
	<path class="st0" d="M197.7,51.7v93.4h-43.5V51.7c0-2.6-1.9-4.5-4.5-4.5c-1.9,0.6-3.9,2.6-3.9,4.5v93.4h-43.5V51.7
		c0-26,21.4-47.4,48-47.4S197.7,25.7,197.7,51.7z"/>
	<path class="st0" d="M197.4,154.9v93.4c0,26.6-21.4,47.4-47.4,47.4c-26.6,0-47.4-21.4-47.4-47.4v-93.4h42.8v93.4
		c0,2.6,1.9,4.5,4.5,4.5s4.5-1.9,4.5-4.5v-93.4H197.4z"/>
</g>
</svg>
